<svg xmlns="http://www.w3.org/2000/svg" width="201" height="201" viewBox="0 0 201 201" fill="none">
<path fill-rule="evenodd" clip-rule="evenodd" d="M200.003 0.861687H0.00317383V200.862H200.003V0.861687ZM110.512 86.4806C110.342 86.4763 110.176 86.4721 110.019 86.4617L109.982 86.4307L107.682 86.4107C103.172 86.3907 99.1122 84.4107 98.2922 79.6607C97.0422 72.3807 102.952 67.1807 109.612 66.0307C113.112 65.4307 116.442 65.7607 119.682 67.0107L119.312 64.8707L142.682 60.8407L144.392 70.8007L138.222 71.5707L141.832 92.5507L130.712 94.4707L127.112 73.5007L121.032 74.8407L119.732 67.2907L118.122 75.4307C115.992 74.4607 113.702 73.8107 111.272 74.2307C110.302 74.3907 108.942 75.0107 109.162 76.2707C109.331 77.2848 110.469 77.3349 111.345 77.3734C111.452 77.3781 111.555 77.3826 111.652 77.3887L114.272 77.5247C119.162 77.7687 123.002 79.7017 123.902 84.9047C125.152 92.2197 119.162 96.9767 112.512 98.1247C108.612 98.7967 104.012 98.5027 100.262 97.3497L102.182 88.1047L102.832 88.4547C105.102 89.6967 107.662 90.5097 110.262 90.0617C111.399 89.8667 113.026 89.1257 112.789 87.7437C112.58 86.5331 111.485 86.5053 110.512 86.4806ZM88.9692 93.0647L98.6692 91.3917L98.6942 91.3707L100.114 99.6607L105.614 98.7107L110.884 129.361L87.3442 133.421L80.5842 124.461L82.2742 134.301L71.3942 136.181L66.1342 105.621L54.9142 107.561C61.2242 107.07 66.2542 109.961 67.4442 116.905C68.5242 123.164 65.2942 127.738 59.0842 128.808L53.4042 129.788L54.9842 139.014L44.2712 140.862L39.0032 110.212L51.8542 107.991L46.5942 77.4307L59.5442 75.1907C65.5142 74.1607 71.7642 74.5407 72.9742 81.6207C73.4442 84.3407 72.5842 87.1607 70.0142 88.4907L70.0542 88.7307C73.6242 89.3307 76.1062 91.3707 76.7412 95.0707C77.7112 100.701 73.4912 103.791 68.7812 105.061L79.1952 103.271L73.9412 72.7107L94.5132 69.1607L95.9532 77.5307L86.5802 79.1507L87.0832 82.0807L95.6452 80.6107L97.0132 88.5807L88.4532 90.0577L88.9692 93.0647ZM53.1652 121.877C55.1132 121.542 57.1672 120.852 56.7432 118.372L56.7442 118.373C56.3342 115.975 54.0442 116.245 52.2142 116.56L51.1542 116.742L52.0692 122.067L53.1652 121.877ZM58.1682 83.0617L58.9232 87.4517V87.4627L59.9372 87.2827C61.5602 87.0027 63.3592 86.5327 62.9952 84.4127C62.7082 82.7427 61.4552 82.5027 60.1982 82.7127L58.9382 82.9287L58.1682 83.0617ZM60.9072 98.9947L62.1652 98.7777H62.1742C63.9542 98.4697 66.6342 97.9677 66.1942 95.4477C65.7613 92.9293 63.0154 93.4013 61.2222 93.7096L61.1342 93.7247L60.0342 93.9147L60.9072 98.9947ZM79.3172 117.243L80.0872 117.11L80.0822 117.123C81.9022 116.813 83.6822 116.213 83.2922 113.933C82.8822 111.533 81.2222 111.573 79.2722 111.903L78.4222 112.043L79.3172 117.243ZM89.7081 120.965C90.3613 121.289 91.0506 121.632 91.7792 122.417L99.6352 130.689L94.4852 100.736L81.5212 102.972C87.6462 102.456 92.9112 104.699 94.1112 111.679C94.9142 116.352 93.4092 118.536 89.5572 120.666L89.5972 120.91C89.634 120.928 89.671 120.947 89.7081 120.965ZM126.064 104.829C122.736 105.403 120.472 108.513 121.046 111.847L121.074 111.821C121.654 115.201 124.984 117.301 128.304 116.731C130.904 116.281 132.704 114.841 134.184 112.791L135.824 124.311C134.234 125.511 130.104 126.551 128.114 126.901C119.394 128.411 111.414 122.801 109.904 114.061C108.364 105.121 114.154 96.7507 123.124 95.2107C125.684 94.7607 128.274 94.7807 130.804 95.1807L133.134 106.791C131.064 105.432 128.624 104.389 126.064 104.829ZM133.728 108.217L134.178 103.537L134.244 103.501L137.084 103.011C137.574 99.6299 139.125 96.492 141.514 94.0496C143.903 91.6072 147.005 89.9863 150.374 89.4207C152.934 88.9807 155.524 88.9907 158.054 89.3907L159.794 97.0907C156.104 97.2707 151.614 98.1307 149.374 100.901L158.944 99.2507L158.494 103.931L148.224 105.701L148.284 106.071L148.374 106.601C148.379 106.628 148.384 106.654 148.388 106.681C148.412 106.814 148.436 106.948 148.494 107.081L159.934 105.111L159.484 109.791L151.444 111.181C154.414 112.931 158.584 112.131 161.974 110.751L163.024 118.561C161.424 119.761 157.304 120.801 155.314 121.151C148.374 122.341 142.084 119.081 138.844 113.361L134.744 114.071L135.184 109.389L137.214 109.039L137.088 108.309L136.975 107.659L133.728 108.217ZM130.818 133.246C130.818 131.939 132.059 131.169 133.251 131.169V131.183C134.443 131.183 135.683 131.943 135.683 133.253C135.683 134.543 134.441 135.273 133.251 135.273C132.058 135.273 130.818 134.538 130.818 133.246ZM144.48 130.727H142.457V127.823H149.361C149.359 127.898 149.357 127.972 149.356 128.046C149.311 129.974 149.275 131.561 147.876 133.083C146.571 134.522 144.546 135.275 142.651 135.275C138.898 135.275 135.861 132.952 135.861 128.995C135.861 124.99 138.815 122.555 142.683 122.555C144.823 122.555 147.761 123.617 148.723 125.725L144.546 127.262C144.202 126.624 143.566 126.314 142.846 126.314C141.248 126.314 140.366 127.687 140.366 129.174C140.366 130.531 141.215 131.807 142.668 131.807C143.37 131.807 144.267 131.463 144.48 130.727ZM157.736 130.238V130.335L157.712 130.331L157.76 130.367C157.987 130.536 158.229 130.716 158.462 131.071L161.142 135.077H155.992L154.032 131.12H153.952V135.077H149.582V122.749H154.992C157.784 122.749 160.118 123.926 160.118 127.034C160.118 128.914 159.383 129.666 157.736 130.238ZM153.964 128.211H154.274L154.284 128.201C155.024 128.201 155.754 128.081 155.754 127.171C155.754 126.211 155.104 126.111 154.314 126.111H153.964V128.211Z" fill="#E6E6E6"/>
</svg>