<svg xmlns="http://www.w3.org/2000/svg" fill="none" height="80" width="148"><linearGradient id="a" gradientUnits="userSpaceOnUse" x1="110.4" x2="110.4" y1="72.7" y2="79.7"><stop offset="0" stop-color="#a6a6a6"/><stop offset="1" stop-color="gray"/></linearGradient><path d="M35 11.7s5-1.4 8.6-7.2c.5-.8 1.6-1 2.4-.4 1 .9 2.2 2.2 2.8 3.8.3.7 0 1.4-.5 1.8A17.4 17.4 0 0 1 36.1 13z" fill="#ec1639"/><path d="M25.6 3.5A14 14 0 0 1 30.7.2a3 3 0 0 1 3.5 1.1c.8 1.1 1.7 2.8 2.4 5 1.3 4.7 3.2 6.1 4.4 6.4v.6h-5.3s-5.4-.5-10.2-5.7a3 3 0 0 1 .1-4z" fill="#ec1639"/><path d="M34.2 1.3A3 3 0 0 0 30.7.2a14 14 0 0 0-5 3.3 3 3 0 0 0-.2 4.1c1 1 2 2 3 2.7h1.2a7 7 0 0 0 6.7-4.5c-.7-2-1.5-3.5-2.2-4.5zM46 4.1c-.8-.6-2-.4-2.4.4A18.2 18.2 0 0 1 40 8.8a7.1 7.1 0 0 0 5.4 2.7c1.3-.6 2.3-1.3 2.9-1.8.6-.4.8-1.1.5-1.8-.6-1.6-1.8-3-2.8-3.8z" fill="#fff" opacity=".3"/><path d="M21.5 18.3h31.7v17.4H21.5z" fill="#d41433"/><path d="M21.5 18.3h31.7V21H21.5z" fill="#000" opacity=".3"/><path d="M20.4 12.9h34v6h-34z" fill="#d41433"/><path d="M34.4 12.9h6v22.8h-6z" fill="#ec1639"/><path d="M9.4 35.7h52v14.8h-52z" fill="#edf1f2"/><g fill="#d41433"><path d="M11 35.7H9.5V37zM9.4 41.6v-2l4.8-3.9h2.6zM9.4 46.1v-2L20 35.7h2.6zM9.6 50.5h-.2v-1.8l16.2-13h2.5zM15.3 50.5h-2.5l18.5-14.8h2.5zM21 50.5h-2.5L37 35.7h2.5zM26.7 50.5h-2.5l18.5-14.8h2.5zM32.4 50.5h-2.6l18.6-14.8h2.5zM38 50.5h-2.5l18.6-14.8h2.5zM43.7 50.5h-2.5l18.6-14.8h1.6v.7zM49.4 50.5H47L61.4 39v2zM55.1 50.5h-2.5l8.8-7v2zM60.8 50.5h-2.5l3.1-2.5v2z"/></g><path d="M1.7 50.5h71.7v7.8H1.7zM4 58.3h67.1v21.4h-67z" fill="#ec1639"/><path d="M4 58.3h67.1V60h-67z" fill="#000" opacity=".3"/><path d="M18.9 50.5h6v29.2h-6z" fill="#dde2e6"/><path d="M123 51.6c-5.8 0-10.2-10-10.2-23.4 0-13.4 4.4-23.5 10.2-23.5s10.2 10.1 10.2 23.5-4.4 23.4-10.2 23.4zm0-44.1c-3.5 0-7.4 8.5-7.4 20.7s3.9 20.7 7.4 20.7c3.5 0 7.5-8.5 7.5-20.7s-4-20.7-7.5-20.7z" fill="#ccddf7"/><path d="M109.8 43c-4.4 0-6.3-1.7-7.1-3-3-5.1 3.6-14 15.2-20.7 6.5-3.7 13.3-6 18.3-6 4.4 0 6.3 1.8 7.1 3.2 3 5-3.6 13.8-15.2 20.5-6.5 3.8-13.3 6-18.3 6zM136.2 16c-4.5 0-10.9 2.1-17 5.6-10.5 6.1-15.9 13.8-14.1 16.8.6 1.1 2.3 1.7 4.7 1.7 4.5 0 10.9-2 17-5.6 10.5-6 15.9-13.7 14.1-16.8-.6-1-2.3-1.7-4.7-1.7z" fill="#ccddf7"/><path d="M136.2 43c-5 0-11.8-2.2-18.3-6-11.6-6.7-18.1-15.5-15.2-20.5.8-1.4 2.7-3.1 7-3.1 5 0 12 2.2 18.4 6 11.6 6.6 18.1 15.5 15.2 20.5-.8 1.4-2.7 3-7 3zM109.8 16c-2.4 0-4 .6-4.7 1.7-1.8 3 3.6 10.7 14.2 16.8 6 3.5 12.4 5.6 17 5.6 2.3 0 4-.6 4.6-1.7 1.8-3-3.6-10.7-14.2-16.8-6-3.5-12.4-5.6-17-5.6z" fill="#ccddf7"/><path d="M123 31a2.8 2.8 0 1 0 0-5.6 2.8 2.8 0 0 0 0 5.5z" fill="#ccddf7"/><path d="M75.4 72.7h70v3.7c0 1.8-1.4 3.3-3.2 3.3H79.4a4 4 0 0 1-4-4z" fill="url(#a)"/><path d="M56 31c-.2-1.6 1-3 2.6-3h54.6c2.6 0 4.8 2 5.1 4.5l6.1 44.2c.2 1.5-1 3-2.5 3H67.2c-2.5 0-4.7-2-5-4.5z" fill="#bfbfbf"/><path clip-rule="evenodd" d="M91.3 52.8c.2 0 .5 0 .6.3 0 .3-.3.4-.5.5-.6 0-1-.1-1.5-.4h-.2l-.3 1.8c.7.3 1.6.3 2.4.2 1.4-.2 2.6-1.2 2.3-2.7-.2-1-1-1.4-2-1.4h-.5c-.1 0-.4 0-.5-.3 0-.3.3-.4.5-.4.5 0 1 0 1.4.2l.3-1.6.2 1.5 1.3-.3.7 4.3 2.2-.4-.7-4.2 1.3-.2-.4-2-4.7.8v.5c-.6-.3-1.3-.4-2-.2-1.3.2-2.5 1.2-2.2 2.7.1 1 1 1.3 1.9 1.3zm-2.3 1-2 .4v-.6l1.7-.3-.3-1.6-1.7.3-.1-.6 1.9-.3-.3-1.7-4.2.7 1.1 6.1-2.1.4c1-.3 1.8-.9 1.6-2-.1-.8-.6-1.2-1.3-1.3.5-.3.6-.9.5-1.4-.2-1.4-1.5-1.5-2.7-1.3l-2.6.4 1 6.2-2.5.4 1 6.1 2.2-.3-.3-1.9 1.1-.2c1.3-.2 2-1.1 1.7-2.4-.2-1.3-1.2-2-2.5-1.8l2.3-.4 1 6.1 2.2-.4-.3-2 1.3 1.9 4.8-.9-1-6.1-1.2.2zm-8.4 5.4c0 .5-.4.7-.7.7h-.3l-.2-1h.3c.3 0 .8-.1.9.3zM81 53l-.1-.8.4-.1c.2 0 .5 0 .5.3.1.5-.3.6-.6.6zm.7 2.3h-.3l-.2-1h.3c.3 0 .9-.2 1 .3 0 .5-.5.6-.8.7zm3.6 3.7H85l-.2-1h.2c.4-.1.7-.1.8.3.1.5-.3.6-.6.7zm2.3 1-.4-.3c.8-.4 1-.9 1-1.8-.3-1.4-1.4-1.9-2.6-1.7l2.6-.5 1 6zm6-2c-.2-.7.3-1.4 1-1.5.5 0 1 .1 1.4.4l-.5-2.3H94c-1.9.3-3 2-2.7 3.8.3 1.7 1.9 2.8 3.7 2.5.4 0 1.2-.2 1.5-.5l-.3-2.3c-.3.4-.7.7-1.2.8-.7.1-1.3-.3-1.5-1zm2.6-1.7-.1.9.7-.1v.3h-.4l-.1 1 .8-.2c.7 1.2 2 1.8 3.3 1.6.4 0 1.3-.3 1.6-.5l-.2-1.6c-.7.3-1.5.4-2.1.1l1.6-.3v-1l-2.2.5V56.7l2-.4v-.9l-1.9.3c.5-.5 1.4-.7 2.1-.7l-.3-1.6h-1.6a3.2 3.2 0 0 0-2.6 2.8zm-.2 5.5c-.2 0-.5.2-.5.4 0 .3.3.4.5.4s.5-.1.5-.4c0-.2-.3-.4-.5-.4zm1.9 0h.4l-.4.1c-.3 0-.5-.2-.5-.5s.2-.6.5-.6c.2 0 .3 0 .4.2l.8-.3c-.2-.4-.8-.6-1.2-.6-.8 0-1.4.5-1.4 1.3s.6 1.2 1.4 1.2c.4 0 .8-.1 1-.4.3-.3.3-.7.3-1H98zm3-.2c.4-.1.5-.3.5-.6 0-.7-.5-.9-1-.9h-1.1v2.5h.9v-.8l.4.8h1l-.5-.8-.2-.2zm-.7-.4v-.4c.2 0 .3 0 .3.2s-.1.2-.3.2z" fill="#fff" fill-rule="evenodd"/></svg>