<svg xmlns="http://www.w3.org/2000/svg" width="41" height="21" viewBox="0 0 41 21" fill="none">
  <path d="M3.11987 0.738103C3.22825 0.724862 3.33369 0.694456 3.44354 0.695437C14.9858 0.694947 26.5281 0.695437 38.0704 0.694946C38.4911 0.755757 38.9198 0.847464 39.2949 1.05687C40.056 1.45214 40.621 2.19854 40.7956 3.03861C40.9275 3.69331 40.8701 4.36517 40.8819 5.02968C40.8819 8.92009 40.8819 12.811 40.8819 16.7014C40.8672 17.1384 40.9187 17.5807 40.8427 18.0133C40.7495 19.2986 39.6877 20.4393 38.4117 20.6257C38.0429 20.7267 37.6604 20.685 37.2833 20.6929C26.0034 20.6924 14.723 20.6938 3.44256 20.6919C3.13507 20.6541 2.82563 20.6065 2.52942 20.5129C1.56822 20.1755 0.800725 19.3133 0.610936 18.308C0.584454 18.1658 0.535904 18.026 0.532471 17.8809C0.533942 13.1224 0.53149 8.36397 0.533451 3.60553C0.578079 3.18623 0.65115 2.76006 0.844862 2.38048C1.26563 1.49922 2.14837 0.85531 3.11987 0.738103ZM5.65186 6.75543C5.65186 9.25897 5.65186 11.763 5.65186 14.2665C6.17071 14.2597 6.68956 14.2665 7.20842 14.2626C7.20057 13.5898 7.20989 12.9169 7.20351 12.2441C7.54631 12.1195 7.87979 11.9719 8.20542 11.8086C8.79538 12.6065 9.3775 13.4098 9.96206 14.2116C10.0013 14.2847 10.0945 14.2572 10.1612 14.2651C10.7394 14.2611 11.3176 14.2665 11.8957 14.2626C11.0974 13.1548 10.2857 12.0563 9.47264 10.9597C9.66929 10.7812 9.86447 10.6007 10.0327 10.3943C10.782 9.564 11.1905 8.47431 11.3342 7.37628C11.3489 7.17129 11.3558 6.96581 11.3789 6.76131C10.8644 6.76082 10.3505 6.76523 9.83603 6.75886C9.8326 7.44053 9.66831 8.12269 9.34464 8.72393C8.88562 9.58803 8.10685 10.2638 7.20645 10.6385C7.20596 9.34528 7.20253 8.05256 7.20842 6.75935C6.68956 6.76131 6.17071 6.76867 5.65186 6.75543ZM11.9291 6.75543C11.9291 9.25946 11.9291 11.763 11.9291 14.2665C12.4249 14.2607 12.9207 14.2646 13.416 14.2646C13.4141 11.7635 13.4155 9.26191 13.4155 6.76082C12.9197 6.75935 12.4244 6.76965 11.9291 6.75543ZM14.8564 9.48014C14.2433 9.91955 13.8388 10.6341 13.7696 11.3844C13.7024 12.0254 13.8574 12.6923 14.2301 13.2215C14.7053 13.9267 15.5415 14.3739 16.3933 14.3681C16.9739 14.3985 17.5624 14.1935 17.9763 13.78C17.9783 13.9409 17.9768 14.1023 17.9724 14.2631C18.4432 14.2665 18.914 14.2592 19.3848 14.2675C19.3814 12.5398 19.3848 10.8116 19.3833 9.08389C18.913 9.08732 18.4432 9.08242 17.9734 9.08683C17.9783 9.24867 17.9788 9.4105 17.9763 9.57234C17.6708 9.26044 17.2648 9.05348 16.8307 9.00003C16.1442 8.89852 15.4164 9.06624 14.8564 9.48014ZM25.4364 9.17069C25.2045 9.27662 25.0113 9.4463 24.8269 9.61844C24.8259 9.43993 24.8274 9.26142 24.8274 9.0834C24.3571 9.08879 23.8868 9.08193 23.4169 9.08683C23.4233 10.8126 23.4223 12.5378 23.4174 14.2631C23.9034 14.267 24.3899 14.2587 24.8759 14.2675C24.8754 13.3451 24.8769 12.4226 24.8749 11.5006C24.8764 11.2 24.9666 10.893 25.1662 10.664C25.5316 10.2476 26.199 10.18 26.6713 10.4453C27.0303 10.6385 27.224 11.0534 27.2304 11.4506C27.2294 12.3892 27.2299 13.3279 27.2299 14.2665C27.7203 14.2621 28.2107 14.2621 28.7011 14.2665C28.7006 13.296 28.7021 12.3255 28.7006 11.355C28.6859 11.0161 28.6565 10.6709 28.5319 10.3526C28.3274 9.77537 27.8537 9.30016 27.276 9.09664C26.6821 8.89655 26.0088 8.90342 25.4364 9.17069ZM31.3881 8.98483C30.7711 9.02945 30.1728 9.30458 29.7393 9.74594C29.2195 10.2496 28.9287 10.9769 28.9463 11.6988C28.9419 12.4054 29.2347 13.1087 29.7403 13.6025C30.2694 14.138 31.0374 14.4195 31.7882 14.3636C32.3002 14.3553 32.8029 14.1425 33.1638 13.7781C33.1643 13.9409 33.1638 14.1037 33.1638 14.267C33.6376 14.2616 34.1118 14.2626 34.586 14.2665C34.586 12.5393 34.5865 10.8116 34.5855 9.08389C34.1118 9.08585 33.6381 9.08585 33.1643 9.08389C33.1638 9.2472 33.1643 9.41099 33.1638 9.57479C32.7171 9.0937 32.0261 8.91519 31.3881 8.98483ZM22.3052 9.07702C21.9884 9.16677 21.7417 9.39726 21.5519 9.65669C21.5534 9.46592 21.5553 9.27564 21.5573 9.08536C21.0885 9.08487 20.6201 9.08585 20.1518 9.08487C20.1538 10.8116 20.1538 12.5378 20.1523 14.2646C20.6368 14.2636 21.1218 14.2621 21.6064 14.266C21.6014 13.5903 21.6059 12.9145 21.6044 12.2387C21.5975 11.8395 21.5961 11.4025 21.8359 11.0622C22.0914 10.6929 22.5626 10.5443 22.9952 10.5644C22.9996 10.0431 22.9918 9.52232 23.0001 9.0015C22.7657 8.99414 22.5283 8.99856 22.3052 9.07702ZM35.8822 12.4177C35.6183 12.4584 35.3942 12.633 35.2446 12.8478C35.0627 13.1249 35.0465 13.4966 35.1858 13.7948C35.3153 14.0508 35.5526 14.2513 35.8312 14.3254C36.1563 14.4019 36.5271 14.3175 36.7585 14.0684C37.1263 13.7261 37.1406 13.0886 36.8027 12.7217C36.5805 12.4613 36.2137 12.353 35.8822 12.4177Z" fill="#FFB3C7"/>
  <path d="M16.3143 10.3594C17.1039 10.1652 17.993 10.8214 17.9739 11.6497C18.021 12.4623 17.1882 13.1396 16.4026 13.0003C15.7626 12.9307 15.2109 12.351 15.2124 11.7012C15.1825 11.0622 15.693 10.4703 16.3143 10.3594Z" fill="#FFB3C7"/>
  <path d="M31.517 10.357C32.1614 10.2123 32.874 10.6061 33.0922 11.2304C33.2599 11.6831 33.1486 12.225 32.8107 12.5712C32.4576 12.9616 31.8701 13.1111 31.3704 12.9527C31.0585 12.8659 30.7947 12.6497 30.6127 12.3863C30.4107 12.0911 30.3665 11.7115 30.4357 11.3663C30.5563 10.8587 31.0041 10.4462 31.517 10.357Z" fill="#FFB3C7"/>
  <path d="M5.65186 6.75543C6.17071 6.76867 6.68956 6.76131 7.20842 6.75935C7.20253 8.05256 7.20596 9.34528 7.20645 10.6385C8.10685 10.2638 8.88562 9.58803 9.34464 8.72393C9.66831 8.12269 9.8326 7.44053 9.83603 6.75886C10.3505 6.76523 10.8644 6.76082 11.3789 6.76131C11.3558 6.96581 11.3489 7.17129 11.3342 7.37628C11.1905 8.47431 10.782 9.564 10.0327 10.3943C9.86447 10.6007 9.66929 10.7812 9.47264 10.9597C10.2857 12.0563 11.0974 13.1548 11.8957 14.2626C11.3176 14.2665 10.7394 14.2611 10.1612 14.2651C10.0945 14.2572 10.0013 14.2847 9.96206 14.2116C9.3775 13.4098 8.79538 12.6065 8.20542 11.8086C7.87979 11.9719 7.54631 12.1195 7.20351 12.2441C7.20989 12.9169 7.20057 13.5898 7.20842 14.2626C6.68956 14.2665 6.17071 14.2597 5.65186 14.2665C5.65186 11.763 5.65186 9.25897 5.65186 6.75543Z" fill="black"/>
  <path d="M11.9291 6.75543C12.4244 6.76965 12.9197 6.75935 13.4155 6.76082C13.4155 9.26191 13.4141 11.7635 13.416 14.2646C12.9207 14.2646 12.4249 14.2607 11.9291 14.2665C11.9291 11.763 11.9291 9.25946 11.9291 6.75543Z" fill="black"/>
  <path d="M14.8564 9.48014C15.4164 9.06624 16.1442 8.89852 16.8307 9.00003C17.2648 9.05348 17.6708 9.26044 17.9763 9.57234C17.9788 9.4105 17.9783 9.24867 17.9734 9.08683C18.4432 9.08242 18.913 9.08732 19.3833 9.08389C19.3848 10.8116 19.3814 12.5398 19.3848 14.2675C18.914 14.2592 18.4432 14.2665 17.9724 14.2631C17.9768 14.1023 17.9783 13.9409 17.9763 13.78C17.5624 14.1935 16.9739 14.3985 16.3933 14.3681C15.5415 14.3739 14.7053 13.9267 14.2301 13.2215C13.8574 12.6923 13.7024 12.0254 13.7696 11.3844C13.8388 10.6341 14.2433 9.91955 14.8564 9.48014ZM16.3143 10.3594C15.693 10.4703 15.1825 11.0622 15.2124 11.7012C15.2109 12.351 15.7626 12.9307 16.4026 13.0003C17.1882 13.1396 18.021 12.4623 17.9739 11.6497C17.993 10.8214 17.1039 10.1652 16.3143 10.3594Z" fill="black"/>
  <path d="M25.4364 9.17069C26.0088 8.90342 26.6821 8.89655 27.276 9.09664C27.8537 9.30016 28.3274 9.77537 28.5319 10.3526C28.6565 10.6709 28.6859 11.0161 28.7006 11.355C28.7021 12.3255 28.7006 13.296 28.7011 14.2665C28.2107 14.2621 27.7203 14.2621 27.2299 14.2665C27.2299 13.3279 27.2294 12.3892 27.2304 11.4506C27.224 11.0534 27.0303 10.6385 26.6713 10.4453C26.199 10.18 25.5316 10.2476 25.1662 10.664C24.9666 10.893 24.8764 11.2 24.8749 11.5006C24.8769 12.4226 24.8754 13.3451 24.8759 14.2675C24.3899 14.2587 23.9034 14.267 23.4174 14.2631C23.4223 12.5378 23.4233 10.8126 23.4169 9.08683C23.8868 9.08193 24.3571 9.08879 24.8274 9.0834C24.8274 9.26142 24.8259 9.43993 24.8269 9.61844C25.0113 9.4463 25.2045 9.27662 25.4364 9.17069Z" fill="black"/>
  <path d="M31.3881 8.98483C32.0261 8.91519 32.7171 9.0937 33.1638 9.57479C33.1643 9.41099 33.1638 9.2472 33.1643 9.08389C33.6381 9.08585 34.1118 9.08585 34.5855 9.08389C34.5865 10.8116 34.586 12.5393 34.586 14.2665C34.1118 14.2626 33.6376 14.2616 33.1638 14.267C33.1638 14.1037 33.1643 13.9409 33.1638 13.7781C32.8029 14.1425 32.3002 14.3553 31.7882 14.3636C31.0374 14.4195 30.2694 14.138 29.7403 13.6025C29.2347 13.1087 28.9419 12.4054 28.9463 11.6988C28.9287 10.9769 29.2195 10.2496 29.7393 9.74594C30.1728 9.30458 30.7711 9.02945 31.3881 8.98483ZM31.517 10.357C31.0041 10.4462 30.5563 10.8587 30.4357 11.3663C30.3665 11.7115 30.4107 12.0911 30.6127 12.3863C30.7947 12.6497 31.0585 12.8659 31.3704 12.9527C31.8701 13.1111 32.4576 12.9616 32.8107 12.5712C33.1486 12.225 33.2599 11.6831 33.0922 11.2304C32.874 10.6061 32.1614 10.2123 31.517 10.357Z" fill="black"/>
  <path d="M22.3052 9.07702C22.5283 8.99856 22.7657 8.99414 23.0001 9.0015C22.9918 9.52232 22.9996 10.0431 22.9952 10.5644C22.5626 10.5443 22.0914 10.6929 21.8359 11.0622C21.5961 11.4025 21.5975 11.8395 21.6044 12.2387C21.6059 12.9145 21.6014 13.5903 21.6064 14.266C21.1218 14.2621 20.6368 14.2636 20.1523 14.2646C20.1538 12.5378 20.1538 10.8116 20.1518 9.08487C20.6201 9.08585 21.0885 9.08487 21.5573 9.08536C21.5553 9.27564 21.5534 9.46592 21.5519 9.65669C21.7417 9.39726 21.9884 9.16677 22.3052 9.07702Z" fill="black"/>
  <path d="M35.8822 12.4177C36.2137 12.353 36.5805 12.4613 36.8027 12.7217C37.1406 13.0886 37.1263 13.7261 36.7585 14.0684C36.5271 14.3175 36.1563 14.4019 35.8312 14.3254C35.5526 14.2513 35.3153 14.0508 35.1858 13.7948C35.0465 13.4966 35.0627 13.1249 35.2446 12.8478C35.3942 12.633 35.6183 12.4584 35.8822 12.4177Z" fill="black"/>
  </svg>