<svg xmlns="http://www.w3.org/2000/svg" width="27" height="20" fill="none"><path fill="#44D62C" d="M27 0H0v20h27V0Z"/><path fill="#fff" fill-rule="evenodd" d="M10.89 9.35c.48.19 1 .29 1.52.28.52 0 1.03-.1 1.52-.28a3.6 3.6 0 0 0 2-2.02c.2-.49.29-1 .28-1.53 0-.52-.08-1.04-.27-1.53a3.56 3.56 0 0 0-2.01-2 4.23 4.23 0 0 0-3.04 0 3.6 3.6 0 0 0-2 2 4 4 0 0 0-.3 1.53 4 4 0 0 0 .3 1.53 3.7 3.7 0 0 0 2 2.02Zm2.5-1.8a1.7 1.7 0 0 1-.98.27 1.68 1.68 0 0 1-1.6-1 2.36 2.36 0 0 1-.2-1.02c0-.35.06-.7.21-1.02a1.69 1.69 0 0 1 1.59-1c.34 0 .68.1.97.28.27.18.48.44.6.73.15.32.22.67.22 1.02 0 .34-.07.7-.21 1.01-.13.3-.34.55-.6.73ZM2.01 2.3v7a.14.14 0 0 0 .14.14H5.2a4.76 4.76 0 0 0 2.4-.5c.55-.34.82-.87.82-1.6.01-.32-.08-.64-.27-.9a2.1 2.1 0 0 0-.64-.58 2.83 2.83 0 0 0-.6-.28.02.02 0 0 1 .01-.04c.37-.15.68-.42.89-.77.13-.21.2-.47.19-.72a1.63 1.63 0 0 0-.57-1.29 2.2 2.2 0 0 0-.85-.44 4.87 4.87 0 0 0-1.38-.16H2.15A.14.14 0 0 0 2 2.3ZM5.1 5.09H3.78V3.54H5.1c.22 0 .44.06.64.16.2.11.3.32.3.64 0 .27-.1.47-.3.58-.19.12-.42.17-.64.17Zm-.02 2.98h-1.3V6.35h1.3c.18 0 .35.02.52.05a1 1 0 0 1 .47.25.72.72 0 0 1 .2.54.77.77 0 0 1-.2.58c-.13.13-.29.21-.47.24-.17.04-.34.06-.52.06Z" clip-rule="evenodd"/><path fill="#fff" d="m16.35 9.24 2.22-3.44a.13.13 0 0 0 0-.15l-2.21-3.27a.13.13 0 0 1 .04-.2.14.14 0 0 1 .07-.01h1.63a.14.14 0 0 1 .12.06l1.67 2.6v.01a.03.03 0 0 0 .04 0l1.67-2.61a.14.14 0 0 1 .12-.07h1.63a.14.14 0 0 1 .13.15c0 .02 0 .04-.02.06l-2.21 3.28a.13.13 0 0 0 0 .15l2.22 3.44a.13.13 0 0 1-.12.2h-1.63a.14.14 0 0 1-.12-.06l-1.66-2.73a.03.03 0 0 0-.03-.02h-.01l-.01.02-1.67 2.73a.14.14 0 0 1-.12.06h-1.64a.14.14 0 0 1-.12-.07.13.13 0 0 1 0-.13ZM2 10.7v7.03a.14.14 0 0 0 .14.13h1.5a.14.14 0 0 0 .14-.13v-3.98a.03.03 0 0 1 .02-.02h.01l.01.01 2.61 4.06a.14.14 0 0 0 .12.06h1.32a.14.14 0 0 0 .14-.13v-7.04a.14.14 0 0 0-.14-.13h-1.5a.14.14 0 0 0-.14.13v3.87H6.2a.03.03 0 0 1-.02 0l-2.52-3.94a.13.13 0 0 0-.11-.06H2.14a.14.14 0 0 0-.14.13ZM17.9 17.76l-1.65-7.04a.13.13 0 0 1 .08-.15l.06-.01h1.67a.14.14 0 0 1 .14.1l.86 4.53.01.01a.03.03 0 0 0 .05-.01l.99-4.35a.13.13 0 0 1 .13-.11h1.43a.14.14 0 0 1 .13.1l1 4.35v.02a.03.03 0 0 0 .04 0l.01-.02.74-4.51a.14.14 0 0 1 .14-.12h1.67a.14.14 0 0 1 .1.05l.04.05v.07l-1.64 7.03a.14.14 0 0 1-.13.1H22.1a.14.14 0 0 1-.13-.1l-1.03-4.4v-.01a.03.03 0 0 0-.04 0l-.01.01-1.02 4.4a.14.14 0 0 1-.13.1h-1.7a.14.14 0 0 1-.14-.1Z"/><path fill="#fff" fill-rule="evenodd" d="M10.92 17.76a4 4 0 0 0 1.52.29c.53 0 1.05-.1 1.53-.29A3.63 3.63 0 0 0 16 15.74c.37-1 .37-2.08 0-3.07a3.57 3.57 0 0 0-2.02-2.02 4.24 4.24 0 0 0-3.05 0 3.62 3.62 0 0 0-2.01 2.02 4.26 4.26 0 0 0 0 3.07 3.74 3.74 0 0 0 2 2.02Zm2.51-1.8c-.3.18-.64.28-.99.28a1.69 1.69 0 0 1-1.59-1.02 2.53 2.53 0 0 1 0-2.04 1.69 1.69 0 0 1 1.59-1c.35-.02.7.08.99.27.27.18.48.43.6.73a2.59 2.59 0 0 1 0 2.04c-.12.3-.33.55-.6.73Z" clip-rule="evenodd"/></svg>