<svg xmlns="http://www.w3.org/2000/svg" xmlns:xlink="http://www.w3.org/1999/xlink"><defs/><symbol id="icon-warn-20" viewBox="0 0 20 20"><path fill-rule="evenodd" d="M10.5176 3.31148C10.297 2.89617 9.70303 2.89617 9.48176 3.31148L1.06975 19.1299C0.861402 19.5225 1.14487 19.9958 1.58798 19.9958H18.4126C18.8551 19.9958 19.1386 19.5225 18.9302 19.1299L10.5176 3.31148ZM11 18H9V15H11V18ZM11 13H9V8H11V13Z"/></symbol><symbol id="icon-want-remove-16" viewBox="0 0 16 16"><path fill-rule="evenodd" d="M5 2C6 2 7.27586 2.91379 8 4C8.73603 2.89595 10 2 11 2C12.9797 2 15 3.47207 15 6C15 7.02226 14.5428 8.04451 13.8621 9H8V13H9.55228C8.64924 13.629 8 14 8 14C8 14 1 10 1 6C1 3.44827 3 2 5 2ZM9 12V10H15V12H9Z"/></symbol><symbol id="icon-want-outline-20" viewBox="0 0 20 20"><path fill-rule="evenodd" d="M14 3C11 3 10 6 10 6C10 6 9 3 6 3C4 3 1 4 1 8C1 14 10 19 10 19C10 19 19 14 19 8C19 4 16 3 14 3ZM6 4C9 4 10 8 10 8C10 8 11 4 14 4C16.3333 4 18 5.25 18 8C18 10.2709 16.6194 12.6742 14 15.0026C13.0531 15.8443 10 18 10 18C10 18 6.94692 15.8443 6 15.0026C3.38061 12.6742 2 10.2709 2 8C2 5.25 3.66667 4 6 4Z"/></symbol><symbol id="icon-want-add-16" viewBox="0 0 16 16"><path fill-rule="evenodd" d="M5 2C6 2 7.27586 2.91379 8 4C8.73603 2.89595 10 2 11 2C12.9797 2 15 3.47207 15 6C15 6.95159 14.6038 7.90317 14 8.80091V7H10V9H8V13H9.55228C8.64924 13.629 8 14 8 14C8 14 1 10 1 6C1 3.44827 3 2 5 2ZM11 8H13V10H15V12H13V14H11V12H9V10H11V8Z"/></symbol><symbol id="icon-want-24" viewBox="0 0 24 24"><path fill-rule="evenodd" d="M8 4C9.5 4 11.4138 5.37069 12.5 7C13.6041 5.34392 15.5 4 17 4C19.9696 3.99999 23 6.2081 23 10C23 16 12.5 22 12.5 22C12.5 22 2 16 2 10C2 6.17241 5 4 8 4Z"/></symbol><symbol id="icon-want-20" viewBox="0 0 20 20"><path fill-rule="evenodd" d="M10 6C10 6 11 3 14 3C16 3 19 4 19 8C19 14 10 19 10 19C10 19 1 14 1 8C1 4 4 3 6 3C9 3 10 6 10 6Z"/></symbol><symbol id="icon-want-16" viewBox="0 0 16 16"><path fill-rule="evenodd" d="M5 2C6 2 7.27586 2.91379 8 4C8.73603 2.89595 10 2 11 2C12.9797 2 15 3.47207 15 6C15 10 8 14 8 14C8 14 1 10 1 6C1 3.44827 3 2 5 2Z"/></symbol><symbol id="icon-trash-outline-20" viewBox="0 0 20 20"><path fill-rule="evenodd" d="M7 15H8V8H7V15ZM18.0556 2.89474H17.1111H13.3333V1.94737C13.3333 1.252 13.0783 1 12.3889 1H8.61111C7.92053 1 7.66667 1.252 7.66667 1.94737V2.89474H3.88889H2.94444C2.25387 3.25 2 3.502 2 3.84211C2 4.12187 2.25387 4.375 2.94444 4.78947V18.0526C3.13333 18.496 3.64107 19 3.88889 19H17.1111C17.3601 19 17.8667 18.496 18.0556 18.0526V4.78947C18.745 4.375 19 4.12187 19 3.84211C19 3.502 18.745 3.25 18.0556 2.89474ZM9 2H12V3H9V2ZM17 17C17 17.7375 16.7341 18 16 18H5C4.26473 18 4 17.7375 4 17V5V4H5H16H17C17 4 17 4.45383 17 5V17ZM13 15H14V8H13V15ZM10 15H11V7H10V15Z"/></symbol><symbol id="icon-trash-20" viewBox="0 0 20 20"><path fill-rule="evenodd" d="M17.1111 2.89474H18.0556C18.745 3.25 19 3.502 19 3.84211C19 4.12187 18.745 4.375 18.0556 4.78947V18.0526C17.8667 18.496 17.3601 19 17.1111 19H3.88889C3.64107 19 3.13333 18.496 2.94444 18.0526V4.78947C2.25387 4.375 2 4.12187 2 3.84211C2 3.502 2.25387 3.25 2.94444 2.89474H3.88889H7.66667V1.94737C7.66667 1.252 7.92053 1 8.61111 1H12.3889C13.0783 1 13.3333 1.252 13.3333 1.94737V2.89474H17.1111ZM12 2H9V3H12V2ZM16 18C16.7341 18 17 17.7375 17 17V5V4H16H5H4V5V17C4 17.7375 4.26473 18 5 18H16ZM7 15H8V8H7V15ZM13 15H14V8H13V15ZM10 15H11V7H10V15Z"/></symbol><symbol id="icon-trash-16" viewBox="0 0 16 16"><path fill-rule="evenodd" d="M13.4444 2.56037H14.2222C14.79 2.85294 15 3.06047 15 3.34056C15 3.57096 14.79 3.77941 14.2222 4.12074V15.0433C14.0667 15.4085 13.6495 15.8235 13.4444 15.8235H2.55556C2.35147 15.8235 1.93333 15.4085 1.77778 15.0433V4.12074C1.20907 3.77941 1 3.57096 1 3.34056C1 3.06047 1.20907 2.85294 1.77778 2.56037H2.55556H5.66667V1.78019C5.66667 1.20753 5.87573 1 6.44444 1H9.55556C10.1233 1 10.3333 1.20753 10.3333 1.78019V2.56037H13.4444ZM9.23533 1.8235H6.76475V2.64703H9.23533V1.8235ZM12.5295 15C13.134 15 13.353 14.7839 13.353 14.1765V4.29415V3.47062H12.5295H3.47065H2.64712V4.29415V14.1765C2.64712 14.7839 2.86513 15 3.47065 15H12.5295ZM5.11763 12.5295H5.94116V6.76475H5.11763V12.5295ZM10.059 12.5295H10.8825V6.76475H10.059V12.5295ZM7.58825 12.5293H8.41178V5.94102H7.58825V12.5293Z"/></symbol><symbol id="icon-shortlist-remove-16" viewBox="0 0 16 16"><path fill-rule="evenodd" d="M7 1C8.10457 1 9 1.89826 9 2.99791V4H12V10H7V14H2V4H5V2.99791C5 1.8945 5.88773 1 7 1ZM8 2.99791V4.00209H6V2.99791C6 2.44375 6.44304 2 7 2C7.55093 2 8 2.44919 8 2.99791ZM14 11H8V13H14V11Z"/></symbol><symbol id="icon-shortlist-plain-outline-20" viewBox="0 0 20 20"><path fill-rule="evenodd" d="M10 1C7.79086 1 6 2.79086 6 5H2V19H18V5H14C14 2.79086 12.2091 1 10 1ZM13 5C13 3.34315 11.6569 2 10 2C8.34315 2 7 3.34315 7 5H13ZM3 6V18H17V6H3Z"/></symbol><symbol id="icon-shortlist-plain-24" viewBox="0 0 24 24"><path fill-rule="evenodd" d="M12.5 1C14.9853 1 17 2.34669 17 3.99531V6.07692H20.9231V12.8462V16.2308V23H15.8462H12.4615H4V6.07692H8V3.99531C8 2.34104 9.99739 1 12.5 1ZM15 4.49531V6H10V4.49531C10 3.66494 11.3861 3.02979 12.5 3.02979C13.6019 3.02979 15 3.67308 15 4.49531Z"/></symbol><symbol id="icon-shortlist-plain-20" viewBox="0 0 20 20"><path fill-rule="evenodd" d="M6 5C6 2.79086 7.79086 1 10 1C12.2091 1 14 2.79086 14 5H18V19H2V5H6ZM13 5C13 3.34315 11.6569 2 10 2C8.34315 2 7 3.34315 7 5H13Z"/></symbol><symbol id="icon-shortlist-plain-16" viewBox="0 0 16 16"><path fill-rule="evenodd" d="M8 1C9.10457 1 10 1.89826 10 2.99791V4H13V14H3V4H6V2.99791C6 1.8945 6.88773 1 8 1ZM9 2.99791V4.00209H7V2.99791C7 2.44375 7.44304 2 8 2C8.55093 2 9 2.44919 9 2.99791Z"/></symbol><symbol id="icon-shortlist-16" viewBox="0 0 16 16"><path fill-rule="evenodd" d="M7 1C8.10457 1 9 1.89826 9 2.99791V4H12V8H9V10H7V14H2V4H5V2.99791C5 1.8945 5.88773 1 7 1ZM8 2.99791V4.00209H6V2.99791C6 2.44375 6.44304 2 7 2C7.55093 2 8 2.44919 8 2.99791ZM10 9H12V11H14V13H12V15H10V13H8V11H10V9Z"/></symbol><symbol id="icon-share-16" viewBox="0 0 16 16"><path fill-rule="evenodd" d="M9.4 12.2712V9.26C5.508 9.26 2.946 10.4288 1 13C1.784 9.32875 3.954 5.67125 9.4 4.92875V2L15 7.12875L9.4 12.2712Z"/></symbol><symbol id="icon-rtc-16" viewBox="0 0 16 16"><path d="M8 16C9.09672 16 10.1266 15.7912 11.0898 15.3737C12.0529 14.9562 12.9019 14.3799 13.6367 13.6451C14.3772 12.9102 14.9562 12.0612 15.3737 11.0982C15.7912 10.1294 16 9.09672 16 8C16 6.90884 15.7885 5.8817 15.3654 4.91858C14.9478 3.9499 14.3688 3.09812 13.6284 2.36326C12.8935 1.62282 12.0446 1.04384 11.0814 0.626304C10.1183 0.208768 9.0884 0 7.99165 0C6.90049 0 5.87334 0.208768 4.91023 0.626304C3.94711 1.04384 3.09534 1.62282 2.3549 2.36326C1.62004 3.09812 1.04384 3.9499 0.626305 4.91858C0.208768 5.8817 0 6.90884 0 8C0 9.09672 0.208768 10.1294 0.626305 11.0982C1.04941 12.0612 1.62839 12.9102 2.36326 13.6451C3.09812 14.3799 3.94711 14.9562 4.91023 15.3737C5.87334 15.7912 6.90327 16 8 16ZM4.65136 11.2568C4.24495 11.2568 3.92762 11.1454 3.69938 10.9227C3.47669 10.7001 3.36534 10.3883 3.36534 9.98744V6.03758C3.36534 5.63118 3.48226 5.31942 3.71607 5.1023C3.9499 4.87961 4.26166 4.76826 4.65136 4.76826H8.96872C9.37512 4.76826 9.68408 4.87961 9.8956 5.1023C10.1072 5.31942 10.213 5.63118 10.213 6.03758V9.98744C10.213 10.3883 10.1016 10.7001 9.87888 10.9227C9.65624 11.1454 9.34168 11.2568 8.93528 11.2568H4.65136ZM10.6639 9.11896V6.8977L12.2254 5.57829C12.2922 5.52262 12.3646 5.47808 12.4426 5.44468C12.5206 5.4057 12.5957 5.38622 12.6681 5.38622C12.8184 5.38622 12.9381 5.43633 13.0271 5.53654C13.1218 5.63674 13.1691 5.76757 13.1691 5.92902V10.0877C13.1691 10.2547 13.1218 10.3883 13.0271 10.4885C12.9381 10.5887 12.8184 10.6388 12.6681 10.6388C12.5957 10.6388 12.5206 10.6222 12.4426 10.5887C12.3702 10.5498 12.2978 10.4997 12.2254 10.4384L10.6639 9.11896Z"/></symbol><symbol id="icon-rate-16" viewBox="0 0 16 16"><path fill-rule="evenodd" d="M11.8033 5.40658C11.5861 5.69022 11.4384 5.88301 11.464 5.94836C11.4993 6.04009 11.8992 6.09938 12.4184 6.17634C13.4663 6.33169 15 6.55905 15 7.27057C15 8.32988 13.3888 15 12.2765 15C9.24263 15 5.25 13.9531 5.25 12.9646V7.64311C5.25 6.91495 7.22543 5.66507 8.4289 4.90361C8.58414 4.80539 8.72653 4.7153 8.85019 4.63549C9.87286 3.97529 10.7378 2.89895 11.3892 2.08839C11.9871 1.34438 12.4051 0.824282 12.5999 1.05544C13.9277 2.63279 12.5038 4.49199 11.8033 5.40658ZM2 8.45121C2 6.33336 3.90287 6.02225 4.4375 6.02225C4.64033 6.02225 4.57172 6.08861 4.40867 6.24633C4.1426 6.50371 3.625 7.00438 3.625 7.857V12.8137C3.625 13.6266 4.14119 14.1068 4.40759 14.3546C4.57142 14.5069 4.64077 14.5715 4.4375 14.5715C3.90287 14.5715 2 14.3381 2 12.2218V8.45121Z"/></symbol><symbol id="icon-more-vertical" viewBox="0 0 4 18"><path d="M2 4C3.10457 4 4 3.10457 4 2 4 .89543 3.10457 0 2 0 .89543 0 0 .89543 0 2 0 3.10457.89543 4 2 4ZM2 11C3.10457 11 4 10.1046 4 9 4 7.89543 3.10457 7 2 7 .89543 7 0 7.89543 0 9 0 10.1046.89543 11 2 11ZM2 18C3.10457 18 4 17.1046 4 16 4 14.8954 3.10457 14 2 14 .89543 14 0 14.8954 0 16 0 17.1046.89543 18 2 18Z"/></symbol><symbol id="icon-more-vertical-16" viewBox="0 0 16 16"><path d="M6 3C6 4.10457 6.89543 5 8 5 9.10457 5 10 4.10457 10 3 10 1.89543 9.10457 1 8 1 6.89543 1 6 1.89543 6 3ZM6 13C6 14.1046 6.89543 15 8 15 9.10457 15 10 14.1046 10 13 10 11.8954 9.10457 11 8 11 6.89543 11 6 11.8954 6 13ZM6 8C6 9.10457 6.89543 10 8 10 9.10457 10 10 9.10457 10 8 10 6.89543 9.10457 6 8 6 6.89543 6 6 6.89543 6 8Z"/></symbol><symbol id="icon-have-remove-16" viewBox="0 0 16 16"><path fill-rule="evenodd" d="M16 4L11.4545 9H8V12.8L6 15L0 8L3 5L6 8L13 1L16 4ZM15 12V10H9V12H15Z"/></symbol><symbol id="icon-have-add-16" viewBox="0 0 16 16"><path fill-rule="evenodd" d="M16 4L13.2727 7H10V9H8V12.8L6 15L0 8L3 5L6 8L13 1L16 4ZM15 10H13V8H11V10H9V12H11V14H13V12H15V10Z"/></symbol><symbol id="icon-have-16" viewBox="0 0 16 16"><path d="M0 8L6 15L16 4L13 1L6 8L3 5L0 8Z"/></symbol><symbol id="icon-deal-16" viewBox="0 0 16 16"><path fill-rule="evenodd" d="M8.22063 1L1 8.85556L7.80344 14.51L8.44527 13.8878L10.1862 15L15 7.54111V1H8.22063ZM8.94269 2.55556H13.3954V6.90333L7.73925 12.3867L3.30258 8.7L8.94269 2.55556ZM10.9885 4.11111C10.5454 4.11111 10.1862 4.45933 10.1862 4.88889C10.1862 5.31844 10.5454 5.66667 10.9885 5.66667C11.4316 5.66667 11.7908 5.31844 11.7908 4.88889C11.7908 4.45933 11.4316 4.11111 10.9885 4.11111Z"/></symbol><symbol id="icon-compare-16" viewBox="0 0 16 16"><path fill-rule="evenodd" d="M7.85103 0V2.90727H6L8.51483 6.34L11.0316 2.90727H9.17862V0H7.85103ZM9.17764 15.34V12.4327H11.03L8.51405 9L6 12.4327H7.85046V15.34H9.17764ZM13.8103 7H3V8.27273H13.8103V7Z"/></symbol><symbol id="icon-collection-rows-16" viewBox="0 0 16 16"><path fill-rule="evenodd" d="M2 3H14V6H2V3ZM2 11H14V14H2V11ZM14 7H2V10H14V7Z"/></symbol><symbol id="icon-collection-16" viewBox="0 0 16 16"><path fill-rule="evenodd" d="M1 3H14V6H1V3ZM16 10H14V8H12V10H10V12H12V14H14V12H16V10ZM9 11V13H10V14H1V11H9ZM1 7H11V9H9V10H1V7Z"/></symbol><symbol id="icon-clipboard-16" viewBox="0 0 16 16"><path fill-rule="evenodd" d="M5.75 1C5.55109 1 5.36032 1.07902 5.21967 1.21967C5.07902 1.36032 5 1.55109 5 1.75V4.75C5 5.164 5.336 5.5 5.75 5.5H10.25C10.4489 5.5 10.6397 5.42098 10.7803 5.28033C10.921 5.13968 11 4.94891 11 4.75V1.75C11 1.55109 10.921 1.36032 10.7803 1.21967C10.6397 1.07902 10.4489 1 10.25 1H5.75ZM6.5 4V2.5H9.5V4H6.5ZM3.626 3.533C3.79813 3.43328 3.92359 3.26926 3.97478 3.07704C4.02598 2.88482 3.99872 2.68013 3.899 2.508C3.79928 2.33587 3.63526 2.21041 3.44304 2.15922C3.25082 2.10802 3.04613 2.13528 2.874 2.235C2.60823 2.38867 2.38757 2.60956 2.23416 2.87548C2.08075 3.1414 1.99999 3.443 2 3.75V13.25C2 14.216 2.784 15 3.75 15H12.25C12.7141 15 13.1592 14.8156 13.4874 14.4874C13.8156 14.1592 14 13.7141 14 13.25V3.75C14 3.443 13.9193 3.1414 13.7658 2.87548C13.6124 2.60956 13.3918 2.38867 13.126 2.235C12.9539 2.13528 12.7492 2.10802 12.557 2.15922C12.3647 2.21041 12.2007 2.33587 12.101 2.508C12.0013 2.68013 11.974 2.88482 12.0252 3.07704C12.0764 3.26926 12.2019 3.43328 12.374 3.533C12.4123 3.55486 12.4441 3.58644 12.4662 3.62455C12.4883 3.66265 12.5 3.70593 12.5 3.75V13.25C12.5 13.3163 12.4737 13.3799 12.4268 13.4268C12.3799 13.4737 12.3163 13.5 12.25 13.5H3.75C3.6837 13.5 3.62011 13.4737 3.57322 13.4268C3.52634 13.3799 3.5 13.3163 3.5 13.25V3.75C3.50001 3.70593 3.51168 3.66265 3.5338 3.62455C3.55593 3.58644 3.58774 3.55486 3.626 3.533Z"/></symbol><symbol id="icon-bid-16" viewBox="0 0 16 16"><path fill-rule="evenodd" d="M8 13C13 13 15 11 15 7.5C15 4 13 2 8 2C3 2 1 4 1 7.5C1 9.43366 1.61046 10.9095 3 11.8431V15L6.45384 12.9277C6.93364 12.9757 7.44857 13 8 13ZM6.05005 8C6.01728 7.83906 6 7.67193 6 7.5C6 7.32807 6.01728 7.16094 6.05005 7H8L9 6H6.50329C6.86838 5.51831 7.40164 5.17581 8 5.05146V5H10.9495C10.3182 4.38141 9.45365 4 8.5 4C6.75123 4 5.30201 5.28255 5.04166 6.95834L5 7H5.03544C5.01209 7.1633 5 7.33024 5 7.5C5 7.94592 5.08339 8.37236 5.23543 8.76457L5.33682 9C5.89855 10.1825 7.1038 11 8.5 11C9.45365 11 10.3182 10.6186 10.9495 10H8V9.94854C7.40164 9.82419 6.86838 9.48169 6.50329 9H8L9 8H6.05005Z"/></symbol><symbol id="icon-ask-16" viewBox="0 0 16 16"><path fill-rule="evenodd" d="M15 7.5C15 11 13 13 8 13C7.44857 13 6.93364 12.9757 6.45384 12.9277L3 15V11.8431C1.61046 10.9095 1 9.43366 1 7.5C1 4 3 2 8 2C13 2 15 4 15 7.5ZM7 4H10V6H7V4ZM10 7H7V9H8L7 11H8L10 9V7Z"/><path fill-rule="evenodd" d="M15 7.5C15 11 13 13 8 13C7.44857 13 6.93364 12.9757 6.45384 12.9277L3 15V11.8431C1.61046 10.9095 1 9.43366 1 7.5C1 4 3 2 8 2C13 2 15 4 15 7.5ZM7 4H10V6H7V4ZM10 7H7V9H8L7 11H8L10 9V7Z"/></symbol><symbol id="icon-alert-16" viewBox="0 0 16 16"><path fill-rule="evenodd" d="M13 8C13 4 11 1 8 1C5 1 3 4 3 8C3 9 1 12 1 12H15C15 12 13 9 13 8ZM10 13C10 13 10 15 8 15C6 15 6 13 6 13H10Z"/></symbol><symbol id="icon-add-circle-24" viewBox="0 0 24 24"><path d="M12 0C5.373 0 0 5.373 0 12C0 18.627 5.373 24 12 24C18.627 24 24 18.627 24 12C24 5.373 18.627 0 12 0ZM18 13H13V18H11V13H6V11H11V6H13V11H18V13Z"/></symbol></svg>