<svg xmlns="http://www.w3.org/2000/svg" xmlns:xlink="http://www.w3.org/1999/xlink"><defs/><symbol id="icon-santa-16" viewBox="0 0 16 16"><path d="M13.6667 5.66667C14.9553 5.66667 16 4.622 16 3.33333 16 2.04467 14.9553 1 13.6667 1 12.378 1 11.3333 2.04467 11.3333 3.33333 11.3333 4.622 12.378 5.66667 13.6667 5.66667ZM10.895 11.3333H1.10498C.494716 11.3333 0 11.828 0 12.4383V13.895C0 14.5053.494716 15 1.10498 15H10.895C11.5053 15 12 14.5053 12 13.895V12.4383C12 11.828 11.5053 11.3333 10.895 11.3333ZM11.3846 5.75977C10.8476 6.57146 10.5613 7.52318 10.5612 8.49642V10.3332H1.50114C1.99447 6.3864 5.36117 3.33318 9.43783 3.33318H10.3345C10.3345 3.78793 10.4277 4.23786 10.6083 4.65521 10.7889 5.07256 11.0531 5.44848 11.3846 5.75977Z"/></symbol><symbol id="icon-protection-24" viewBox="0 0 24 24"><path d="M12.3735 1.3948L12.371 1.39203L11.6939 2.08364C11.0699 2.72093 10.3279 3.23897 9.49719 3.5596C7.63567 4.27903 5.66287 4.68181 3.66091 4.74541L2.98651 4.76661L3.43964 8.16239C4.08355 12.9811 6.43662 17.4289 10.0788 20.8141C10.6747 21.3679 11.3051 21.893 11.9682 22.3868L12.2663 22.608L12.6002 22.3404C16.9684 18.8452 19.7879 13.943 20.502 8.59696L21.0134 4.76661C19.2566 4.70176 17.5231 4.37778 15.8713 3.80883C15.8406 3.79832 15.8101 3.78762 15.7795 3.77691L15.7673 3.77263C15.5644 3.70134 15.3628 3.62635 15.1626 3.54768C14.2828 3.20187 13.5077 2.63216 12.8691 1.93392L12.3749 1.39335L12.3735 1.3948Z" stroke-linecap="round" stroke-linejoin="round"/><path fill-rule="evenodd" d="M11.6181 15.9751L17.407 8.58045L15.6236 7.18433L11.5179 12.4289L9.20287 9.79313L7.50116 11.2877L11.6181 15.9751Z" stroke-linecap="round" stroke-linejoin="round"/></symbol><symbol id="icon-home-back-24" viewBox="0 0 24 24"><path d="M20.5 11.6903V9.36489C20.5 8.91782 20.3006 8.49404 19.9561 8.20908L12.7967 2.28683C12.3344 1.90439 11.6656 1.90439 11.2033 2.28683L4.04391 8.20908C3.69942 8.49404 3.5 8.91782 3.5 9.36489V20C3.5 20.5523 3.94772 21 4.5 21H12.9412" stroke-linecap="round" stroke-linejoin="round"/><path d="M15.3125 11.9398L12.5 14.7523L15.3125 17.5648" stroke-linecap="round" stroke-linejoin="round"/><path d="M12.7812 14.7523H19.2812C20.2758 14.7523 21.2296 15.1473 21.9329 15.8506C22.6362 16.5539 23.0312 17.5077 23.0312 18.5023C23.0312 19.4968 22.6362 20.4506 21.9329 21.1539C21.2296 21.8572 20.2758 22.2523 19.2812 22.2523H17.2812" stroke-linecap="round" stroke-linejoin="round"/></symbol><symbol id="icon-home-24" viewBox="0 0 24 24"><path d="M19.9561 8.20908L12.7967 2.28683C12.3344 1.90439 11.6656 1.90439 11.2033 2.28683L4.04391 8.20908C3.69942 8.49405 3.5 8.91782 3.5 9.36489V20C3.5 20.5523 3.94772 21 4.5 21L8 21C8.55228 21 9 20.5523 9 20V13.1583C9 12.606 9.44772 12.1583 10 12.1583H14C14.5523 12.1583 15 12.606 15 13.1583V20C15 20.5523 15.4477 21 16 21L19.5 21C20.0523 21 20.5 20.5523 20.5 20V9.36489C20.5 8.91782 20.3006 8.49404 19.9561 8.20908Z" stroke-linecap="round" stroke-linejoin="round"/></symbol><symbol id="icon-give-24" viewBox="0 0 24 24"><path d="M10.3897 22.1809C18.6469 14.4095 22.5325 9.55238 21.5612 6.6381C20.5897 3.72382 17.6754 4.20953 11.8469 8.09524C9.4183 1.78096 6.98973 0.323808 4.07545 3.2381C1.16116 6.15238 3.58974 12.4666 10.3897 22.1809Z" stroke-linecap="round" stroke-linejoin="round"/></symbol><symbol id="icon-gifts-24" viewBox="0 0 24 24"><path d="M19.7335 22.9763C19.5053 22.9763 19.2864 22.8857 19.125 22.7244L15.252 18.8514C15.0908 18.6901 15.0002 18.4715 15 18.2434V15.5874C14.9999 15.4743 15.022 15.3623 15.0653 15.2578 15.1085 15.1533 15.1719 15.0583 15.2519 14.9783 15.3319 14.8984 15.4268 14.8349 15.5314 14.7917 15.6359 14.7485 15.7479 14.7263 15.861 14.7264H18.516C18.7443 14.7266 18.9633 14.8172 19.125 14.9784L23 18.8514C23.1613 19.0129 23.2519 19.2317 23.2519 19.4599 23.2519 19.6881 23.1613 19.907 23 20.0684L20.342 22.7244C20.1806 22.8857 19.9617 22.9763 19.7335 22.9763ZM15.168 15.0774 13.317 13.2264M13 19.9764H4C3.80109 19.9764 3.61032 19.8974 3.46967 19.7568 3.32902 19.6161 3.25 19.4254 3.25 19.2264V10.4764M16.75 10.4764V12.7264M17.5 6.72644H2.5C2.08579 6.72644 1.75 7.06223 1.75 7.47644V9.72644C1.75 10.1407 2.08579 10.4764 2.5 10.4764H17.5C17.9142 10.4764 18.25 10.1407 18.25 9.72644V7.47644C18.25 7.06223 17.9142 6.72644 17.5 6.72644ZM10 19.9764V6.72644M9.97601 6.72639C8.43366 6.31213 6.99083 5.59072 5.73401 4.60539 4.41601 3.28739 4.61001 2.54039 5.20001 1.95439 5.79001 1.36839 6.53701 1.16639 7.85501 2.48439 8.84094 3.74083 9.56242 5.18378 9.97601 6.72639ZM10.023 6.72639C11.5657 6.31223 13.0089 5.59081 14.266 4.60539 15.584 3.28739 15.39 2.54039 14.8 1.95439 14.21 1.36839 13.463 1.16639 12.144 2.48439 11.1585 3.74109 10.4371 5.18396 10.023 6.72639Z" stroke-linecap="round" stroke-linejoin="round"/></symbol><symbol id="icon-deals-24" viewBox="0 0 24 24"><path d="M17.4706 21.187C18.7796 20.3144 19.8499 19.1286 20.5842 17.7372 21.3185 16.3458 21.6935 14.7931 21.6751 13.22 21.6827 11.3357 21.1422 9.48997 20.1194 7.9075L17.6408 10.8207C16.914 8.4335 16.9091 5.88472 17.6267 3.49476 17.6574 3.39448 17.6621 3.28805 17.6403 3.18547 17.6186 3.08289 17.5711 2.98751 17.5024 2.9083 17.4337 2.82909 17.3459 2.76865 17.2475 2.73264 17.149 2.69663 17.0429 2.68624 16.9393 2.70244 15.1927 2.98925 13.5401 3.69004 12.1197 4.74621 10.6993 5.80238 9.55238 7.18325 8.77483 8.77336L6.80352 6.71529C5.19373 8.49774 4.30951 10.8182 4.32492 13.22 4.30659 14.7931 4.68159 16.3458 5.41586 17.7372 6.15014 19.1286 7.22041 20.3144 8.52945 21.187M10.3665 17.928 15.6335 12.661" stroke-linecap="round" stroke-linejoin="round"/><path d="M10.5214 14.0553C11.2059 14.0553 11.7607 13.5004 11.7607 12.816 11.7607 12.1315 11.2059 11.5767 10.5214 11.5767 9.83696 11.5767 9.2821 12.1315 9.2821 12.816 9.2821 13.5004 9.83696 14.0553 10.5214 14.0553ZM15.4786 19.0124C16.1631 19.0124 16.7179 18.4576 16.7179 17.7731 16.7179 17.0887 16.1631 16.5338 15.4786 16.5338 14.7942 16.5338 14.2393 17.0887 14.2393 17.7731 14.2393 18.4576 14.7942 19.0124 15.4786 19.0124Z" stroke-linecap="round" stroke-linejoin="round"/></symbol><symbol id="icon-coupons-24" viewBox="0 0 24 24"><path d="M5.97876 17.7926C7.15824 17.7926 8.11439 18.7487 8.11439 19.9282 8.11439 21.1077 7.15824 22.0638 5.97876 22.0638 4.79929 22.0638 3.84314 21.1077 3.84314 19.9282 3.84314 18.7487 4.79929 17.7926 5.97876 17.7926ZM14.5213 17.7926C15.7008 17.7926 16.6569 18.7487 16.6569 19.9282 16.6569 21.1077 15.7008 22.0638 14.5213 22.0638 13.3418 22.0638 12.3857 21.1077 12.3857 19.9282 12.3857 18.7487 13.3418 17.7926 14.5213 17.7926ZM9.5 15.7528 12.5947 20.8496M14.9484 9.25006 7.90594 20.8496M10 7V8.125M10 9.875V11M10 4.125V5.25M15 13H20C20.3978 13 20.7794 12.842 21.0607 12.5607 21.342 12.2794 21.5 11.8978 21.5 11.5V9.94999C20.3589 9.71836 19.5 8.70948 19.5 7.5 19.5 6.29052 20.3589 5.28164 21.5 5.05001V3.5C21.5 3.10218 21.342 2.72064 21.0607 2.43934 20.7794 2.15804 20.3978 2 20 2H3.5C3.10218 2 2.72064 2.15804 2.43934 2.43934 2.15804 2.72064 2 3.10218 2 3.5V5.05001C3.14112 5.28164 4 6.29052 4 7.5 4 8.70948 3.14112 9.71836 2 9.94999V11.5C2 11.8978 2.15804 12.2794 2.43934 12.5607 2.72064 12.842 3.10218 13 3.5 13H12.5" stroke-linecap="round" stroke-linejoin="round"/></symbol><symbol id="icon-cat-6989-24" viewBox="0 0 24 24"><path d="M17 2H7C6.44772 2 6 2.44772 6 3V21C6 21.5523 6.44772 22 7 22H17C17.5523 22 18 21.5523 18 21V3C18 2.44772 17.5523 2 17 2ZM12.5 4H14M10 4H10.5" stroke-linecap="round" stroke-linejoin="round"/><path d="M12.5 19.5C12.5 19.7761 12.2761 20 12 20 11.7239 20 11.5 19.7761 11.5 19.5 11.5 19.2239 11.7239 19 12 19 12.2761 19 12.5 19.2239 12.5 19.5ZM15.25 6.5 8.5 13.25M12.2605 6.5 8.5 10.2316" stroke-linecap="round" stroke-linejoin="round"/></symbol><symbol id="icon-cat-6989-16" viewBox="0 0 16 16"><path fill-rule="evenodd" d="M3 2C3 0.895431 3.89543 0 5 0H11C12.1046 0 13 0.895431 13 2V14C13 15.1046 12.1046 16 11 16H5C3.89543 16 3 15.1046 3 14V2ZM4 2C4 1.44772 4.44772 1 5 1H11C11.5523 1 12 1.44772 12 2V14C12 14.5523 11.5523 15 11 15H5C4.44772 15 4 14.5523 4 14V2ZM11 2H5V12H11V2ZM6 3H10V11H6V3ZM7.5 13C7.22386 13 7 13.2239 7 13.5C7 13.7761 7.22386 14 7.5 14H8.5C8.77614 14 9 13.7761 9 13.5C9 13.2239 8.77614 13 8.5 13H7.5Z"/></symbol><symbol id="icon-cat-6988-16" viewBox="0 0 16 16"><path fill-rule="evenodd" d="M15.0044 16C15.5552 16 16 15.5519 16 14.9991V1.00087C16 0.444631 15.5543 0 15.0044 0H5.99558C5.44484 0 5 0.448106 5 1.00087V4.13333H6V1H15V15H8L6.99779 16H15.0044ZM10 10C10 12.7614 7.76142 15 5 15C2.23858 15 0 12.7614 0 10C0 7.23858 2.23858 5 5 5C7.76142 5 10 7.23858 10 10ZM9 10C9 12.2091 7.20914 14 5 14C2.79086 14 1 12.2091 1 10C1 7.79086 2.79086 6 5 6C7.20914 6 9 7.79086 9 10ZM5 12C6.10457 12 7 11.1046 7 10C7 8.89543 6.10457 8 5 8C3.89543 8 3 8.89543 3 10C3 11.1046 3.89543 12 5 12ZM6 10C6 10.5523 5.55228 11 5 11C4.44772 11 4 10.5523 4 10C4 9.44771 4.44772 9 5 9C5.55228 9 6 9.44771 6 10ZM13 4H8V5H13V4ZM9 2H12V3H9V2ZM14 12H13V14H14V12Z"/></symbol><symbol id="icon-cat-583-24" viewBox="0 0 24 24"><path d="M6 4 8 18V21C8 21.5523 8.44772 22 9 22H15C15.5523 22 16 21.5523 16 21V18L18 4V2H6V4ZM8 18H15.75M6.5 4.5H11.5M14 4.5H15" stroke-linecap="round" stroke-linejoin="round"/></symbol><symbol id="icon-cat-583-16" viewBox="0 0 16 16"><path fill-rule="evenodd" d="M11 2C11 1.44772 10.5523 1 10 1H6C5.44772 1 5 1.44772 5 2V5H2C1.44772 5 1 5.44772 1 6V10C1 10.5523 1.44772 11 2 11H5V14C5 14.5523 5.44772 15 6 15H10C10.5523 15 11 14.5523 11 14V11H14C14.5523 11 15 10.5523 15 10V6C15 5.44772 14.5523 5 14 5H11V2ZM10 2H6V5C6 5.55228 5.55228 6 5 6H2V10H5C5.55228 10 6 10.4477 6 11V14H10V11C10 10.4477 10.4477 10 11 10H14V6H11C10.4477 6 10 5.55228 10 5V2ZM7.77639 8.44721C6.84874 7.98339 6.5 7.69277 6.5 7C6.5 5.74172 7.22515 5.5 9 5.5V6.5C7.77485 6.5 7.5 6.59162 7.5 7C7.5 7.14056 7.65126 7.26661 8.22361 7.55279C9.15126 8.01661 9.5 8.30723 9.5 9C9.5 9.58308 9.31395 9.89315 8.85355 10.3536C8.56395 10.6432 8.5 10.7497 8.5 11H7.5C7.5 10.4169 7.68605 10.1068 8.14645 9.64645C8.43605 9.35685 8.5 9.25026 8.5 9C8.5 8.85944 8.34874 8.73339 7.77639 8.44721Z"/></symbol><symbol id="icon-cat-3204-24" viewBox="0 0 24 24"><path d="M18 12C18 15.3137 15.3137 18 12 18C8.68629 18 6 15.3137 6 12C6 8.68629 8.68629 6 12 6C15.3137 6 18 8.68629 18 12Z" stroke-linecap="round" stroke-linejoin="round"/><path d="M16 12C16 14.2091 14.2091 16 12 16 9.79086 16 8 14.2091 8 12 8 9.79086 9.79086 8 12 8 14.2091 8 16 9.79086 16 12ZM6.49663 3.64925 7.84375 3.8125M6.49663 3.64925C7.92433 2.70646 9.60802 2.11998 11.421 2.01648M6.49663 3.64925C5.04056 4.61077 3.85076 5.94291 3.0616 7.51129M11.421 2.01648C11.6126 2.00554 11.8057 2 12 2 13.6147 2 15.1401 2.38271 16.4903 3.06238M11.421 2.01648 12.5 2.83594M16.4903 3.06238 17.0156 4.3125M16.4903 3.06238C18.0599 3.85252 19.3929 5.044 20.3543 6.50207M20.3543 6.50207 20.1875 7.84766M20.3543 6.50207C21.2953 7.92896 21.8804 9.61115 21.9836 11.4224M21.9836 11.4224C21.9945 11.6135 22 11.8061 22 12 22 13.6141 21.6176 15.1389 20.9384 16.4887M21.9836 11.4224 21.168 12.5M20.9384 16.4887 19.6953 17.0117M20.9384 16.4887C20.1484 18.0587 18.957 19.392 17.4989 20.3537M17.4989 20.3537 16.1562 20.1914M17.4989 20.3537C16.0739 21.2936 14.3942 21.8787 12.5856 21.9831M12.5856 21.9831C12.3919 21.9943 12.1966 22 12 22 10.3871 22 8.86346 21.6182 7.51442 20.94M12.5856 21.9831 11.5039 21.1641M7.51442 20.94 6.98828 19.6875M7.51442 20.94C5.94598 20.1515 4.61361 18.9624 3.65162 17.507M3.65162 17.507 3.81641 16.1484M3.65162 17.507C2.70796 16.0793 2.12071 14.3954 2.01665 12.582M2.01665 12.582C2.0056 12.3894 2 12.1953 2 12 2 10.3859 2.38242 8.8611 3.0616 7.51129M2.01665 12.582 2.83594 11.5039M3.0616 7.51129 4.3125 6.98828" stroke-linecap="round" stroke-linejoin="round"/></symbol><symbol id="icon-cat-3204-16" viewBox="0 0 16 16"><path fill-rule="evenodd" d="M13.9932 5H2.00685C1.44995 5 1 5.44359 1 5.99078V10.0092C1 10.549 1.45078 11 2.00685 11H13.9932C14.5501 11 15 10.5564 15 10.0092V5.99078C15 5.45098 14.5492 5 13.9932 5ZM13.9932 10C13.9932 10 2 9.99683 2 10.0092C2 10.0092 1.99908 6 2.00685 6C2.00685 6 14 6.00317 14 5.99078C14 5.99078 14.0009 10 13.9932 10Z"/><path fill-rule="evenodd" d="M12.0046 1H3.9954C3.45566 1 2.91155 1.44227 2.80243 1.98784L2.2 5H3.2198L3.0198 6H12.9802L12.7802 5H13.8L13.1976 1.98784C13.0887 1.44372 12.5543 1 12.0046 1ZM13.8392 5.19612 13.1802 6H14L13.8392 5.19612ZM2.8198 6 2.16078 5.19612 2 6H2.8198ZM12.7802 5H3.2198L3.78301 2.18396C3.79813 2.10837 3.92976 2 3.9954 2H12.0046C12.0749 2 12.2011 2.10459 12.217 2.18396L12.7802 5ZM3 10 2 11V10H3ZM4 10H3V11H2V12.9906C2 13.5566 2.44725 14 2.99896 14H4.00104C4.55734 14 5 13.5481 5 12.9906V11 10H4ZM4 11H3V12.9906C3 12.9973 2.99923 12.9994 2.99881 13 2.9986 13 2.99853 13.0001 2.99854 13.0002 2.99856 13.0002 2.99866 13.0002 2.99881 13 2.99885 13 2.9989 13 2.99896 13H4.00083C4.00087 13 4.00092 13 4.00097 13 4.00099 13 4.00102 13 4.00104 13H4.00083C4.00032 13 4 12.9993 4 12.9906V11ZM4 11H5L4 10V11ZM12 10 11 11V10H12ZM13 10H12V11H11V12.9906C11 13.5566 11.4472 14 11.999 14H13.001C13.5573 14 14 13.5481 14 12.9906V11 10H13ZM13 11H12V12.9906C12 12.9973 11.9992 12.9994 11.9988 13 11.9986 13 11.9985 13.0001 11.9985 13.0002 11.9986 13.0002 11.9987 13.0002 11.9988 13 11.9988 13 11.9989 13 11.999 13H13.0008C13.0009 13 13.0009 13 13.001 13 13.001 13 13.001 13 13.001 13H13.0008C13.0003 13 13 12.9993 13 12.9906V11ZM13 11H14L13 10V11ZM4 7C3.44772 7 3 7.44772 3 8 3 8.55228 3.44772 9 4 9L4 8H5V9C5.55228 9 6 8.55228 6 8 6 7.44772 5.55228 7 5 7H4ZM11 7C10.4477 7 10 7.44772 10 8 10 8.55228 10.4477 9 11 9L11 8H12V9C12.5523 9 13 8.55228 13 8 13 7.44772 12.5523 7 12 7H11Z"/></symbol><symbol id="icon-cat-3058-24" viewBox="0 0 24 24"><path d="M21 12C21 16.9706 16.9706 21 12 21C7.02944 21 3 16.9706 3 12C3 7.02944 7.02944 3 12 3C16.9706 3 21 7.02944 21 12Z" stroke-linecap="round" stroke-linejoin="round"/><path d="M12.015 20.9723C11.1004 16.0277 13.8957 12.3469 10.5431 9.51942C8.07443 7.43744 5.42553 8.4672 3.05798 12.1731" stroke-linecap="round" stroke-linejoin="round"/><path d="M18.4781 5.75014C17.2699 4.54196 13.4412 6.41178 9.92649 9.92649C6.41178 13.4412 4.54196 17.2699 5.75014 18.4781" stroke-linecap="round" stroke-linejoin="round"/><path d="M18.3028 18.3816C20.3896 16.2947 19.2321 11.7537 15.7174 8.23899C12.2027 4.72427 7.66169 3.56676 5.57483 5.65363" stroke-linecap="round" stroke-linejoin="round"/></symbol><symbol id="icon-cat-3058-16" viewBox="0 0 16 16"><path fill-rule="evenodd" d="M7.45131 7C7.28272 7.33601 7.07891 7.6726 6.84501 8H2.15499C1.92109 7.6726 1.71728 7.33601 1.54869 7H7.45131ZM4.5 10C4.22289 10 3.62085 9.61967 3.00011 9H5.99989C5.37915 9.61967 4.77711 10 4.5 10ZM5 10.9032C6.57972 10.3456 9 7.4803 9 5C9 2.23858 6.98528 0 4.5 0C2.01472 0 0 2.23858 0 5C0 7.4803 2.42028 10.3456 4 10.9032V16H5V10.9032ZM7.84728 6C7.94697 5.65062 8 5.31324 8 5H1C1 5.31324 1.05303 5.65062 1.15272 6H7.84728ZM7.53133 3C7.6881 3.30896 7.80981 3.64454 7.88987 4H1.11013C1.19019 3.64454 1.3119 3.30896 1.46867 3H7.53133ZM6.81262 2C6.19234 1.37601 5.37978 1 4.5 1C3.62022 1 2.80766 1.37601 2.18738 2H6.81262ZM11 8.5C11 7.11929 12.1193 6 13.5 6C14.8807 6 16 7.11929 16 8.5C16 9.88071 14.8807 11 13.5 11C12.1193 11 11 9.88071 11 8.5ZM13.5 7C14.3284 7 15 7.67157 15 8.5C15 9.32843 14.3284 10 13.5 10C12.6716 10 12 9.32843 12 8.5C12 7.67157 12.6716 7 13.5 7Z"/></symbol><symbol id="icon-cat-2185-24" viewBox="0 0 24 24"><path fill-rule="evenodd" d="M6 2H18L20 12H4L6 2Z" stroke-linecap="round" stroke-linejoin="round"/><path d="M12 12V19.2543M16 12V16M5 20.5C5 19.9477 5.44772 19.5 6 19.5H18C18.5523 19.5 19 19.9477 19 20.5V22H5V20.5Z" stroke-linecap="round" stroke-linejoin="round"/></symbol><symbol id="icon-cat-2185-16" viewBox="0 0 16 16"><path fill-rule="evenodd" d="M12 15V0H0V15H2H6H12ZM1 14H2V9H6V14H11V4H1V14ZM13 12.5C13 12.2239 13.2239 12 13.5 12C13.7761 12 14 12.2239 14 12.5V15H13V12.5ZM15 12.5C15 12.2239 15.2239 12 15.5 12C15.7761 12 16 12.2239 16 12.5V15H15V12.5ZM1 1H11V3H1V1ZM2 5H6V8H2V5ZM5 6H3V7H5V6ZM5 10H3V14H5V10ZM7 5H10V8H7V5ZM9 6H8V7H9V6ZM7 9H10V12H7V9ZM9 10H8V11H9V10Z"/></symbol><symbol id="icon-cat-2175-24" viewBox="0 0 24 24"><path d="M12.5 15.75C12.5 18.7876 10.0376 21.25 7 21.25 3.96243 21.25 1.5 18.7876 1.5 15.75 1.5 12.7124 3.96243 10.25 7 10.25 10.0376 10.25 12.5 12.7124 12.5 15.75ZM22.5 17.75C22.5 19.683 20.933 21.25 19 21.25 17.067 21.25 15.5 19.683 15.5 17.75 15.5 15.817 17.067 14.25 19 14.25 20.933 14.25 22.5 15.817 22.5 17.75Z" stroke-linecap="round" stroke-linejoin="round"/><path d="M7 15.75L8.72147 5.4212C8.8822 4.45683 9.71658 3.75 10.6943 3.75H13.5" stroke-linecap="round" stroke-linejoin="round"/><path d="M8.5 7.25C8.5 7.25 19.0288 8.87521 19.0288 17.7441" stroke-linecap="round" stroke-linejoin="round"/><path d="M15.9683 10.75C15.9683 10.75 18.4683 10.3628 18.4683 8.25M16.7214 7.06104 19.4505 5.57244C19.9974 5.27412 20.681 5.54309 20.878 6.1341L21.0613 6.68376C21.2771 7.33129 20.7951 7.99998 20.1126 7.99998H16.9608C16.4428 7.99998 16.2666 7.30908 16.7214 7.06104Z" stroke-linecap="round" stroke-linejoin="round"/></symbol><symbol id="icon-cat-2175-16" viewBox="0 0 16 16"><path fill-rule="evenodd" d="M15.9825 6C15.7468 2.64378 13.1584 0 10 0V6H15.9825ZM1 6C1.55228 6 2 5.55228 2 5H3.33333L4 7C4 10.3137 6.68629 13 10 13C13.3137 13 16 10.3137 16 7H5L4 4H3H1C0.447715 4 0 4.44772 0 5C0 5.55228 0.447715 6 1 6ZM10 12C14 12 15 8 15 8H5C5 8 6 12 10 12ZM6.5 13C5.67157 13 5 13.6716 5 14.5C5 15.3284 5.67157 16 6.5 16C7.32843 16 8 15.3284 8 14.5C8 13.6716 7.32843 13 6.5 13ZM13.5 13C12.6716 13 12 13.6716 12 14.5C12 15.3284 12.6716 16 13.5 16C14.3284 16 15 15.3284 15 14.5C15 13.6716 14.3284 13 13.5 13ZM11 1V5H15C15 5 14.512 3.32117 13.5215 2.33069C12.531 1.34021 11 1 11 1Z"/></symbol><symbol id="icon-cat-2068-24" viewBox="0 0 24 24"><path d="M5.8777 7.5C5.93812 8.06394 5.97559 8.72578 5.97559 9.5V22H17.9756V9.5C17.9756 8.72578 18.0131 8.06394 18.0735 7.5M18.5 11.0626L22 10.0626L18.9756 4.5L14.9756 2H8.97559L4.97559 4.5L2 10.0626L5.5 11.0626" stroke-linecap="round" stroke-linejoin="round"/><path d="M8.97559 2.25C8.97559 3.90685 10.3187 5.25 11.9756 5.25C13.6324 5.25 14.9756 3.90685 14.9756 2.25" stroke-linecap="round" stroke-linejoin="round"/></symbol><symbol id="icon-cat-2068-16" viewBox="0 0 16 16"><path fill-rule="evenodd" d="M2 4C1.44772 4 1 4.44772 1 5V14C1 14.5523 1.44772 15 2 15H7H8H14C14.5523 15 15 14.5523 15 14V5C15 4.44772 14.5523 4 14 4H12V1H4V4H2ZM14 14V5H11V2H5V5H2V14H7V7.5C7 7.22386 7.22386 7 7.5 7C7.77614 7 8 7.22386 8 7.5V14H14ZM6 8V9H3V8H6ZM13 9V8H10V9H13Z"/><path fill-rule="evenodd" d="M8.45895 5.21642L9 5L8.54496 4.63597L8.45895 5.21642ZM7.93281 5.42687L7.03529 4.70885L8.10247 4.28198L5 1.8V3.08062L4 2.28062V5.92297L5 5.52297V6.6L7.93281 5.42687ZM4.62861 6.74856L4 6.32297V7L4.62861 6.74856ZM4 1.48062L4.3753 1.30024L4 1V1.48062ZM5 5.52297L7.03529 4.70885L5 3.08062V5.52297Z"/><path fill-rule="evenodd" d="M7.54105 5.21642L7 5L7.45504 4.63597L7.54105 5.21642ZM8.06719 5.42687L8.96471 4.70885L7.89753 4.28198L11 1.8V3.08062L12 2.28062V5.92297L11 5.52297V6.6L8.06719 5.42687ZM11.3714 6.74856L12 6.32297V7L11.3714 6.74856ZM12 1.48062L11.6247 1.30024L12 1V1.48062ZM11 5.52297L8.96471 4.70885L11 3.08062V5.52297Z"/></symbol></svg>