<svg xmlns="http://www.w3.org/2000/svg" xmlns:xlink="http://www.w3.org/1999/xlink"><defs/><symbol id="icon-silver-22" viewBox="0 0 22 22"><path d="M20.3458 3.49928L19.8155 7.47118C19.075 13.0148 16.1514 18.0982 11.6217 21.7225L11.2755 22L10.9663 21.7706C6.07668 18.1298 2.90299 12.8348 2.12675 7.02192L1.65689 3.50066L2.35619 3.47867C4.43213 3.41273 6.47785 2.99506 8.40816 2.24904C9.27096 1.91519 10.039 1.37938 10.6861 0.718545L11.3881 0.00137329L11.9006 0.56192C12.5628 1.28596 13.3665 1.87673 14.2788 2.23531C16.2104 2.99369 18.263 3.42235 20.3458 3.49928Z" fill="#A0B8BC"/><path d="M12.0682 8.72416C12.7922 6.49984 13.7745 4.42803 15.0152 2.50596C14.7665 2.42078 14.5206 2.33011 14.276 2.23394C13.3638 1.87535 12.56 1.28458 11.8978 0.560547L11.3854 0L10.6833 0.717172C10.0362 1.37801 9.26684 1.91519 8.40541 2.24767C6.4751 2.99369 4.42938 3.41135 2.35345 3.4773L1.65414 3.49929L2.12402 7.02055C2.79173 12.0174 5.23174 16.6295 9.00855 20.1398C9.17479 16.1005 10.1915 12.2949 12.0682 8.72416Z" fill="#A0B8BC"/><path fill-rule="evenodd" clip-rule="evenodd" d="M15.7161 7.99385L10.7551 14.331L7.22699 10.3139L8.68533 9.0331L10.6692 11.292L14.1878 6.79739L15.7161 7.99385Z" fill="#fff"/></symbol><symbol id="icon-shield-22" viewBox="0 0 22 22"><path fill-rule="evenodd" clip-rule="evenodd" d="M11.3873 0.00287677L11.3847 0L10.6826 0.717172C10.0355 1.37801 9.26615 1.91519 8.40472 2.24767C6.47442 2.99369 4.42871 3.41135 2.35278 3.4773L1.65346 3.49929L2.12333 7.02055C2.79104 12.0174 5.23106 16.6295 9.00786 20.1398C9.62571 20.714 10.2794 21.2586 10.967 21.7706L11.2761 22L11.6224 21.7225C16.1521 18.0982 19.0757 13.0148 19.8162 7.47118L20.3465 3.49928C18.5248 3.43204 16.7273 3.09608 15.0144 2.50611C14.9783 2.49376 14.9424 2.48115 14.9065 2.46857C14.6961 2.39465 14.4871 2.31689 14.2794 2.23531C13.3672 1.87673 12.5635 1.28596 11.9013 0.56192L11.3888 0.00137329L11.3873 0.00287677ZM10.7544 14.331L15.7155 7.99385L14.1871 6.79739L10.6686 11.292L8.68464 9.0331L7.2263 10.3139L10.7544 14.331Z" fill="#fff"/></symbol><symbol id="icon-gold-22" viewBox="0 0 22 23"><path d="M20.3465 3.49928L19.8162 7.47118C19.0757 13.0148 16.1521 18.0982 11.6224 21.7225L11.2761 22L10.967 21.7706C6.07736 18.1298 2.9037 12.8348 2.12745 7.02192L1.65758 3.50066L2.3569 3.47867C4.43283 3.41273 6.47854 2.99506 8.40884 2.24904C9.27164 1.91519 10.0396 1.37938 10.6867 0.718545L11.3888 0.00137329L11.9013 0.56192C12.5635 1.28596 13.3672 1.87673 14.2794 2.23531C16.2098 2.99369 18.2623 3.42235 20.3465 3.49928Z" fill="#EFA818"/><path d="M12.0675 8.72416C12.7915 6.49984 13.7739 4.42803 15.0145 2.50596C14.7658 2.42078 14.5199 2.33011 14.2753 2.23394C13.3631 1.87535 12.5594 1.28458 11.8971 0.560547L11.3847 0L10.6826 0.717172C10.0355 1.37801 9.26615 1.91519 8.40472 2.24767C6.47442 2.99369 4.42871 3.41135 2.35278 3.4773L1.65346 3.49929L2.12333 7.02055C2.79104 12.0174 5.23106 16.6295 9.00786 20.1398C9.17548 16.1005 10.1922 12.2949 12.0675 8.72416Z" fill="#EFA818"/><path fill-rule="evenodd" clip-rule="evenodd" d="M15.7167 7.99397L10.7543 14.3308L7.22632 10.3139L8.68466 9.0331L10.6687 11.2921L14.1886 6.79727L15.7167 7.99397Z" fill="#fff"/></symbol><symbol id="icon-bronze-22" viewBox="0 0 22 22"><path fill-rule="evenodd" clip-rule="evenodd" d="M11.3873 0.00287677L11.3847 0L10.6826 0.717172C10.0355 1.37801 9.26613 1.91519 8.40471 2.24767C6.4744 2.99369 4.4287 3.41135 2.35276 3.4773L1.65344 3.49929L2.12332 7.02055C2.79102 12.0174 5.23104 16.6295 9.00785 20.1398C9.6257 20.714 10.2794 21.2586 10.967 21.7706L11.2761 22L11.6223 21.7225C16.152 18.0982 19.0757 13.0148 19.8162 7.47118L20.3465 3.49928C18.5248 3.43204 16.7272 3.09608 15.0144 2.50611C14.9783 2.49376 14.9424 2.48115 14.9065 2.46857C14.6961 2.39465 14.4871 2.31689 14.2794 2.23531C13.3672 1.87673 12.5635 1.28596 11.9012 0.56192L11.3888 0.00137329L11.3873 0.00287677ZM10.7544 14.331L15.7154 7.99385L14.1871 6.79739L10.6685 11.292L8.68463 9.0331L7.22629 10.3139L10.7544 14.331Z" fill="#D35D33"/><path fill-rule="evenodd" clip-rule="evenodd" d="M15.7161 7.99385L10.7551 14.331L7.22699 10.3139L8.68533 9.0331L10.6692 11.292L14.1878 6.79739L15.7161 7.99385Z" fill="#fff"/></symbol></svg>