<svg xmlns="http://www.w3.org/2000/svg" xmlns:xlink="http://www.w3.org/1999/xlink"><defs/><symbol id="icon-pin-12" viewBox="0 0 12 12"><path d="M5.99999 1.76543C7.28911 1.76543 8.41974 2.81198 8.41974 4.00492C8.41974 5.24504 7.38288 6.99392 5.99999 9.18379C4.6171 6.99392 3.58024 5.24504 3.58024 4.00492C3.58024 2.81198 4.71087 1.76543 5.99999 1.76543ZM5.99999 0.555557C4.09565 0.555557 2.37036 2.09996 2.37036 4.00492C2.37036 5.90926 3.94441 8.18322 5.99999 11.4444C8.05557 8.18322 9.62962 5.90926 9.62962 4.00492C9.62962 2.09996 7.90494 0.555557 5.99999 0.555557ZM5.99999 5.39506C5.83887 5.39871 5.67865 5.37012 5.52873 5.31099C5.37881 5.25186 5.24221 5.16338 5.12696 5.05073C5.01171 4.93808 4.92012 4.80354 4.85758 4.65502C4.79504 4.50649 4.7628 4.34696 4.76276 4.1858C4.76272 4.02464 4.79488 3.86509 4.85735 3.71653C4.91981 3.56797 5.01133 3.43339 5.12653 3.32068C5.24172 3.20798 5.37828 3.11943 5.52817 3.06022C5.67806 3.00101 5.83827 2.97235 5.99939 2.97592C6.3155 2.98291 6.61632 3.11337 6.83745 3.33939C7.05858 3.5654 7.18244 3.869 7.18251 4.18519C7.18259 4.50139 7.05889 4.80505 6.83787 5.03117C6.61686 5.2573 6.3161 5.38792 5.99999 5.39506Z"/></symbol><symbol id="icon-calc-12" viewBox="0 0 12 12"><path d="M3 4.95297V3.75H9V4.95297H3ZM3 8.25V7.04703H9V8.25H3Z"/><path fill-rule="evenodd" d="M8.00729 1.59067H3.99271C2.33585 1.59067 0.992706 2.93382 0.992706 4.59067V7.40935C0.992706 9.0662 2.33585 10.4093 3.99271 10.4093H8.00729C9.66415 10.4093 11.0073 9.0662 11.0073 7.40934V4.59067C11.0073 2.93381 9.66415 1.59067 8.00729 1.59067ZM3.99271 0.590668C1.78357 0.590668 -0.0072937 2.38153 -0.0072937 4.59067V7.40935C-0.0072937 9.61849 1.78357 11.4093 3.99271 11.4093H8.00729C10.2164 11.4093 12.0073 9.61848 12.0073 7.40934V4.59067C12.0073 2.38153 10.2164 0.590668 8.00729 0.590668H3.99271Z"/></symbol></svg>