<svg xmlns="http://www.w3.org/2000/svg" xmlns:xlink="http://www.w3.org/1999/xlink"><defs/><symbol id="icon-boxnow" viewBox="0 0 27 20"><path d="M13.39 7.55C13.0985 7.73784 12.7566 7.83206 12.41 7.82 12.0738 7.83266 11.7416 7.74412 11.4564 7.56583 11.1711 7.38754 10.9459 7.12772 10.81 6.82 10.6684 6.49909 10.6 6.15064 10.61 5.8 10.61 5.45 10.67 5.1 10.82 4.78 10.9564 4.47473 11.1803 4.21677 11.4633 4.03876 11.7463 3.86076 12.0758 3.7707 12.41 3.78 12.75 3.78 13.09 3.88 13.38 4.06 13.65 4.24 13.86 4.5 13.98 4.79 14.13 5.11 14.2 5.46 14.2 5.81 14.2 6.15 14.13 6.51 13.99 6.82 13.86 7.12 13.65 7.37 13.39 7.55ZM5.1 5.09H3.78V3.54H5.1C5.32 3.54 5.54 3.6 5.74 3.7 5.94 3.81 6.04 4.02 6.04 4.34 6.04 4.61 5.94 4.81 5.74 4.92 5.55 5.04 5.32 5.09 5.1 5.09ZM5.08 8.07H3.78V6.35H5.08C5.26 6.35 5.43 6.37 5.6 6.4 5.77638 6.43934 5.9388 6.52573 6.07 6.65 6.1387 6.7214 6.19192 6.80622 6.22634 6.89913 6.26075 6.99205 6.27562 7.09107 6.27 7.19 6.27819 7.29522 6.26467 7.401 6.23026 7.50078 6.19586 7.60055 6.14131 7.69219 6.07 7.77 5.94 7.9 5.78 7.98 5.6 8.01 5.43 8.05 5.26 8.07 5.08 8.07ZM12.44 16.24C12.79 16.24 13.13 16.14 13.43 15.96V15.95C13.7 15.77 13.91 15.52 14.03 15.22 14.1681 14.8977 14.2393 14.5507 14.2393 14.2 14.2393 13.8493 14.1681 13.5023 14.03 13.18 13.91 12.88 13.7 12.63 13.43 12.45 13.14 12.26 12.79 12.16 12.44 12.18 12.1058 12.1707 11.7763 12.2608 11.4933 12.4388 11.2103 12.6168 10.9864 12.8747 10.85 13.18 10.7084 13.5014 10.6353 13.8488 10.6353 14.2 10.6353 14.5512 10.7084 14.8986 10.85 15.22 10.9833 15.529 11.2059 15.7912 11.4892 15.9729 11.7725 16.1546 12.1035 16.2476 12.44 16.24Z"/><path fill-rule="evenodd" d="M0 0H27V20H0V0ZM10.89 9.35C11.37 9.54 11.89 9.64 12.41 9.63C12.93 9.63 13.44 9.53 13.93 9.35C14.383 9.16668 14.794 8.89304 15.1378 8.54576C15.4817 8.19848 15.7512 7.78482 15.93 7.33C16.13 6.84 16.22 6.33 16.21 5.8C16.21 5.28 16.13 4.76 15.94 4.27C15.7599 3.81672 15.4885 3.40529 15.1427 3.06125C14.797 2.7172 14.3842 2.44789 13.93 2.27C12.9517 1.89329 11.8683 1.89329 10.89 2.27C10.4389 2.45107 10.0291 2.72162 9.68536 3.06536C9.34162 3.40909 9.07107 3.81887 8.89 4.27C8.69061 4.75539 8.58868 5.27526 8.59 5.8C8.58868 6.32474 8.69061 6.84461 8.89 7.33C9.07374 7.78193 9.34503 8.19306 9.68827 8.53973C10.0315 8.8864 10.4399 9.16178 10.89 9.35ZM2.01 2.3V9.3C2.01 9.31839 2.01362 9.33659 2.02066 9.35358C2.02769 9.37056 2.03801 9.38599 2.05101 9.399C2.06401 9.412 2.07944 9.42231 2.09642 9.42934C2.11341 9.43638 2.13162 9.44 2.15 9.44H5.2C6.02993 9.48574 6.85738 9.31335 7.6 8.94C8.15 8.6 8.42 8.07 8.42 7.34C8.43 7.02 8.34 6.7 8.15 6.44C7.97916 6.20441 7.76122 6.0069 7.51 5.86C7.32165 5.74351 7.12027 5.64954 6.91 5.58C6.9047 5.57867 6.90014 5.5753 6.89732 5.57061C6.89451 5.56592 6.89367 5.5603 6.895 5.555C6.89633 5.5497 6.89971 5.54514 6.90439 5.54232C6.90908 5.53951 6.9147 5.53867 6.92 5.54C7.29 5.39 7.6 5.12 7.81 4.77C7.94 4.56 8.01 4.3 8 4.05C8.00765 3.80602 7.9604 3.56344 7.86174 3.34016C7.76308 3.11689 7.61554 2.91862 7.43 2.76C7.18239 2.55273 6.89219 2.40251 6.58 2.32C6.13001 2.20099 5.66528 2.14711 5.2 2.16H2.15C2.13079 2.15862 2.11151 2.16123 2.09335 2.16764C2.07519 2.17406 2.05855 2.18415 2.04448 2.19729C2.0304 2.21043 2.01918 2.22634 2.01153 2.24401C2.00388 2.26168 1.99995 2.28074 2 2.3H2.01ZM16.35 9.24L18.57 5.8C18.5855 5.77806 18.5938 5.75186 18.5938 5.725C18.5938 5.69814 18.5855 5.67194 18.57 5.65L16.36 2.38C16.3473 2.36505 16.3381 2.34741 16.3332 2.32842C16.3283 2.30942 16.3277 2.28956 16.3316 2.27032C16.3354 2.25107 16.3436 2.23295 16.3554 2.21731C16.3673 2.20167 16.3825 2.18891 16.4 2.18C16.4221 2.17073 16.4462 2.16729 16.47 2.17H18.1C18.1234 2.16916 18.1467 2.17421 18.1677 2.18469C18.1886 2.19517 18.2066 2.21075 18.22 2.23L19.89 4.83V4.84C19.8955 4.84492 19.9026 4.84764 19.91 4.84764C19.9174 4.84764 19.9245 4.84492 19.93 4.84L21.6 2.23C21.6122 2.2089 21.6297 2.19134 21.6507 2.17907C21.6718 2.16679 21.6956 2.16022 21.72 2.16H23.35C23.3684 2.16127 23.3864 2.16616 23.4029 2.17439C23.4194 2.18263 23.4341 2.19404 23.4462 2.20798C23.4583 2.22192 23.4675 2.23811 23.4733 2.25561C23.4791 2.27312 23.4814 2.29161 23.48 2.31C23.48 2.33 23.48 2.35 23.46 2.37L21.25 5.65C21.2345 5.67194 21.2262 5.69814 21.2262 5.725C21.2262 5.75186 21.2345 5.77806 21.25 5.8L23.47 9.24C23.4832 9.2604 23.4903 9.28408 23.4907 9.30835C23.4911 9.33262 23.4847 9.35651 23.4722 9.37733C23.4597 9.39814 23.4417 9.41505 23.4201 9.42612C23.3985 9.4372 23.3742 9.44201 23.35 9.44H21.72C21.6966 9.44084 21.6733 9.43579 21.6523 9.42531C21.6314 9.41483 21.6134 9.39925 21.6 9.38L19.94 6.65C19.9378 6.64387 19.9338 6.6386 19.9283 6.63499C19.9229 6.63138 19.9165 6.62963 19.91 6.63H19.9L19.89 6.65L18.22 9.38C18.2066 9.39925 18.1886 9.41483 18.1677 9.42531C18.1467 9.43579 18.1234 9.44084 18.1 9.44H16.46C16.4356 9.43978 16.4118 9.43321 16.3907 9.42093C16.3697 9.40866 16.3522 9.3911 16.34 9.37C16.3286 9.35024 16.3226 9.32782 16.3226 9.305C16.3226 9.28218 16.3286 9.25976 16.34 9.24H16.35ZM2 17.73C2.00253 17.7654 2.01839 17.7985 2.04438 17.8226C2.07037 17.8467 2.10454 17.8601 2.14 17.86H3.64C3.67546 17.8601 3.70964 17.8467 3.73562 17.8226C3.76161 17.7985 3.77747 17.7654 3.78 17.73V13.75C3.78143 13.7453 3.78401 13.741 3.7875 13.7375C3.79098 13.734 3.79528 13.7314 3.8 13.73H3.81L3.82 13.74L6.43 17.8C6.44338 17.8192 6.46138 17.8348 6.48235 17.8453C6.50331 17.8558 6.52657 17.8608 6.55 17.86H7.87C7.90546 17.8601 7.93964 17.8467 7.96562 17.8226C7.99161 17.7985 8.00747 17.7654 8.01 17.73V10.69C8.00747 10.6546 7.99161 10.6215 7.96562 10.5974C7.93964 10.5733 7.90546 10.5599 7.87 10.56H6.37C6.33454 10.5599 6.30037 10.5733 6.27438 10.5974C6.24839 10.6215 6.23253 10.6546 6.23 10.69V14.56H6.2C6.19353 14.5623 6.18647 14.5623 6.18 14.56L3.66 10.62C3.64821 10.6015 3.63194 10.5864 3.61271 10.5759C3.59348 10.5654 3.57191 10.5599 3.55 10.56H2.14C2.10454 10.5599 2.07037 10.5733 2.04438 10.5974C2.01839 10.6215 2.00253 10.6546 2 10.69V17.73ZM17.9 17.76L16.25 10.72C16.2431 10.6896 16.2474 10.6577 16.2621 10.6301C16.2768 10.6026 16.3009 10.5812 16.33 10.57L16.39 10.56H18.06C18.0911 10.5587 18.1218 10.5678 18.1472 10.586C18.1725 10.6041 18.1911 10.6301 18.2 10.66L19.06 15.19L19.07 15.2C19.0735 15.2037 19.0779 15.2065 19.0827 15.2081C19.0876 15.2096 19.0928 15.2099 19.0978 15.2089C19.1028 15.2079 19.1075 15.2056 19.1113 15.2023C19.1152 15.199 19.1182 15.1948 19.12 15.19L20.11 10.84C20.1148 10.8091 20.1306 10.781 20.1545 10.7608C20.1784 10.7405 20.2087 10.7296 20.24 10.73H21.67C21.6994 10.7309 21.7278 10.741 21.7512 10.759C21.7745 10.7769 21.7916 10.8018 21.8 10.83L22.8 15.18V15.2C22.8055 15.2049 22.8126 15.2076 22.82 15.2076C22.8274 15.2076 22.8345 15.2049 22.84 15.2L22.85 15.18L23.59 10.67C23.5948 10.6364 23.6117 10.6058 23.6375 10.5837C23.6632 10.5616 23.6961 10.5497 23.73 10.55H25.4C25.4192 10.551 25.438 10.556 25.4552 10.5646C25.4724 10.5732 25.4877 10.5852 25.5 10.6L25.54 10.65V10.72L23.9 17.75C23.8916 17.7782 23.8745 17.8031 23.8512 17.821C23.8278 17.839 23.7994 17.8491 23.77 17.85H22.1C22.0706 17.8491 22.0422 17.839 22.0188 17.821C21.9955 17.8031 21.9784 17.7782 21.97 17.75L20.94 13.35V13.34C20.9345 13.3351 20.9274 13.3324 20.92 13.3324C20.9126 13.3324 20.9055 13.3351 20.9 13.34L20.89 13.35L19.87 17.75C19.8616 17.7782 19.8445 17.8031 19.8212 17.821C19.7978 17.839 19.7694 17.8491 19.74 17.85H18.04C18.0089 17.8513 17.9782 17.8422 17.9528 17.824C17.9275 17.8059 17.9089 17.7799 17.9 17.75V17.76ZM12.44 18.05C11.9193 18.0532 11.403 17.9547 10.92 17.76C10.0135 17.3761 9.29483 16.6503 8.92 15.74C8.53845 14.7522 8.53845 13.6578 8.92 12.67C9.10095 12.2148 9.37238 11.8011 9.71787 11.4539C10.0634 11.1067 10.4757 10.8332 10.93 10.65C11.9115 10.2717 12.9985 10.2717 13.98 10.65C14.4376 10.8295 14.8533 11.1016 15.2009 11.4491C15.5485 11.7967 15.8205 12.2124 16 12.67C16.37 13.66 16.37 14.74 16 15.74C15.8163 16.1968 15.5416 16.6114 15.1926 16.9586C14.8436 17.3059 14.4277 17.5786 13.97 17.76C13.49 17.95 12.97 18.05 12.44 18.05Z"/></symbol></svg>