<svg xmlns="http://www.w3.org/2000/svg" xmlns:xlink="http://www.w3.org/1999/xlink"><defs><clipPath id="a"><path fill="#fff" d="M0 0H24V24H0z"/></clipPath><clipPath id="a"><path fill="#fff" d="M0 0H24V24H0z"/></clipPath></defs><symbol id="icon-google-24" viewBox="0 0 24 24"><path fill-rule="evenodd" clip-rule="evenodd" d="M20.64 12.2046C20.64 11.5664 20.5827 10.9527 20.4764 10.3636H12V13.845H16.8436C16.635 14.97 16.0009 15.9232 15.0477 16.5614V18.8196H17.9564C19.6582 17.2527 20.64 14.9455 20.64 12.2046Z" fill="#4285F4"/><path fill-rule="evenodd" clip-rule="evenodd" d="M12 21C14.43 21 16.4673 20.1941 17.9564 18.8196L15.0477 16.5614C14.2418 17.1014 13.2109 17.4205 12 17.4205C9.65591 17.4205 7.67182 15.8373 6.96409 13.71H3.95728V16.0418C5.43818 18.9832 8.48182 21 12 21Z" fill="#34A853"/><path fill-rule="evenodd" clip-rule="evenodd" d="M6.96409 13.71C6.78409 13.17 6.68182 12.5932 6.68182 12C6.68182 11.4068 6.78409 10.83 6.96409 10.29V7.95819H3.95727C3.34773 9.17319 3 10.5477 3 12C3 13.4523 3.34773 14.8268 3.95727 16.0418L6.96409 13.71Z" fill="#FBBC05"/><path fill-rule="evenodd" clip-rule="evenodd" d="M12 6.57955C13.3214 6.57955 14.5077 7.03364 15.4405 7.92545L18.0218 5.34409C16.4632 3.89182 14.4259 3 12 3C8.48182 3 5.43818 5.01682 3.95728 7.95818L6.96409 10.29C7.67182 8.16273 9.65591 6.57955 12 6.57955Z" fill="#EA4335"/></symbol><symbol id="icon-facebook-white-24" viewBox="0 0 24 24"><g clip-path="url(#a)"><path d="M22.6737 0H1.32632C0.593812 0 0 0.593812 0 1.32632V22.6737C0 23.4062 0.593812 24 1.32632 24H12.8211V14.7368H9.68421V11.0863H12.8042V8.42105C12.8042 5.31789 14.6947 3.62947 17.4611 3.62947C18.4008 3.63227 19.3397 3.68568 20.2737 3.78947V7.02737H18.3621C16.8589 7.02737 16.5684 7.73895 16.5684 8.78737V11.1032H20.1684L19.7011 14.7368H16.5684V24H22.6737C23.4062 24 24 23.4062 24 22.6737V1.32632C24 0.593812 23.4062 0 22.6737 0Z" fill="#fff"/></g></symbol><symbol id="icon-facebook-24" viewBox="0 0 24 24"><g clip-path="url(#a)"><path d="M22.6737 0H1.32632C0.593812 0 0 0.593812 0 1.32632V22.6737C0 23.4062 0.593812 24 1.32632 24H12.8211V14.7368H9.68421V11.0863H12.8042V8.42105C12.8042 5.31789 14.6947 3.62947 17.4611 3.62947C18.4008 3.63227 19.3397 3.68568 20.2737 3.78947V7.02737H18.3621C16.8589 7.02737 16.5684 7.73895 16.5684 8.78737V11.1032H20.1684L19.7011 14.7368H16.5684V24H22.6737C23.4062 24 24 23.4062 24 22.6737V1.32632C24 0.593812 23.4062 0 22.6737 0Z" fill="#1877F2"/></g></symbol><symbol id="icon-apple-white-24" viewBox="0 0 24 24"><path d="M21.2287 18.3882C20.8828 19.1873 20.4734 19.9228 19.9991 20.5991C19.3525 21.521 18.8231 22.1591 18.4151 22.5134C17.7826 23.0951 17.105 23.393 16.3793 23.4099C15.8584 23.4099 15.2301 23.2617 14.4988 22.961C13.7652 22.6617 13.0909 22.5134 12.4744 22.5134C11.8278 22.5134 11.1343 22.6617 10.3926 22.961C9.64972 23.2617 9.05127 23.4184 8.59372 23.4339C7.89786 23.4635 7.20426 23.1572 6.51193 22.5134C6.07005 22.128 5.51734 21.4673 4.85522 20.5313C4.14482 19.5318 3.56078 18.3727 3.10322 17.0513C2.6132 15.624 2.36755 14.2419 2.36755 12.9038C2.36755 11.3711 2.69875 10.0491 3.36214 8.94128C3.88351 8.05145 4.57711 7.34952 5.4452 6.83422C6.3133 6.31893 7.25127 6.05634 8.26139 6.03954C8.8141 6.03954 9.5389 6.2105 10.4396 6.5465C11.3378 6.88363 11.9145 7.0546 12.1673 7.0546C12.3564 7.0546 12.997 6.85469 14.0831 6.45615C15.1101 6.08655 15.977 5.93352 16.6871 5.9938C18.6113 6.14909 20.057 6.90763 21.0184 8.27422C19.2974 9.31695 18.4461 10.7774 18.4631 12.651C18.4786 14.1103 19.008 15.3247 20.0485 16.289C20.52 16.7365 21.0466 17.0824 21.6325 17.328C21.5054 17.6965 21.3713 18.0494 21.2287 18.3882ZM16.8156 1.02213C16.8156 2.16594 16.3977 3.23394 15.5647 4.22246C14.5596 5.39761 13.3437 6.07667 12.0253 5.96952C12.0076 5.82572 11.9988 5.68098 11.9988 5.5361C11.9988 4.43803 12.4768 3.26288 13.3257 2.30203C13.7495 1.81554 14.2885 1.41107 14.9421 1.08834C15.5944 0.77041 16.2113 0.594646 16.7916 0.564575C16.8085 0.717469 16.8156 0.870505 16.8156 1.02213Z" fill="#fff"/></symbol><symbol id="icon-apple-24" viewBox="0 0 24 24"><path d="M21.2287 18.3882C20.8828 19.1873 20.4734 19.9228 19.9991 20.5991C19.3525 21.521 18.8231 22.1591 18.4151 22.5134C17.7826 23.0951 17.105 23.393 16.3793 23.4099C15.8584 23.4099 15.2301 23.2617 14.4988 22.961C13.7652 22.6617 13.0909 22.5134 12.4744 22.5134C11.8278 22.5134 11.1343 22.6617 10.3926 22.961C9.64972 23.2617 9.05127 23.4184 8.59372 23.4339C7.89786 23.4635 7.20426 23.1572 6.51193 22.5134C6.07005 22.128 5.51734 21.4673 4.85522 20.5313C4.14482 19.5318 3.56078 18.3727 3.10322 17.0513C2.6132 15.624 2.36755 14.2419 2.36755 12.9038C2.36755 11.3711 2.69875 10.0491 3.36214 8.94128C3.88351 8.05145 4.57711 7.34952 5.4452 6.83422C6.3133 6.31893 7.25127 6.05634 8.26139 6.03954C8.8141 6.03954 9.5389 6.2105 10.4396 6.5465C11.3378 6.88363 11.9145 7.0546 12.1673 7.0546C12.3564 7.0546 12.997 6.85469 14.0831 6.45615C15.1101 6.08655 15.977 5.93352 16.6871 5.9938C18.6113 6.14909 20.057 6.90763 21.0184 8.27422C19.2974 9.31695 18.4461 10.7774 18.4631 12.651C18.4786 14.1103 19.008 15.3247 20.0485 16.289C20.52 16.7365 21.0466 17.0824 21.6325 17.328C21.5054 17.6965 21.3713 18.0494 21.2287 18.3882ZM16.8156 1.02213C16.8156 2.16594 16.3977 3.23394 15.5647 4.22246C14.5596 5.39761 13.3437 6.07667 12.0253 5.96952C12.0076 5.82572 11.9988 5.68098 11.9988 5.5361C11.9988 4.43803 12.4768 3.26288 13.3257 2.30203C13.7495 1.81554 14.2885 1.41107 14.9421 1.08834C15.5944 0.77041 16.2113 0.594646 16.7916 0.564575C16.8085 0.717469 16.8156 0.870505 16.8156 1.02213Z" fill="#000"/></symbol></svg>