<svg xmlns="http://www.w3.org/2000/svg" xmlns:xlink="http://www.w3.org/1999/xlink"><defs/><symbol id="icon-yt-old" viewBox="0 0 24 24"><path d="M23.25 7.44C23.25 6.52766 22.8876 5.65268 22.2424 5.00755C21.5973 4.36243 20.7223 4 19.81 4H4.19C3.73825 4 3.29093 4.08898 2.87357 4.26185C2.45621 4.43473 2.07699 4.68812 1.75755 5.00755C1.11243 5.65268 0.75 6.52766 0.75 7.44V16.56C0.75 17.4723 1.11243 18.3473 1.75755 18.9924C2.07699 19.3119 2.45621 19.5653 2.87357 19.7381C3.29093 19.911 3.73825 20 4.19 20H19.81C20.7223 20 21.5973 19.6376 22.2424 18.9924C22.8876 18.3473 23.25 17.4723 23.25 16.56V7.44ZM9.5 15.94V7.28L16.27 11.61L9.5 15.94Z" stroke-linecap="round" stroke-linejoin="round"/></symbol><symbol id="icon-yt-24" viewBox="0 0 24 24"><path d="M12 0C5.373 0 0 5.373 0 12C0 18.627 5.373 24 12 24C18.627 24 24 18.627 24 12C24 5.373 18.627 0 12 0ZM16.441 16.892C14.339 17.036 9.657 17.036 7.558 16.892C5.282 16.736 5.017 15.622 5 12C5.017 8.371 5.285 7.264 7.558 7.108C9.657 6.964 14.34 6.964 16.441 7.108C18.718 7.264 18.982 8.378 19 12C18.982 15.629 18.715 16.736 16.441 16.892ZM10 9.658L14.917 11.996L10 14.342V9.658Z"/></symbol><symbol id="icon-youtube" viewBox="0 0 24 24"><path d="M22.0617 4.18569C22.4101 4.54482 22.6575 4.98952 22.779 5.47487C23.1034 7.27345 23.2606 10.0982 23.2492 11.9257C23.2556 13.726 23.0984 16.7125 22.779 18.4842C22.6575 18.9696 22.4101 19.4143 22.0617 19.7734C21.7134 20.1325 21.2764 20.3934 20.795 20.5296C19.036 21 12 21 12 21C12 21 4.964 21 3.205 20.5296C2.73337 20.4005 2.30299 20.152 1.95544 19.8081C1.6079 19.4641 1.35494 19.0363 1.22102 18.566C0.896591 16.7675 0.738865 13.7533 0.75034 11.9257C0.741377 10.1118 0.899092 7.30091 1.22102 5.51578C1.3425 5.03043 1.58991 4.58573 1.93826 4.2266C2.28662 3.86747 2.72358 3.60663 3.205 3.47043C4.964 3 12 3 12 3C12 3 19.036 3 20.795 3.42952C21.2764 3.56573 21.7134 3.82657 22.0617 4.18569Z" stroke-linecap="round" stroke-linejoin="round"/><path d="M9.18839 7.99999V16.4413L16.2208 12.2206L9.18839 7.99999Z" stroke-linecap="round" stroke-linejoin="round"/></symbol><symbol id="icon-youtube-14" viewBox="0 0 14 14"><path fill-rule="evenodd" d="M12.7488 3.31993C12.684 3.06108 12.552 2.82391 12.3663 2.63237C12.1805 2.44084 11.9474 2.30172 11.6907 2.22908C10.7525 2 7 2 7 2C7 2 3.24747 2 2.30933 2.2509C2.05257 2.32354 1.81953 2.46265 1.63374 2.65419C1.44795 2.84572 1.316 3.08289 1.25121 3.34175C1.07952 4.29382 0.995409 5.99299 1.00019 6.9604C0.994069 7.93511 1.07818 9.74264 1.25121 10.7019C1.32264 10.9527 1.45755 11.1809 1.6429 11.3643C1.82826 11.5477 2.0578 11.6803 2.30933 11.7491C3.24747 12 7 12 7 12C7 12 10.7525 12 11.6907 11.7491C11.9474 11.6765 12.1805 11.5373 12.3663 11.3458C12.552 11.1543 12.684 10.9171 12.7488 10.6583C12.9192 9.71335 13.003 7.92054 12.9996 6.9604C13.0057 5.9857 12.9218 4.27917 12.7488 3.31993ZM5.50044 9.3687V4.86669L9.25104 7.11769L5.50044 9.3687Z"/></symbol><symbol id="icon-xcom" viewBox="0 0 24 24"><path d="M22 1.5 13.4333 10.9684M3 22.5 11.0287 13.6262M22 22.5 5.90244 1.5H2L18.0976 22.5H22Z" stroke-linecap="round" stroke-linejoin="round"/></symbol><symbol id="icon-xcom-24" viewBox="0 0 24 24"><path d="M16.754 16.7299H15.5645L7.79904 6.57762H9.07555L16.754 16.7299Z"/><path fill-rule="evenodd" d="M12 24C18.6274 24 24 18.6274 24 12C24 5.37258 18.6274 0 12 0C5.37258 0 0 5.37258 0 12C0 18.6274 5.37258 24 12 24ZM18.4647 5.36017H16.3179L12.7805 9.40383L9.72191 5.36017H5.29211L10.585 12.2813L5.56857 18.0149H7.71663L11.5883 13.5909L14.972 18.0149H19.2921L13.7747 10.7206L18.4647 5.36017Z"/></symbol><symbol id="icon-xcom-14" viewBox="0 0 14 14"><path d="M10.6423 1.3125H12.5719L8.35619 6.13083L13.3157 12.6875H9.43245L6.39095 8.71092L2.91078 12.6875H0.979945L5.48911 7.53375L0.731445 1.3125H4.71328L7.46253 4.94725L10.6423 1.3125ZM9.96503 11.5325H11.0343L4.13228 2.40683H2.98486L9.96503 11.5325Z"/></symbol><symbol id="icon-twitter" viewBox="0 0 24 24"><path d="M23.18 6.71L21.08 5.81L22.18 3.41L19.62 4.26C18.8046 3.49993 17.7346 3.07194 16.62 3.06C15.4273 3.06264 14.2842 3.53759 13.4409 4.38094C12.5976 5.22428 12.1226 6.36734 12.12 7.56V8.56C8.57996 9.29 5.48996 7.36 2.61996 4.06C2.11996 6.72666 2.61996 8.72666 4.11996 10.06L0.829956 9.56C0.957062 10.6192 1.4523 11.6 2.22913 12.3312C3.00597 13.0623 4.01501 13.4973 5.07996 13.56L2.32996 14.56C3.32996 16.56 5.14996 16.87 7.57996 17.06C5.59378 18.4147 3.23353 19.114 0.829956 19.06C13.59 24.73 21.08 16.4 21.08 9.06V8.23L23.18 6.71Z" stroke-linecap="round" stroke-linejoin="round"/></symbol><symbol id="icon-twitter-24" viewBox="0 0 24 24"><path fill-rule="evenodd" d="M24.0003 11.9999C24.0003 18.6273 18.6277 23.9998 12.0004 23.9998C5.37302 23.9998 0.000488281 18.6273 0.000488281 11.9999C0.000488281 5.37254 5.37302 0 12.0004 0C18.6277 0 24.0003 5.37254 24.0003 11.9999ZM17.3432 8.11517C17.9233 8.04629 18.4765 7.89206 18.9907 7.66403C18.6063 8.23923 18.1201 8.74428 17.5592 9.14856C17.5648 9.27135 17.5676 9.3952 17.5676 9.51948C17.5676 13.3102 14.6824 17.6808 9.40649 17.6808C7.78677 17.6808 6.27871 17.2061 5.01001 16.392C5.23397 16.4187 5.46286 16.4322 5.69388 16.4322C7.03808 16.4322 8.2747 15.9738 9.25654 15.2043C8.00111 15.181 6.94204 14.3517 6.57711 13.2124C6.75209 13.2458 6.93156 13.2635 7.1168 13.2635C7.37799 13.2635 7.6319 13.2287 7.87233 13.1628C6.56043 12.8995 5.57131 11.7403 5.57131 10.3505C5.57131 10.3385 5.57131 10.3263 5.57152 10.3142C5.95806 10.5296 6.40063 10.6586 6.87059 10.6733C6.10138 10.1591 5.59462 9.28076 5.59462 8.28587C5.59462 7.76029 5.73623 7.26723 5.98308 6.84369C7.39788 8.57956 9.51152 9.72141 11.8953 9.84099C11.8461 9.63093 11.8207 9.4121 11.8207 9.18728C11.8207 7.6035 13.1052 6.31897 14.689 6.31897C15.5145 6.31897 16.2599 6.66721 16.7832 7.22445C17.4362 7.09589 18.0504 6.85738 18.6046 6.5286C18.39 7.19878 17.9355 7.76029 17.3432 8.11517Z"/></symbol><symbol id="icon-twitter-14" viewBox="0 0 14 14"><path fill-rule="evenodd" d="M5 12C3.38304 12 2.08978 11.582 1 10.6667C1.19304 10.8884 3.80239 10.4965 4.33333 10C3.56761 9.79963 2.65783 9.07063 2.33333 8C2.49478 8.09617 3.25065 8.08146 3.66667 8C2.33043 7.7912 1.48196 6.77127 1.66667 5.33333C1.81391 5.70519 2.19413 5.81889 2.33333 6C1.93652 5.37881 1.62283 2.834 1.66667 2.66667C3.04913 3.98903 4.86413 4.99358 7 5.33333C6.86826 4.91399 6.84674 4.72204 7 4.66667C6.84674 3.12961 7.94826 2 9 2C10.0163 2 10.6561 2.30564 11 2.66667C11.6657 2.68285 12.1926 2.47285 13 2C12.4848 2.77314 12.0941 3.26806 11.6667 3.33333C12.0843 3.51886 12.5578 3.38443 13 3.33333C12.67 3.69007 12.2526 4.13416 11.6667 4.66667C11.7785 8.15302 9.30217 12 5 12Z"/></symbol><symbol id="icon-tik" viewBox="0 0 24 24"><path d="M16.6096 9.70258C18.4828 11.0475 20.7311 11.7702 23.0371 11.7686V7.17749C21.3324 7.17749 19.6976 6.50031 18.4922 5.29492C17.2868 4.08954 16.6096 2.45468 16.6096 0.75H12.0186V15.4414C12.0185 16.0165 11.8642 16.5811 11.5716 17.0762C11.279 17.5714 10.8589 17.9789 10.3551 18.2563C9.85131 18.5337 9.28231 18.6709 8.70746 18.6535C8.13261 18.6361 7.57296 18.4647 7.08691 18.1573C6.60085 17.8498 6.2062 17.4176 5.94413 16.9057C5.68206 16.3937 5.56216 15.8209 5.59695 15.2468C5.63174 14.6727 5.81995 14.1185 6.14193 13.642C6.46391 13.1654 6.90787 12.784 7.42749 12.5376V7.76285C5.9659 8.0249 4.60939 8.69844 3.51719 9.70443C2.425 10.7104 1.64244 12.0071 1.26138 13.4423C0.880314 14.8774 0.916566 16.3915 1.36588 17.8068C1.81518 19.2221 2.6589 20.4798 3.798 21.4324C4.93709 22.385 6.32428 22.9928 7.79673 23.1846C9.26919 23.3764 10.7658 23.1442 12.1109 22.5152C13.456 21.8862 14.5937 20.8865 15.3906 19.6336C16.1875 18.3806 16.6103 16.9263 16.6096 15.4414V9.70258Z" stroke-linecap="round" stroke-linejoin="round"/></symbol><symbol id="icon-tik-tok-14" viewBox="0 0 14 14"><path d="M10.9046 3.56668C10.8236 3.52482 10.7448 3.47893 10.6684 3.42918C10.4462 3.28231 10.2425 3.10924 10.0617 2.91371C9.6092 2.39599 9.44021 1.87076 9.37796 1.50303H9.38047C9.32847 1.1978 9.34997 1.00031 9.35322 1.00031H7.29232V8.96941C7.29232 9.0764 7.29232 9.18215 7.28782 9.28664C7.28782 9.29964 7.28657 9.31164 7.28582 9.32564C7.28582 9.33139 7.28582 9.33739 7.28457 9.34339C7.28457 9.34489 7.28457 9.34639 7.28457 9.34789C7.26285 9.63382 7.17119 9.91003 7.01766 10.1522C6.86413 10.3944 6.65344 10.5952 6.40411 10.7368C6.14426 10.8847 5.85037 10.9622 5.55141 10.9618C4.59121 10.9618 3.81299 10.1788 3.81299 9.2119C3.81299 8.24494 4.59121 7.46198 5.55141 7.46198C5.73317 7.46181 5.91381 7.49042 6.08663 7.54673L6.08913 5.44833C5.5645 5.38056 5.03151 5.42226 4.5238 5.57079C4.01609 5.71931 3.54467 5.97145 3.13928 6.31129C2.78406 6.61993 2.48543 6.98818 2.25682 7.39949C2.16983 7.54948 1.84159 8.1522 1.80184 9.1304C1.77685 9.68562 1.94359 10.2608 2.02308 10.4986V10.5036C2.07308 10.6436 2.26682 11.1213 2.58256 11.524C2.83715 11.8471 3.13795 12.1309 3.47526 12.3662V12.3612L3.48026 12.3662C4.47796 13.0442 5.58416 12.9997 5.58416 12.9997C5.77565 12.992 6.41711 12.9997 7.14558 12.6545C7.95354 12.2717 8.41351 11.7015 8.41351 11.7015C8.70737 11.3608 8.94103 10.9725 9.10448 10.5533C9.29097 10.0631 9.35322 9.47513 9.35322 9.24014V5.01235C9.37822 5.02735 9.7112 5.24759 9.7112 5.24759C9.7112 5.24759 10.1909 5.55508 10.9394 5.75532C11.4764 5.89781 12.1998 5.92781 12.1998 5.92781V3.88191C11.9463 3.90941 11.4316 3.82941 10.9046 3.56668Z"/></symbol><symbol id="icon-tik-old" viewBox="0 0 22 24"><path d="M16.4709 4.39505C15.6589 3.46408 15.1707 2.25017 15.1707 0.923096H14.1532M16.4709 4.39505C17.2109 5.24379 18.213 5.86106 19.354 6.10275C19.7086 6.17992 20.0785 6.22111 20.464 6.22111V10.0273C18.4906 10.0273 16.6609 9.39474 15.1705 8.32482V16.066C15.1705 19.9341 12.0252 23.0769 8.1656 23.0769C6.1458 23.0769 4.32133 22.2127 3.04164 20.8394C1.87502 19.5844 1.16064 17.9075 1.16064 16.066C1.16064 12.2546 4.21342 9.14781 7.99598 9.06551M16.4709 4.39505C16.4512 4.38215 16.4315 4.36914 16.4119 4.35599M5.57542 17.9281C5.19511 17.4035 4.96898 16.7605 4.96898 16.0609C4.96898 14.2967 6.40285 12.8616 8.16569 12.8616C8.4946 12.8616 8.8132 12.9181 9.11128 13.0107V9.12215C8.80291 9.08095 8.48945 9.05521 8.16569 9.05521C8.10912 9.05521 7.65375 9.0855 7.59721 9.0855M14.1477 0.923096H11.3622L11.3597 8.55371L11.3571 16.1843C11.2954 17.8921 9.88722 19.2655 8.1656 19.2655C7.09659 19.2655 6.15608 18.7357 5.5702 17.9333" stroke-linejoin="round"/></symbol><symbol id="icon-tik-24" viewBox="0 0 24 24"><path fill-rule="evenodd" d="M12.0036 0C18.6283 0 24.0072 5.37174 24.0072 12.0036C24.0072 18.6283 18.6355 24.0072 12.0036 24.0072C5.37894 24.0072 0 18.6355 0 12.0036C0 5.37894 5.37174 0 12.0036 0ZM14.6031 5.35734C14.8263 7.24392 15.8776 8.36724 17.6994 8.48245V10.5995C16.6409 10.7003 15.712 10.3546 14.6319 9.70657V13.667C14.6319 18.7075 9.13771 20.2772 6.93429 16.6697C5.51575 14.351 6.38704 10.2682 10.9379 10.1098V12.3492C10.5923 12.4068 10.225 12.4932 9.88659 12.6085C8.87129 12.9469 8.30243 13.595 8.46085 14.7255C8.77048 16.8929 12.7453 17.5338 12.414 13.2997V5.36454H14.6103L14.6031 5.35734Z"/></symbol><symbol id="icon-threads" viewBox="0 0 24 24"><path d="M21.1402 7.72344C20.9265 6.86867 19.3462 0.75 11.812 0.75C4.26223 0.75 1.81571 6.40445 2.01067 12.7844C2.18626 18.5326 5.09477 23.25 11.7205 23.25C16.5297 23.25 20.0488 20.5399 20.0488 16.9446C20.0488 14.0669 18.5803 12.5939 16.0715 11.7766C11.9952 10.4484 8.40304 11.5074 8.05631 14.0209C7.78165 16.013 9.61344 17.6009 12.0641 17.4101C15.2539 17.1618 16.1404 14.3032 16.1404 11.8071C16.1404 7.73074 13.9191 6.57814 12.1555 6.48669C9.1597 6.3311 8.09441 8.34166 8.09441 8.34166" stroke-linecap="round" stroke-linejoin="round"/></symbol><symbol id="icon-threads-24" viewBox="0 0 24 24"><path d="M10.4385 13.5944C10.4825 14.4202 11.3754 14.8057 12.2342 14.7569C13.0759 14.7106 14.0299 14.38 14.1921 12.3489C13.7554 12.2537 13.276 12.2037 12.7624 12.2037C12.6075 12.2037 12.4489 12.2074 12.2867 12.2171C10.874 12.2989 10.4056 12.982 10.4385 13.5944Z"/><path fill-rule="evenodd" d="M24 12C24 18.6274 18.6274 24 12 24C5.37258 24 0 18.6274 0 12C0 5.37258 5.37258 0 12 0C18.6274 0 24 5.37258 24 12ZM15.573 11.3291C15.6438 11.3596 15.7121 11.3901 15.7804 11.423C16.7417 11.8841 17.4456 12.5831 17.814 13.4419C18.3275 14.6423 18.3751 16.5953 16.8149 18.1543C15.6218 19.3461 14.1738 19.8829 12.1208 19.8975H12.111C9.80055 19.8817 8.0244 19.1034 6.83135 17.5871C5.76883 16.2379 5.22111 14.3593 5.20281 12.0049V11.9927C5.22233 9.6383 5.77005 7.7609 6.83135 6.41049C8.0244 4.89295 9.80055 4.11589 12.111 4.10003H12.1208C14.4361 4.11589 16.2318 4.89051 17.4602 6.40195C18.0665 7.1473 18.5117 8.04635 18.7948 9.08935L17.4663 9.44434C17.2321 8.59652 16.8783 7.86947 16.4087 7.29125C15.4498 6.11284 14.0067 5.50899 12.1159 5.49436C10.2397 5.50777 8.81976 6.10918 7.89753 7.28271C7.03385 8.38182 6.58738 9.96767 6.5703 11.9988C6.58738 14.0299 7.03385 15.617 7.89753 16.7148C8.81976 17.8872 10.2397 18.4898 12.1159 18.5032C13.8079 18.491 14.9277 18.0884 15.8585 17.1577C16.921 16.0964 16.9015 14.7935 16.5611 14.0006C16.3611 13.5346 15.9988 13.1467 15.5108 12.8515C15.3913 13.7383 15.1217 14.4422 14.6959 14.9851C14.1348 15.6999 13.3309 16.0915 12.3062 16.1476C11.5291 16.1903 10.7826 16.0037 10.2031 15.6206C9.51754 15.168 9.1162 14.4739 9.0735 13.6688C8.98933 12.0817 10.2482 10.9387 12.2086 10.8253C12.9039 10.785 13.5554 10.8167 14.1568 10.9192C14.0775 10.43 13.9164 10.0433 13.6749 9.76273C13.3431 9.37725 12.8307 9.18085 12.1525 9.17597H12.1342C11.5889 9.17597 10.8484 9.32845 10.3776 10.0433L9.24428 9.26624C9.87618 8.30863 10.9009 7.78286 12.1342 7.78286H12.1622C14.2239 7.79628 15.4511 9.08204 15.573 11.3291Z"/></symbol><symbol id="icon-threads-14" viewBox="0 0 14 14"><path d="M9.89391 6.56177C9.84223 6.53699 9.78973 6.51315 9.73654 6.49032C9.64391 4.78364 8.71135 3.80656 7.14547 3.79656C7.13838 3.79652 7.13132 3.79652 7.12423 3.79652C6.18763 3.79652 5.40867 4.19631 4.92923 4.92379L5.79041 5.51455C6.14858 4.97114 6.71068 4.8553 7.12464 4.8553C7.12942 4.8553 7.13422 4.8553 7.13895 4.85534C7.65454 4.85863 8.0436 5.00854 8.29541 5.30088C8.47866 5.51371 8.60123 5.80781 8.66191 6.17899C8.20479 6.10129 7.71041 6.07741 7.18191 6.10771C5.69315 6.19346 4.73605 7.06174 4.80033 8.26825C4.83295 8.88025 5.13783 9.40675 5.65879 9.75069C6.09925 10.0414 6.66654 10.1836 7.25612 10.1514C8.03473 10.1088 8.64554 9.81169 9.07166 9.2685C9.39529 8.856 9.59998 8.32144 9.69035 7.64787C10.0614 7.87181 10.3364 8.1665 10.4883 8.52075C10.7465 9.12294 10.7616 10.1125 9.95416 10.9192C9.24673 11.626 8.39635 11.9318 7.1112 11.9412C5.68561 11.9306 4.60746 11.4734 3.90648 10.5823C3.25007 9.74788 2.91083 8.54262 2.89818 7C2.91083 5.45736 3.25007 4.2521 3.90648 3.41767C4.60746 2.52656 5.6856 2.06938 7.11118 2.05878C8.5471 2.06946 9.64404 2.52884 10.3719 3.42425C10.7287 3.86335 10.9978 4.41555 11.1752 5.05939L12.1844 4.79014C11.9694 3.99764 11.631 3.31473 11.1707 2.74838C10.2376 1.60042 8.87298 1.0122 7.1147 1H7.10766C5.35295 1.01215 4.00361 1.60261 3.09712 2.75496C2.29047 3.7804 1.87438 5.20723 1.8604 6.99578L1.86035 7L1.8604 7.00422C1.87438 8.79275 2.29047 10.2196 3.09712 11.2451C4.00361 12.3974 5.35295 12.9879 7.10766 13H7.1147C8.67473 12.9892 9.77435 12.5808 10.6802 11.6757C11.8654 10.4916 11.8297 9.00744 11.4391 8.09631C11.1589 7.44294 10.6245 6.91226 9.89391 6.56177ZM7.20038 9.09419C6.54788 9.13094 5.87 8.83806 5.83658 8.21075C5.8118 7.74563 6.16759 7.22662 7.24043 7.1648C7.36329 7.15771 7.48385 7.15425 7.60229 7.15425C7.99198 7.15425 8.35654 7.19211 8.68798 7.26456C8.56435 8.80844 7.83923 9.05912 7.20038 9.09419Z"/></symbol><symbol id="icon-pinterest" viewBox="0 0 24 24"><path d="M6.59994 10.27C6.49096 9.89648 6.43706 9.50906 6.43994 9.11999C6.43119 8.37904 6.57336 7.64407 6.85777 6.95983C7.14219 6.27559 7.5629 5.65641 8.0943 5.13998C8.62569 4.62355 9.25665 4.2207 9.94873 3.95594C10.6408 3.69119 11.3795 3.57008 12.1199 3.59999C15.2199 3.59999 16.9199 5.48999 16.9199 8.01999C16.9199 11.34 15.4499 14.15 13.2599 14.15C12.0499 14.15 11.6299 13.23 11.9099 12.01C12.3299 10.26 14.6199 7.34999 11.9099 6.74999C9.19994 6.14999 8.77994 9.58999 8.72994 11.15L7.06994 18.15C6.79102 19.7748 6.79102 21.4352 7.06994 23.06C7.07312 23.0949 7.08701 23.128 7.10971 23.1547C7.13241 23.1814 7.16282 23.2004 7.19676 23.2092C7.2307 23.2179 7.26652 23.216 7.29931 23.2036C7.3321 23.1912 7.36027 23.169 7.37994 23.14C8.37507 21.9015 9.1497 20.5011 9.66994 19C9.82994 18.42 10.4199 16.2 10.4199 16.2C10.7697 16.7115 11.2423 17.127 11.7945 17.4083C12.3466 17.6896 12.9605 17.8277 13.5799 17.81C17.7299 17.81 20.7099 13.27 20.7099 8.19999C20.7099 4.36999 17.4599 0.799988 12.5299 0.799988C6.38994 0.799988 3.28994 5.19999 3.28994 8.86999C3.22786 9.7368 3.37747 10.6057 3.72589 11.4018C4.07431 12.198 4.61107 12.8974 5.28994 13.44L6.59994 10.27Z" stroke-linecap="round" stroke-linejoin="round"/></symbol><symbol id="icon-pinterest-14" viewBox="0 0 14 14"><path d="M4.15915 13.0433C4.16549 13.0884 4.18488 13.1307 4.21494 13.1649C4.245 13.1991 4.28441 13.2237 4.32832 13.2358H4.39248C4.43425 13.2345 4.47509 13.2232 4.51161 13.2029C4.54814 13.1826 4.57929 13.1539 4.60248 13.1192C5.16455 12.4241 5.59725 11.6338 5.87998 10.7858C5.93248 10.5933 6.10748 9.89915 6.23582 9.40332C6.24203 9.3797 6.25407 9.35802 6.27083 9.34027C6.2876 9.32251 6.30856 9.30926 6.33178 9.30171C6.35501 9.29416 6.37976 9.29256 6.40376 9.29707C6.42776 9.30157 6.45024 9.31203 6.46915 9.32749C6.89018 9.65821 7.40959 9.83887 7.94498 9.84082C10.22 9.84082 11.8708 7.75832 11.8708 4.89415C11.8708 2.84665 10.1558 0.734985 7.28582 0.734985C4.08332 0.752485 2.12915 3.05082 2.12915 5.24999C2.12915 6.62082 2.71248 7.67082 3.65748 8.06165C3.71074 8.08786 3.76934 8.1014 3.82869 8.10121C3.88805 8.10102 3.94656 8.08711 3.99965 8.06057C4.05274 8.03402 4.09897 7.99556 4.13474 7.94819C4.1705 7.90082 4.19483 7.84582 4.20582 7.78749L4.34582 7.20415C4.37985 7.11391 4.38581 7.01548 4.3629 6.92179C4.34 6.8281 4.28931 6.74352 4.21748 6.67915C3.92263 6.31825 3.77104 5.8614 3.79165 5.39582C3.789 4.96532 3.87349 4.53874 4.04004 4.14176C4.20659 3.74477 4.45175 3.3856 4.76076 3.08585C5.06977 2.7861 5.43624 2.55199 5.83811 2.3976C6.23998 2.24321 6.66893 2.17174 7.09915 2.18749C8.80832 2.18749 9.86999 3.16165 9.86999 4.73082C9.86999 6.77249 8.97748 8.31249 7.79332 8.31249C7.64565 8.3204 7.49805 8.29576 7.36096 8.24032C7.22387 8.18488 7.10064 8.09999 6.99998 7.99165C6.91237 7.87924 6.85202 7.74803 6.82368 7.60835C6.79534 7.46868 6.79978 7.32433 6.83665 7.18665C6.91248 6.87165 7.01165 6.54499 7.11082 6.22415C7.293 5.72253 7.4068 5.19865 7.44915 4.66665C7.46235 4.51607 7.44358 4.3644 7.39409 4.22157C7.34461 4.07874 7.26551 3.94797 7.16197 3.83783C7.05844 3.72769 6.93282 3.64066 6.79332 3.58244C6.65382 3.52422 6.5036 3.49612 6.35248 3.49999C5.51248 3.49999 4.85915 4.33415 4.85915 5.43082C4.8587 5.78721 4.92191 6.14082 5.04582 6.47499C5.06253 6.53014 5.06253 6.589 5.04582 6.64415L4.18248 10.325C4.01575 11.2228 4.00786 12.1428 4.15915 13.0433Z"/></symbol><symbol id="icon-messenger-14" viewBox="0 0 14 14"><path fill-rule="evenodd" d="M7 1C3.68629 1 1 3.4873 1 6.55556C1 8.30389 1.8725 9.86337 3.23602 10.8817V13L5.27897 11.8788C5.82419 12.0297 6.40179 12.1111 7 12.1111C10.3137 12.1111 13 9.62381 13 6.55556C13 3.4873 10.3137 1 7 1ZM7.59627 8.48148L6.06832 6.85185L3.08696 8.48148L6.36646 5L7.93168 6.62963L10.8758 5L7.59627 8.48148Z"/></symbol><symbol id="icon-linkedin" viewBox="0 0 25 24"><path d="M.796934 8.10801H5.95313V23.1157H.796934V8.10801ZM22.8749 9.47888C21.7919 8.33293 20.3593 7.75987 18.5782 7.75987 17.922 7.75987 17.3255 7.83812 16.7889 7.99463 16.2525 8.15114 15.7995 8.37067 15.4296 8.65339 15.0598 8.93611 14.7654 9.19857 14.5468 9.44077 14.3389 9.67089 14.1358 9.93874 13.9373 10.2419V8.10783H8.79667L8.8124 8.83481C8.82294 9.31958 8.82812 10.8137 8.82812 13.3175 8.82812 15.8214 8.81777 19.0873 8.79686 23.1157H13.9373V14.7409C13.9373 14.226 13.9945 13.8173 14.1092 13.5141 14.3282 12.9991 14.6584 12.5676 15.1014 12.2195 15.5443 11.871 16.0937 11.6968 16.75 11.6968 17.6458 11.6968 18.3047 11.9972 18.7267 12.5979 19.1484 13.1985 19.3593 14.029 19.3593 15.0891V23.1153H24.5V14.514C24.4996 12.3028 23.9582 10.6245 22.8749 9.47888ZM3.4063.884214C2.54175.884214 1.84137 1.1292 1.30477 1.61881.768168 2.10841.50006 2.72665.50006 3.47388.50006 4.21071.760497 4.82671 1.28137 5.32134 1.80206 5.81596 2.48959 6.06337 3.34378 6.06337H3.37504C4.25013 6.06337 4.95588 5.81615 5.49229 5.32134 6.0287 4.82671 6.29163 4.21089 6.28127 3.47388 6.27092 2.72665 6.00511 2.10841 5.48443 1.61881 4.96374 1.12902 4.27084.884214 3.4063.884214Z"/></symbol><symbol id="icon-linkedin-24" viewBox="0 0 24 24"><path d="M11.9865 0.131897C5.43931 0.131897 0.131836 5.43937 0.131836 11.9866C0.131836 18.5338 5.43931 23.8413 11.9865 23.8413C18.5337 23.8413 23.8412 18.5338 23.8412 11.9866C23.8412 5.43937 18.5337 0.131897 11.9865 0.131897ZM8.34766 18.5609H5.61713V9.77819H8.34766V18.5609ZM6.98253 8.57823C6.10791 8.57823 5.40059 7.86906 5.40059 6.99576C5.40059 6.12168 6.10791 5.41224 6.98253 5.41224C7.8553 5.41224 8.56447 6.12141 8.56447 6.99576C8.56447 7.86906 7.85503 8.57823 6.98253 8.57823ZM18.5725 18.5609H15.844V14.2898C15.844 13.2711 15.8264 11.961 14.4254 11.961C13.005 11.961 12.7882 13.0714 12.7882 14.2166V18.5609H10.0597V9.77819H12.678V10.9792H12.7152C13.0795 10.2885 13.9702 9.56059 15.2979 9.56059C18.0622 9.56059 18.5725 11.3791 18.5725 13.744V18.5609Z"/></symbol><symbol id="icon-linkedin-14" viewBox="0 0 14 14"><path d="M1.20398 4.90619H3.97793V12.9801H1.20398V4.90619ZM13.0815 5.64367C12.4989 5.02717 11.7282 4.71887 10.77 4.71887 10.4169 4.71887 10.0961 4.76097 9.80739 4.84517 9.51881 4.92937 9.27511 5.04747 9.07609 5.19957 8.87717 5.35167 8.71879 5.49287 8.60117 5.62317 8.48933 5.74697 8.38007 5.89107 8.27329 6.05417V4.90607H5.50769L5.51615 5.29717C5.52183 5.55797 5.52461 6.36177 5.52461 7.70877 5.52461 9.05587 5.51904 10.8129 5.50779 12.9801H8.27329V8.47457C8.27329 8.19757 8.30403 7.97767 8.36573 7.81457 8.48356 7.53747 8.66122 7.30537 8.89956 7.11807 9.13779 6.93057 9.43338 6.83687 9.78644 6.83687 10.2684 6.83687 10.6229 6.99847 10.8499 7.32167 11.0767 7.64477 11.1902 8.09157 11.1902 8.66187V12.9799H13.9558V8.35247C13.9556 7.16287 13.6644 6.25997 13.0815 5.64367ZM2.60776 1.0199C2.14265 1.0199 1.76585 1.1517 1.47717 1.4151 1.18849 1.6785 1.04425 2.0111 1.04425 2.4131 1.04425 2.8095 1.18436 3.1409 1.46458 3.407 1.7447 3.6731 2.11458 3.8062 2.57412 3.8062H2.59094C3.06173 3.8062 3.44141 3.6732 3.72999 3.407 4.01857 3.1409 4.16002 2.8096 4.15445 2.4131 4.14888 2.0111 4.00588 1.6785 3.72576 1.4151 3.44564 1.1516 3.07287 1.0199 2.60776 1.0199Z"/></symbol><symbol id="icon-instagram" viewBox="0 0 25 24"><path d="M17.25 0.75H6.75C3.43629 0.75 0.75 3.43629 0.75 6.75V17.25C0.75 20.5637 3.43629 23.25 6.75 23.25H17.25C20.5637 23.25 23.25 20.5637 23.25 17.25V6.75C23.25 3.43629 20.5637 0.75 17.25 0.75Z" stroke-linecap="round" stroke-linejoin="round"/><path d="M12 17C14.7614 17 17 14.7614 17 12 17 9.23858 14.7614 7 12 7 9.23858 7 7 9.23858 7 12 7 14.7614 9.23858 17 12 17ZM19.35 5.15002C19.35 5.28263 19.2973 5.40981 19.2035 5.50358 19.1098 5.59735 18.9826 5.65002 18.85 5.65002 18.7174 5.65002 18.5902 5.59735 18.4964 5.50358 18.4027 5.40981 18.35 5.28263 18.35 5.15002M18.35 5.15002C18.35 5.01742 18.4027 4.89024 18.4964 4.79647 18.5902 4.7027 18.7174 4.65002 18.85 4.65002 18.9826 4.65002 19.1098 4.7027 19.2035 4.79647 19.2973 4.89024 19.35 5.01742 19.35 5.15002" stroke-linecap="round" stroke-linejoin="round"/></symbol><symbol id="icon-instagram-24" viewBox="0 0 24 24"><path fill-rule="evenodd" d="M3.36743 23.4115C3.88314 23.6127 4.65848 23.8502 6.08577 23.9151C7.62862 23.9864 8.09225 24 11.9996 24C15.9085 24 16.3721 23.9857 17.9149 23.9151C19.3422 23.8502 20.1176 23.6127 20.6333 23.4115C21.3166 23.1455 21.8045 22.8288 22.3166 22.3166C22.8288 21.8045 23.1455 21.3173 23.4115 20.634C23.6113 20.1183 23.8502 19.3429 23.9151 17.9157C23.9857 16.3714 24 15.9077 24 12.0004C24 8.09154 23.9857 7.62933 23.9151 6.08506C23.8502 4.65777 23.6127 3.88243 23.4115 3.36672C23.1455 2.68339 22.8295 2.1955 22.3166 1.68336C21.8038 1.17122 21.3166 0.853092 20.6333 0.588463C20.1161 0.388742 19.3422 0.14979 17.9149 0.0848813C16.3707 0.0156923 15.9085 0 11.9996 0C8.09225 0 7.62861 0.0142658 6.08506 0.0848813C4.65777 0.14979 3.88243 0.387315 3.36672 0.588463C2.68268 0.853092 2.1955 1.17122 1.68336 1.68336C1.17193 2.19693 0.854519 2.6841 0.588463 3.36743C0.388742 3.88457 0.14979 4.65848 0.0848813 6.08577C0.0156923 7.63004 0 8.09225 0 12.0011C0 15.9099 0.0142658 16.3728 0.0855946 17.9157C0.150504 19.3429 0.388029 20.1183 0.589176 20.634C0.853806 21.3173 1.17122 21.8045 1.68407 22.3166C2.19693 22.8288 2.6841 23.1455 3.36743 23.4115ZM12.0249 9.07884C10.3835 9.07884 9.05331 10.4098 9.05331 12.0511C9.05331 13.6925 10.3835 15.0234 12.0249 15.0234C13.6662 15.0234 14.9971 13.6925 14.9971 12.0511C14.9971 10.4098 13.6662 9.07884 12.0249 9.07884ZM12.0249 16.6294C9.49626 16.6294 7.44655 14.5797 7.44655 12.0511H7.44663C7.44663 9.52236 9.49626 7.4728 12.0249 7.4728C14.5535 7.4728 16.6032 9.5225 16.6032 12.0511C16.6032 14.5797 14.5535 16.6294 12.0249 16.6294ZM15.8946 7.88576C15.7771 7.70977 15.7145 7.50288 15.7146 7.29127C15.7148 7.00762 15.8276 6.73566 16.0282 6.53513C16.2288 6.3346 16.5008 6.2219 16.7845 6.22176H16.7849C16.9965 6.22185 17.2034 6.28468 17.3793 6.40232C17.5552 6.51995 17.6922 6.68711 17.7731 6.88265C17.854 7.07818 17.8751 7.29332 17.8338 7.50085C17.7924 7.70838 17.6904 7.89898 17.5407 8.04855C17.3911 8.19813 17.2004 8.29995 16.9928 8.34115C16.7852 8.38235 16.5701 8.36108 16.3747 8.28002C16.1792 8.19896 16.0121 8.06176 15.8946 7.88576ZM6.767 19.002C7.08099 19.1243 7.55348 19.2691 8.42276 19.3087V19.3088C9.3623 19.352 9.64384 19.3607 12.0249 19.3607C14.4059 19.3607 14.6882 19.352 15.628 19.3088C16.4973 19.2693 16.9699 19.1245 17.2838 19.0021C17.7001 18.84 17.9975 18.6467 18.3094 18.3352C18.6212 18.0236 18.8142 17.7266 18.9763 17.3103C19.0979 16.9963 19.2434 16.5239 19.283 15.6546C19.3262 14.714 19.3349 14.4324 19.3349 12.0514C19.3349 9.67037 19.3262 9.38883 19.283 8.44822C19.2435 7.57894 19.0987 7.10631 18.9763 6.79247C18.8142 6.37619 18.6216 6.07875 18.3094 5.7669C17.9971 5.45505 17.7001 5.26132 17.2838 5.09998C16.969 4.97872 16.4973 4.83285 15.628 4.79326C14.6874 4.75046 14.4048 4.74126 12.0249 4.74126C9.64491 4.74126 9.36259 4.74989 8.42276 4.79312C7.55348 4.83263 7.08085 4.97743 6.767 5.09983C6.35002 5.26118 6.05329 5.45448 5.74144 5.76676C5.42959 6.07903 5.23657 6.37605 5.07451 6.79232C4.95326 7.1071 4.80739 7.57879 4.7678 8.44808C4.72529 9.38869 4.71594 9.67023 4.71594 12.0513C4.71594 14.4323 4.72458 14.7146 4.7678 15.6544C4.80732 16.5237 4.95211 16.9963 5.07451 17.3102C5.23586 17.7265 5.42916 18.0232 5.74144 18.335C6.05372 18.6469 6.35073 18.8399 6.767 19.002ZM6.18475 3.60314C6.75117 3.38273 7.39976 3.23223 8.34893 3.18901H8.34929C9.30046 3.14507 9.60496 3.13501 12.0259 3.13501C14.4469 3.13501 14.7507 3.14557 15.7015 3.18901C16.65 3.23152 17.2982 3.38273 17.8657 3.60314C18.4512 3.83075 18.949 4.13532 19.4444 4.63156C19.9399 5.12779 20.2446 5.62474 20.4728 6.21099C20.6932 6.77741 20.8437 7.42594 20.887 8.37518C20.9302 9.32585 20.9402 9.62978 20.9402 12.0511C20.9402 14.4724 20.9302 14.7757 20.887 15.727C20.8445 16.6762 20.6932 17.3244 20.4728 17.8912C20.2446 18.4775 19.9406 18.9752 19.4444 19.4707C18.9482 19.9661 18.4512 20.2708 17.865 20.4991C17.2982 20.7195 16.65 20.87 15.7008 20.9132C14.7501 20.9572 14.4462 20.9672 12.0249 20.9672C9.60354 20.9672 9.3001 20.9564 8.34893 20.9132C7.39976 20.87 6.75224 20.7195 6.18475 20.4991C5.59778 20.2708 5.10148 19.9659 4.60531 19.4707C4.10915 18.9754 3.80451 18.4775 3.5769 17.8912C3.35649 17.3244 3.20599 16.6763 3.16276 15.727C3.11882 14.7764 3.10876 14.4724 3.10876 12.0511C3.10876 9.62978 3.11882 9.32585 3.16276 8.37518C3.20599 7.42601 3.35649 6.77777 3.5769 6.21099C3.80451 5.62403 4.10908 5.12701 4.60531 4.63156C5.10155 4.13611 5.5985 3.83075 6.18475 3.60314Z"/></symbol><symbol id="icon-instagram-14" viewBox="0 0 14 14"><path fill-rule="evenodd" d="M7 10.5C8.93299 10.5 10.5 8.93299 10.5 7C10.5 5.067 8.93299 3.5 7 3.5C5.067 3.5 3.5 5.067 3.5 7C3.5 8.93299 5.067 10.5 7 10.5ZM7 9.33333C8.28864 9.33333 9.33333 8.28864 9.33333 7C9.33333 5.71133 8.28864 4.66667 7 4.66667C5.71133 4.66667 4.66667 5.71133 4.66667 7C4.66667 8.28864 5.71133 9.33333 7 9.33333Z"/><path d="M10.5 2.91669C10.1778 2.91669 9.91663 3.17786 9.91663 3.50002C9.91663 3.82218 10.1778 4.08335 10.5 4.08335C10.8221 4.08335 11.0833 3.82218 11.0833 3.50002C11.0833 3.17786 10.8221 2.91669 10.5 2.91669Z"/><path fill-rule="evenodd" d="M0.964851 2.49435C0.583374 3.24304 0.583374 4.22313 0.583374 6.18331V7.81665C0.583374 9.77682 0.583374 10.7569 0.964851 11.5056C1.30041 12.1642 1.83584 12.6996 2.49441 13.0351C3.2431 13.4166 4.22319 13.4166 6.18337 13.4166H7.81671C9.77688 13.4166 10.757 13.4166 11.5056 13.0351C12.1642 12.6996 12.6997 12.1642 13.0352 11.5056C13.4167 10.7569 13.4167 9.77682 13.4167 7.81665V6.18331C13.4167 4.22313 13.4167 3.24304 13.0352 2.49435C12.6997 1.83578 12.1642 1.30035 11.5056 0.96479C10.757 0.583313 9.77688 0.583313 7.81671 0.583313H6.18337C4.22319 0.583313 3.2431 0.583313 2.49441 0.96479C1.83584 1.30035 1.30041 1.83578 0.964851 2.49435ZM7.81671 1.74998H6.18337C5.18403 1.74998 4.50469 1.75089 3.97959 1.79379C3.4681 1.83558 3.20653 1.91132 3.02406 2.0043C2.58502 2.228 2.22806 2.58496 2.00436 3.024C1.91138 3.20647 1.83564 3.46804 1.79385 3.97953C1.75095 4.50463 1.75004 5.18397 1.75004 6.18331V7.81665C1.75004 8.81601 1.75095 9.4953 1.79385 10.0204C1.83564 10.5319 1.91138 10.7935 2.00436 10.976C2.22806 11.415 2.58502 11.7719 3.02406 11.9956C3.20653 12.0886 3.4681 12.1644 3.97959 12.2062C4.50469 12.249 5.18403 12.25 6.18337 12.25H7.81671C8.81607 12.25 9.49537 12.249 10.0205 12.2062C10.532 12.1644 10.7936 12.0886 10.976 11.9956C11.4151 11.7719 11.772 11.415 11.9957 10.976C12.0887 10.7935 12.1645 10.5319 12.2062 10.0204C12.2491 9.4953 12.25 8.81601 12.25 7.81665V6.18331C12.25 5.18397 12.2491 4.50463 12.2062 3.97953C12.1645 3.46804 12.0887 3.20647 11.9957 3.024C11.772 2.58496 11.4151 2.228 10.976 2.0043C10.7936 1.91132 10.532 1.83558 10.0205 1.79379C9.49537 1.75089 8.81607 1.74998 7.81671 1.74998Z"/></symbol><symbol id="icon-instagram-14-old" viewBox="0 0 14 14"><path fill-rule="evenodd" d="M11.6155 1H2.3845C1.62 1 1 1.62 1 2.3845V11.6145C1 12.38 1.62 13 2.3845 13H11.616C12.3805 13 13 12.38 13 11.6145V2.3845C13 1.62 12.3805 1 11.6155 1ZM7 4.6925C8.2745 4.6925 9.308 5.725 9.308 7C9.308 8.2745 8.2745 9.308 7 9.308C5.7255 9.308 4.6925 8.274 4.6925 7C4.6925 5.725 5.7255 4.6925 7 4.6925ZM11.5 11.039C11.5 11.2935 11.2935 11.5 11.038 11.5H2.962C2.7065 11.5 2.5 11.2935 2.5 11.039V6H3.4485C3.4045 6.1575 3.372 6.32 3.3485 6.4855C3.3235 6.654 3.308 6.825 3.308 7C3.308 9.0395 4.961 10.6925 7 10.6925C9.039 10.6925 10.692 9.0395 10.692 7C10.692 6.825 10.6765 6.654 10.6515 6.486C10.628 6.3205 10.5955 6.158 10.5515 6.0005H11.5V11.039ZM11.5 4.049C11.5 4.3035 11.2935 4.5105 11.038 4.5105H9.951C9.6955 4.5105 9.4895 4.3035 9.4895 4.049V2.9615C9.4895 2.7065 9.6955 2.5 9.951 2.5H11.038C11.2935 2.5 11.5 2.7065 11.5 2.9615V4.049Z"/></symbol><symbol id="icon-google" viewBox="0 0 24 24"><path d="M18.1 14.7H13.47V10.53H23.25V12.59C23.1081 15.1846 22.0739 17.6505 20.3226 19.5702 18.5713 21.4898 16.2104 22.7453 13.6396 23.1241 11.0689 23.5029 8.44619 22.9817 6.21562 21.6487 3.98504 20.3158 2.28361 18.2529 1.39938 15.8095.51514 13.3661.502428 10.6921 1.36339 8.24041 2.22435 5.78867 3.90609 3.70977 6.12389 2.35566 8.34169 1.00155 10.9593.45543 13.5335.80975 16.1078 1.16407 18.4805 2.39707 20.25 4.29999L16.85 7.42999C16.2295 6.76516 15.4785 6.2355 14.644 5.87416 13.8095 5.51282 12.9094 5.32757 12 5.32999 10.799 5.33015 9.62029 5.6546 8.58837 6.26906 7.55645 6.88353 6.70958 7.76522 6.13717 8.82105 5.56477 9.87688 5.28806 11.0677 5.33627 12.2677 5.38448 13.4678 5.75581 14.6325 6.41107 15.639 7.06632 16.6456 7.98119 17.4565 9.05907 17.9862 10.137 18.5159 11.3379 18.7447 12.535 18.6486 13.7322 18.5524 14.8812 18.1348 15.8607 17.4398 16.8401 16.7448 17.6138 15.7982 18.1 14.7ZM6.17997 8.71003 2.58997 5.84003M6.19 15.32 2.75 18.42M15.92 17.39 18.99 20.84" stroke-linecap="round" stroke-linejoin="round"/></symbol><symbol id="icon-google-14" viewBox="0 0 14 14"><path d="M12.9677 8.1435C12.9247 8.0577 12.8356 8.00339 12.738 8.00358H9.37525C9.31595 8.00276 9.25821 8.0222 9.21196 8.05855L7.96686 9.05797C7.88185 9.12474 7.84952 9.237 7.88639 9.33742C7.92326 9.43784 8.02119 9.50424 8.13015 9.50271H10.1713V11.2767C10.1713 11.3366 10.1713 11.3866 10.1713 11.4316C10.1083 11.4605 10.0436 11.4856 9.97739 11.5065C9.29134 11.6684 8.58257 11.7174 7.88011 11.6515C5.60512 11.4172 3.77627 9.71247 3.4253 7.49888C2.98879 5.53439 3.93671 3.52483 5.74711 2.57674C6.6395 2.12014 7.68129 2.03198 8.64044 2.33188C9.27624 2.53598 9.857 2.87755 10.3397 3.3313L10.059 3.86599C10.003 3.94937 10.003 4.05744 10.059 4.14083C10.1224 4.2214 10.2301 4.25522 10.3295 4.22578L11.0796 4.00091C11.1221 3.98914 11.1608 3.96676 11.1919 3.93595L12.34 2.79161C12.3901 2.74101 12.4161 2.67205 12.4115 2.60172C12.4079 2.5318 12.3746 2.46654 12.3196 2.42183C10.3499 0.847741 6.93097 0.532924 4.53262 1.71724C2.49003 2.69493 1.14146 4.67204 1.00144 6.89423C0.956394 8.93385 1.97337 10.856 3.70086 11.9963C4.86693 12.6957 6.21756 13.0433 7.58414 12.9957C9.14729 13.0012 10.6913 12.6595 12.1002 11.9963C12.1858 11.9528 12.2391 11.8658 12.238 11.7714V9.30783L12.9575 8.40335C13.0103 8.32543 13.0142 8.22516 12.9677 8.1435Z"/></symbol><symbol id="icon-facebook" viewBox="0 0 24 24"><path d="M18.13 7.74999H13.87V5.83999C13.856 5.70051 13.8714 5.55965 13.9154 5.42653C13.9593 5.29342 14.0307 5.17103 14.125 5.0673C14.2193 4.96358 14.3344 4.88084 14.4627 4.82445C14.5911 4.76806 14.7298 4.73929 14.87 4.73999H17.87V0.73999H13.54C9.61 0.73999 8.87 3.73999 8.87 5.59999V7.74999H5.87V11.75H8.87V23.25H13.87V11.75H17.72L18.13 7.74999Z" stroke-linecap="round" stroke-linejoin="round"/></symbol><symbol id="icon-facebook-24" viewBox="0 0 24 24"><path d="M24.045 12C24.045 5.34722 18.6528 -0.0449829 12 -0.0449829C5.34716 -0.0449829 -0.0450439 5.34722 -0.0450439 12C-0.0450439 18.0126 4.35716 22.9956 10.119 23.8998V15.4848H7.06316V12H10.119V9.34682C10.119 6.33062 11.9142 4.66082 14.6664 4.66082C15.9864 4.66082 17.3658 4.89842 17.3658 4.89842V7.86182H15.8478C14.3496 7.86182 13.8876 8.79242 13.8876 9.74282V12H17.2272L16.6926 15.4848H13.8876V23.8998C19.6428 22.9956 24.045 18.0126 24.045 12Z"/></symbol><symbol id="icon-facebook-14" viewBox="0 0 14 14"><path fill-rule="evenodd" d="M7.95661 5.33333L7.95661 3.86022C7.95661 3.35351 8.66667 3.16667 8.66667 3.16667H10V1H7.9812C5.77664 1 5.33333 2.79702 5.33333 3.86022V5.33333H4V7.50484L5.33333 7.50484C5.33333 10.4506 5.33333 13 5.33333 13H7.95661C7.95661 13 7.95661 10.4156 7.95661 7.50484H9.76613L9.96712 5.33333H7.95661Z"/></symbol><symbol id="icon-chrome-14" viewBox="0 0 14 14"><path fill-rule="evenodd" d="M2.44851 3.09052C3.66352 1.67651 5.33003 1 6.98455 1C9.12856 1 11.2521 2.13651 12.3431 4.27703C10.9821 4.27753 8.85106 4.27703 7.69655 4.27703C6.85955 4.27753 6.31904 4.25853 5.73354 4.56653C5.04553 4.92853 4.52603 5.60004 4.34503 6.38854L2.44851 3.09052ZM5.00353 7.00005C5.00353 8.10006 5.89804 8.99506 6.99755 8.99506C8.09705 8.99506 8.99156 8.10006 8.99156 7.00005C8.99156 5.90004 8.09705 5.00453 6.99755 5.00453C5.89804 5.00453 5.00353 5.90004 5.00353 7.00005ZM7.77155 9.61157C6.65254 9.94457 5.34253 9.57507 4.62503 8.33706C4.07752 7.39155 2.63051 4.87053 1.97251 3.72452C1.3075 4.74453 1 5.87154 1 6.97805C1 9.70207 2.86301 12.3031 5.83654 12.8871L7.77155 9.61157ZM8.85056 5.00453C9.78257 5.87154 9.98607 7.27555 9.35406 8.36406C8.87856 9.18456 7.36005 11.7471 6.62404 12.9881C10.2186 13.2096 13.0001 10.3081 13.0001 7.00205C13.0001 6.34554 12.8901 5.67204 12.6551 5.00453H8.85056Z"/></symbol><symbol id="icon-apple-14" viewBox="0 0 14 14"><path fill-rule="evenodd" d="M12.0003 9.80378C11.6073 10.9438 10.4308 12.9624 9.21873 12.9844C8.41471 12.9999 8.1562 12.5079 7.23717 12.5079C6.31864 12.5079 6.03113 12.9694 5.27111 12.9994C3.98506 13.0489 2 10.0858 2 7.50171C2 5.12813 3.65405 3.9516 5.0991 3.93009C5.87413 3.91609 6.60615 4.45261 7.07866 4.45261C7.55318 4.45261 8.44221 3.80759 9.37674 3.90209C9.76775 3.91859 10.8663 4.0596 11.5713 5.09063C9.70075 6.31167 9.99226 8.86525 12.0003 9.80378ZM9.38924 1C7.97619 1.057 6.82316 2.53955 6.98416 3.76559C8.2902 3.86709 9.54324 2.40305 9.38924 1Z"/></symbol></svg>