<svg xmlns="http://www.w3.org/2000/svg" xmlns:xlink="http://www.w3.org/1999/xlink"><defs/><symbol id="icon-stars-all" viewBox="0 0 90 18"><path d="M16.7988 6.77435C16.7261 6.57896 16.5955 6.41041 16.4245 6.2912 16.2534 6.17198 16.0501 6.10778 15.8416 6.10716H11.6976C11.627 6.10721 11.5582 6.08536 11.5007 6.04463 11.4431 6.0039 11.3996 5.94629 11.3762 5.87978L9.88866 1.66356C9.8158 1.46868 9.68515 1.30072 9.51421 1.18213 9.34326 1.06354 9.14018 1 8.93213 1 8.72408 1 8.521 1.06354 8.35005 1.18213 8.17911 1.30072 8.04846 1.46868 7.9756 1.66356L7.9722 1.67445 6.48805 5.87978C6.46467 5.94618 6.42128 6.00371 6.36386 6.04443 6.30643 6.08516 6.23779 6.10707 6.16739 6.10716H2.02197C1.81216 6.10701 1.60739 6.17148 1.43552 6.29181 1.26364 6.41214 1.133 6.5825 1.06137 6.7797.989731 6.9769.980576 7.19139 1.03515 7.39398 1.08972 7.59657 1.20536 7.77743 1.36636 7.91197L4.89565 10.8394C4.94844 10.8832 4.98676 10.942 5.00559 11.0079 5.02442 11.0739 5.02288 11.144 5.00117 11.2091L3.51838 15.6554C3.44985 15.861 3.4485 16.0831 3.51452 16.2895 3.58053 16.4959 3.71049 16.6759 3.8856 16.8036 4.06071 16.9312 4.27189 16.9999 4.48859 16.9996 4.70529 16.9993 4.91628 16.9301 5.09104 16.8019L8.73061 14.1332C8.78897 14.0904 8.85944 14.0674 8.93179 14.0674 9.00414 14.0674 9.07461 14.0904 9.13297 14.1332L12.7712 16.8012C12.9459 16.9298 13.1569 16.9994 13.3738 17 13.5907 17.0006 13.8022 16.9321 13.9775 16.8044 14.1529 16.6768 14.2831 16.4966 14.3492 16.29 14.4153 16.0834 14.4139 15.8612 14.3452 15.6554L12.8624 11.2064C12.8407 11.1413 12.8392 11.0712 12.858 11.0052 12.8768 10.9393 12.9151 10.8805 12.9679 10.8367L16.504 7.90517C16.663 7.76948 16.7764 7.58831 16.8292 7.38609 16.8819 7.18388 16.8713 6.97036 16.7988 6.77435ZM34.7988 6.77435C34.7261 6.57896 34.5955 6.41041 34.4245 6.2912 34.2534 6.17198 34.0501 6.10778 33.8416 6.10716H29.6976C29.627 6.10721 29.5582 6.08536 29.5007 6.04463 29.4431 6.0039 29.3996 5.94629 29.3762 5.87978L27.8887 1.66356C27.8158 1.46868 27.6852 1.30072 27.5142 1.18213 27.3433 1.06354 27.1402 1 26.9321 1 26.7241 1 26.521 1.06354 26.3501 1.18213 26.1791 1.30072 26.0485 1.46868 25.9756 1.66356L25.9722 1.67445 24.488 5.87978C24.4647 5.94618 24.4213 6.00371 24.3639 6.04443 24.3064 6.08516 24.2378 6.10707 24.1674 6.10716H20.022C19.8122 6.10701 19.6074 6.17148 19.4355 6.29181 19.2636 6.41214 19.133 6.5825 19.0614 6.7797 18.9897 6.9769 18.9806 7.19139 19.0351 7.39398 19.0897 7.59657 19.2054 7.77743 19.3664 7.91197L22.8956 10.8394C22.9484 10.8832 22.9868 10.942 23.0056 11.0079 23.0244 11.0739 23.0229 11.144 23.0012 11.2091L21.5184 15.6554C21.4499 15.861 21.4485 16.0831 21.5145 16.2895 21.5805 16.4959 21.7105 16.6759 21.8856 16.8036 22.0607 16.9312 22.2719 16.9999 22.4886 16.9996 22.7053 16.9993 22.9163 16.9301 23.091 16.8019L26.7306 14.1332C26.789 14.0904 26.8594 14.0674 26.9318 14.0674 27.0041 14.0674 27.0746 14.0904 27.133 14.1332L30.7712 16.8012C30.9459 16.9298 31.1569 16.9994 31.3738 17 31.5907 17.0006 31.8022 16.9321 31.9775 16.8044 32.1529 16.6768 32.2831 16.4966 32.3492 16.29 32.4153 16.0834 32.4139 15.8612 32.3452 15.6554L30.8624 11.2064C30.8407 11.1413 30.8392 11.0712 30.858 11.0052 30.8768 10.9393 30.9151 10.8805 30.9679 10.8367L34.504 7.90517C34.663 7.76948 34.7764 7.58831 34.8292 7.38609 34.8819 7.18388 34.8713 6.97036 34.7988 6.77435ZM52.7988 6.77435C52.7261 6.57896 52.5955 6.41041 52.4245 6.2912 52.2534 6.17198 52.0501 6.10778 51.8416 6.10716H47.6976C47.627 6.10721 47.5582 6.08536 47.5007 6.04463 47.4431 6.0039 47.3996 5.94629 47.3762 5.87978L45.8887 1.66356C45.8158 1.46868 45.6852 1.30072 45.5142 1.18213 45.3433 1.06354 45.1402 1 44.9321 1 44.7241 1 44.521 1.06354 44.3501 1.18213 44.1791 1.30072 44.0485 1.46868 43.9756 1.66356L43.9722 1.67445 42.488 5.87978C42.4647 5.94618 42.4213 6.00371 42.3639 6.04443 42.3064 6.08516 42.2378 6.10707 42.1674 6.10716H38.022C37.8122 6.10701 37.6074 6.17148 37.4355 6.29181 37.2636 6.41214 37.133 6.5825 37.0614 6.7797 36.9897 6.9769 36.9806 7.19139 37.0351 7.39398 37.0897 7.59657 37.2054 7.77743 37.3664 7.91197L40.8956 10.8394C40.9484 10.8832 40.9868 10.942 41.0056 11.0079 41.0244 11.0739 41.0229 11.144 41.0012 11.2091L39.5184 15.6554C39.4499 15.861 39.4485 16.0831 39.5145 16.2895 39.5805 16.4959 39.7105 16.6759 39.8856 16.8036 40.0607 16.9312 40.2719 16.9999 40.4886 16.9996 40.7053 16.9993 40.9163 16.9301 41.091 16.8019L44.7306 14.1332C44.789 14.0904 44.8594 14.0674 44.9318 14.0674 45.0041 14.0674 45.0746 14.0904 45.133 14.1332L48.7712 16.8012C48.9459 16.9298 49.1569 16.9994 49.3738 17 49.5907 17.0006 49.8022 16.9321 49.9775 16.8044 50.1529 16.6768 50.2831 16.4966 50.3492 16.29 50.4153 16.0834 50.4139 15.8612 50.3452 15.6554L48.8624 11.2064C48.8407 11.1413 48.8392 11.0712 48.858 11.0052 48.8768 10.9393 48.9151 10.8805 48.9679 10.8367L52.504 7.90517C52.663 7.76948 52.7764 7.58831 52.8292 7.38609 52.8819 7.18388 52.8713 6.97036 52.7988 6.77435ZM70.7988 6.77435C70.7261 6.57896 70.5955 6.41041 70.4245 6.2912 70.2534 6.17198 70.0501 6.10778 69.8416 6.10716H65.6976C65.627 6.10721 65.5582 6.08536 65.5007 6.04463 65.4431 6.0039 65.3996 5.94629 65.3762 5.87978L63.8887 1.66356C63.8158 1.46868 63.6852 1.30072 63.5142 1.18213 63.3433 1.06354 63.1402 1 62.9321 1 62.7241 1 62.521 1.06354 62.3501 1.18213 62.1791 1.30072 62.0485 1.46868 61.9756 1.66356L61.9722 1.67445 60.488 5.87978C60.4647 5.94618 60.4213 6.00371 60.3639 6.04443 60.3064 6.08516 60.2378 6.10707 60.1674 6.10716H56.022C55.8122 6.10701 55.6074 6.17148 55.4355 6.29181 55.2636 6.41214 55.133 6.5825 55.0614 6.7797 54.9897 6.9769 54.9806 7.19139 55.0351 7.39398 55.0897 7.59657 55.2054 7.77743 55.3664 7.91197L58.8956 10.8394C58.9484 10.8832 58.9868 10.942 59.0056 11.0079 59.0244 11.0739 59.0229 11.144 59.0012 11.2091L57.5184 15.6554C57.4499 15.861 57.4485 16.0831 57.5145 16.2895 57.5805 16.4959 57.7105 16.6759 57.8856 16.8036 58.0607 16.9312 58.2719 16.9999 58.4886 16.9996 58.7053 16.9993 58.9163 16.9301 59.091 16.8019L62.7306 14.1332C62.789 14.0904 62.8594 14.0674 62.9318 14.0674 63.0041 14.0674 63.0746 14.0904 63.133 14.1332L66.7712 16.8012C66.9459 16.9298 67.1569 16.9994 67.3738 17 67.5907 17.0006 67.8022 16.9321 67.9775 16.8044 68.1529 16.6768 68.2831 16.4966 68.3492 16.29 68.4153 16.0834 68.4139 15.8612 68.3452 15.6554L66.8624 11.2064C66.8407 11.1413 66.8392 11.0712 66.858 11.0052 66.8768 10.9393 66.9151 10.8805 66.9679 10.8367L70.504 7.90517C70.663 7.76948 70.7764 7.58831 70.8292 7.38609 70.8819 7.18388 70.8713 6.97036 70.7988 6.77435ZM88.7988 6.77435C88.7261 6.57896 88.5955 6.41041 88.4245 6.2912 88.2534 6.17198 88.0501 6.10778 87.8416 6.10716H83.6976C83.627 6.10721 83.5582 6.08536 83.5007 6.04463 83.4431 6.0039 83.3996 5.94629 83.3762 5.87978L81.8887 1.66356C81.8158 1.46868 81.6852 1.30072 81.5142 1.18213 81.3433 1.06354 81.1402 1 80.9321 1 80.7241 1 80.521 1.06354 80.3501 1.18213 80.1791 1.30072 80.0485 1.46868 79.9756 1.66356L79.9722 1.67445 78.488 5.87978C78.4647 5.94618 78.4213 6.00371 78.3639 6.04443 78.3064 6.08516 78.2378 6.10707 78.1674 6.10716H74.022C73.8122 6.10701 73.6074 6.17148 73.4355 6.29181 73.2636 6.41214 73.133 6.5825 73.0614 6.7797 72.9897 6.9769 72.9806 7.19139 73.0351 7.39398 73.0897 7.59657 73.2054 7.77743 73.3664 7.91197L76.8956 10.8394C76.9484 10.8832 76.9868 10.942 77.0056 11.0079 77.0244 11.0739 77.0229 11.144 77.0012 11.2091L75.5184 15.6554C75.4499 15.861 75.4485 16.0831 75.5145 16.2895 75.5805 16.4959 75.7105 16.6759 75.8856 16.8036 76.0607 16.9312 76.2719 16.9999 76.4886 16.9996 76.7053 16.9993 76.9163 16.9301 77.091 16.8019L80.7306 14.1332C80.789 14.0904 80.8594 14.0674 80.9318 14.0674 81.0041 14.0674 81.0746 14.0904 81.133 14.1332L84.7712 16.8012C84.9459 16.9298 85.1569 16.9994 85.3738 17 85.5907 17.0006 85.8022 16.9321 85.9775 16.8044 86.1529 16.6768 86.2831 16.4966 86.3492 16.29 86.4153 16.0834 86.4139 15.8612 86.3452 15.6554L84.8624 11.2064C84.8407 11.1413 84.8392 11.0712 84.858 11.0052 84.8768 10.9393 84.9151 10.8805 84.9679 10.8367L88.504 7.90517C88.663 7.76948 88.7764 7.58831 88.8292 7.38609 88.8819 7.18388 88.8713 6.97036 88.7988 6.77435Z"/></symbol><symbol id="icon-stars-all-old" viewBox="0 0 80 16"><path fill-rule="evenodd" d="M16 6.4 10 5.33333 8 0 6 5.33333 0 6.4 4 10.6667 3 16 8 12.8 13 16 12 10.6667 16 6.4ZM32 6.4 26 5.33333 24 0 22 5.33333 16 6.4 20 10.6667 19 16 24 12.8 29 16 28 10.6667 32 6.4ZM48 6.4 42 5.33333 40 0 38 5.33333 32 6.4 36 10.6667 35 16 40 12.8 45 16 44 10.6667 48 6.4ZM64 6.4 58 5.33333 56 0 54 5.33333 48 6.4 52 10.6667 51 16 56 12.8 61 16 60 10.6667 64 6.4ZM80 6.4 74 5.33333 72 0 70 5.33333 64 6.4 68 10.6667 67 16 72 12.8 77 16 76 10.6667 80 6.4Z"/></symbol><symbol id="icon-stars-all-14" viewBox="0 0 70 14"><path d="M12.1992 5.51624C12.1507 5.38598 12.0637 5.27361 11.9496 5.19413 11.8356 5.11466 11.7001 5.07186 11.5611 5.07144H8.79837C8.75136 5.07148 8.7055 5.05691 8.66712 5.02976 8.62875 5.0026 8.59975 4.9642 8.58415 4.91985L7.59244 2.10904C7.54387 1.97912 7.45677 1.86715 7.34281 1.78809 7.22884 1.70903 7.09345 1.66667 6.95476 1.66667 6.81606 1.66667 6.68067 1.70903 6.5667 1.78809 6.45274 1.86715 6.36564 1.97912 6.31707 2.10904L6.3148 2.1163 5.32537 4.91985C5.30978 4.96412 5.28086 5.00248 5.24257 5.02962 5.20429 5.05677 5.15853 5.07138 5.11159 5.07144H2.34798C2.20811 5.07134 2.0716 5.11432 1.95701 5.19454 1.84243 5.27476 1.75534 5.38833 1.70758 5.5198 1.65982 5.65127 1.65372 5.79426 1.6901 5.92932 1.72648 6.06438 1.80358 6.18496 1.91091 6.27465L4.26377 8.22629C4.29896 8.2555 4.32451 8.29465 4.33706 8.33863 4.34962 8.38261 4.34859 8.42936 4.33411 8.47274L3.34559 11.437C3.2999 11.574 3.299 11.722 3.34301 11.8596 3.38702 11.9972 3.47366 12.1173 3.5904 12.2024 3.70714 12.2875 3.84793 12.3333 3.9924 12.3331 4.13686 12.3329 4.27752 12.2867 4.39403 12.2013L6.82041 10.4221C6.85932 10.3936 6.9063 10.3782 6.95453 10.3782 7.00276 10.3782 7.04974 10.3936 7.08865 10.4221L9.51412 12.2008C9.63058 12.2865 9.7713 12.333 9.9159 12.3333 10.0605 12.3337 10.2015 12.288 10.3184 12.2029 10.4353 12.1178 10.522 11.9977 10.5661 11.86 10.6102 11.7223 10.6093 11.5741 10.5635 11.437L9.57494 8.47092C9.56047 8.42754 9.55944 8.3808 9.57199 8.33682 9.58455 8.29284 9.6101 8.25368 9.64529 8.22447L12.0027 6.27011C12.1086 6.17966 12.1843 6.05887 12.2194 5.92406 12.2546 5.78925 12.2475 5.64691 12.1992 5.51624ZM26.1992 5.51624C26.1507 5.38598 26.0637 5.27361 25.9496 5.19413 25.8356 5.11466 25.7001 5.07186 25.5611 5.07144H22.7984C22.7514 5.07148 22.7055 5.05691 22.6671 5.02976 22.6287 5.0026 22.5998 4.9642 22.5841 4.91985L21.5924 2.10904C21.5439 1.97912 21.4568 1.86715 21.3428 1.78809 21.2288 1.70903 21.0935 1.66667 20.9548 1.66667 20.8161 1.66667 20.6807 1.70903 20.5667 1.78809 20.4527 1.86715 20.3656 1.97912 20.3171 2.10904L20.3148 2.1163 19.3254 4.91985C19.3098 4.96412 19.2809 5.00248 19.2426 5.02962 19.2043 5.05677 19.1585 5.07138 19.1116 5.07144H16.348C16.2081 5.07134 16.0716 5.11432 15.957 5.19454 15.8424 5.27476 15.7553 5.38833 15.7076 5.5198 15.6598 5.65127 15.6537 5.79426 15.6901 5.92932 15.7265 6.06438 15.8036 6.18496 15.9109 6.27465L18.2638 8.22629C18.299 8.2555 18.3245 8.29465 18.3371 8.33863 18.3496 8.38261 18.3486 8.42936 18.3341 8.47274L17.3456 11.437C17.2999 11.574 17.299 11.722 17.343 11.8596 17.387 11.9972 17.4737 12.1173 17.5904 12.2024 17.7071 12.2875 17.8479 12.3333 17.9924 12.3331 18.1369 12.3329 18.2775 12.2867 18.394 12.2013L20.8204 10.4221C20.8593 10.3936 20.9063 10.3782 20.9545 10.3782 21.0028 10.3782 21.0497 10.3936 21.0886 10.4221L23.5141 12.2008C23.6306 12.2865 23.7713 12.333 23.9159 12.3333 24.0605 12.3337 24.2015 12.288 24.3184 12.2029 24.4353 12.1178 24.522 11.9977 24.5661 11.86 24.6102 11.7223 24.6093 11.5741 24.5635 11.437L23.5749 8.47092C23.5605 8.42754 23.5594 8.3808 23.572 8.33682 23.5845 8.29284 23.6101 8.25368 23.6453 8.22447L26.0027 6.27011C26.1086 6.17966 26.1843 6.05887 26.2194 5.92406 26.2546 5.78925 26.2475 5.64691 26.1992 5.51624ZM40.1992 5.51624C40.1507 5.38598 40.0637 5.27361 39.9496 5.19413 39.8356 5.11466 39.7001 5.07186 39.5611 5.07144H36.7984C36.7514 5.07148 36.7055 5.05691 36.6671 5.02976 36.6287 5.0026 36.5998 4.9642 36.5841 4.91985L35.5924 2.10904C35.5439 1.97912 35.4568 1.86715 35.3428 1.78809 35.2288 1.70903 35.0935 1.66667 34.9548 1.66667 34.8161 1.66667 34.6807 1.70903 34.5667 1.78809 34.4527 1.86715 34.3656 1.97912 34.3171 2.10904L34.3148 2.1163 33.3254 4.91985C33.3098 4.96412 33.2809 5.00248 33.2426 5.02962 33.2043 5.05677 33.1585 5.07138 33.1116 5.07144H30.348C30.2081 5.07134 30.0716 5.11432 29.957 5.19454 29.8424 5.27476 29.7553 5.38833 29.7076 5.5198 29.6598 5.65127 29.6537 5.79426 29.6901 5.92932 29.7265 6.06438 29.8036 6.18496 29.9109 6.27465L32.2638 8.22629C32.299 8.2555 32.3245 8.29465 32.3371 8.33863 32.3496 8.38261 32.3486 8.42936 32.3341 8.47274L31.3456 11.437C31.2999 11.574 31.299 11.722 31.343 11.8596 31.387 11.9972 31.4737 12.1173 31.5904 12.2024 31.7071 12.2875 31.8479 12.3333 31.9924 12.3331 32.1369 12.3329 32.2775 12.2867 32.394 12.2013L34.8204 10.4221C34.8593 10.3936 34.9063 10.3782 34.9545 10.3782 35.0028 10.3782 35.0497 10.3936 35.0886 10.4221L37.5141 12.2008C37.6306 12.2865 37.7713 12.333 37.9159 12.3333 38.0605 12.3337 38.2015 12.288 38.3184 12.2029 38.4353 12.1178 38.522 11.9977 38.5661 11.86 38.6102 11.7223 38.6093 11.5741 38.5635 11.437L37.5749 8.47092C37.5605 8.42754 37.5594 8.3808 37.572 8.33682 37.5845 8.29284 37.6101 8.25368 37.6453 8.22447L40.0027 6.27011C40.1086 6.17966 40.1843 6.05887 40.2194 5.92406 40.2546 5.78925 40.2475 5.64691 40.1992 5.51624ZM54.1992 5.51624C54.1507 5.38598 54.0637 5.27361 53.9496 5.19413 53.8356 5.11466 53.7001 5.07186 53.5611 5.07144H50.7984C50.7514 5.07148 50.7055 5.05691 50.6671 5.02976 50.6287 5.0026 50.5998 4.9642 50.5841 4.91985L49.5924 2.10904C49.5439 1.97912 49.4568 1.86715 49.3428 1.78809 49.2288 1.70903 49.0935 1.66667 48.9548 1.66667 48.8161 1.66667 48.6807 1.70903 48.5667 1.78809 48.4527 1.86715 48.3656 1.97912 48.3171 2.10904L48.3148 2.1163 47.3254 4.91985C47.3098 4.96412 47.2809 5.00248 47.2426 5.02962 47.2043 5.05677 47.1585 5.07138 47.1116 5.07144H44.348C44.2081 5.07134 44.0716 5.11432 43.957 5.19454 43.8424 5.27476 43.7553 5.38833 43.7076 5.5198 43.6598 5.65127 43.6537 5.79426 43.6901 5.92932 43.7265 6.06438 43.8036 6.18496 43.9109 6.27465L46.2638 8.22629C46.299 8.2555 46.3245 8.29465 46.3371 8.33863 46.3496 8.38261 46.3486 8.42936 46.3341 8.47274L45.3456 11.437C45.2999 11.574 45.299 11.722 45.343 11.8596 45.387 11.9972 45.4737 12.1173 45.5904 12.2024 45.7071 12.2875 45.8479 12.3333 45.9924 12.3331 46.1369 12.3329 46.2775 12.2867 46.394 12.2013L48.8204 10.4221C48.8593 10.3936 48.9063 10.3782 48.9545 10.3782 49.0028 10.3782 49.0497 10.3936 49.0886 10.4221L51.5141 12.2008C51.6306 12.2865 51.7713 12.333 51.9159 12.3333 52.0605 12.3337 52.2015 12.288 52.3184 12.2029 52.4353 12.1178 52.522 11.9977 52.5661 11.86 52.6102 11.7223 52.6093 11.5741 52.5635 11.437L51.5749 8.47092C51.5605 8.42754 51.5594 8.3808 51.572 8.33682 51.5845 8.29284 51.6101 8.25368 51.6453 8.22447L54.0027 6.27011C54.1086 6.17966 54.1843 6.05887 54.2194 5.92406 54.2546 5.78925 54.2475 5.64691 54.1992 5.51624ZM68.1992 5.51624C68.1507 5.38598 68.0637 5.27361 67.9496 5.19413 67.8356 5.11466 67.7001 5.07186 67.5611 5.07144H64.7984C64.7514 5.07148 64.7055 5.05691 64.6671 5.02976 64.6287 5.0026 64.5998 4.9642 64.5841 4.91985L63.5924 2.10904C63.5439 1.97912 63.4568 1.86715 63.3428 1.78809 63.2288 1.70903 63.0935 1.66667 62.9548 1.66667 62.8161 1.66667 62.6807 1.70903 62.5667 1.78809 62.4527 1.86715 62.3656 1.97912 62.3171 2.10904L62.3148 2.1163 61.3254 4.91985C61.3098 4.96412 61.2809 5.00248 61.2426 5.02962 61.2043 5.05677 61.1585 5.07138 61.1116 5.07144H58.348C58.2081 5.07134 58.0716 5.11432 57.957 5.19454 57.8424 5.27476 57.7553 5.38833 57.7076 5.5198 57.6598 5.65127 57.6537 5.79426 57.6901 5.92932 57.7265 6.06438 57.8036 6.18496 57.9109 6.27465L60.2638 8.22629C60.299 8.2555 60.3245 8.29465 60.3371 8.33863 60.3496 8.38261 60.3486 8.42936 60.3341 8.47274L59.3456 11.437C59.2999 11.574 59.299 11.722 59.343 11.8596 59.387 11.9972 59.4737 12.1173 59.5904 12.2024 59.7071 12.2875 59.8479 12.3333 59.9924 12.3331 60.1369 12.3329 60.2775 12.2867 60.394 12.2013L62.8204 10.4221C62.8593 10.3936 62.9063 10.3782 62.9545 10.3782 63.0028 10.3782 63.0497 10.3936 63.0886 10.4221L65.5141 12.2008C65.6306 12.2865 65.7713 12.333 65.9159 12.3333 66.0605 12.3337 66.2015 12.288 66.3184 12.2029 66.4353 12.1178 66.522 11.9977 66.5661 11.86 66.6102 11.7223 66.6093 11.5741 66.5635 11.437L65.5749 8.47092C65.5605 8.42754 65.5594 8.3808 65.572 8.33682 65.5845 8.29284 65.6101 8.25368 65.6453 8.22447L68.0027 6.27011C68.1086 6.17966 68.1843 6.05887 68.2194 5.92406 68.2546 5.78925 68.2475 5.64691 68.1992 5.51624Z"/></symbol><symbol id="icon-star" viewBox="0 0 18 18"><path d="M16.7988 6.77435C16.7261 6.57896 16.5955 6.41041 16.4245 6.2912C16.2534 6.17198 16.0501 6.10778 15.8416 6.10716H11.6976C11.627 6.10721 11.5582 6.08536 11.5007 6.04463C11.4431 6.0039 11.3996 5.94629 11.3762 5.87978L9.88866 1.66356C9.8158 1.46868 9.68515 1.30072 9.51421 1.18213C9.34326 1.06354 9.14018 1 8.93213 1C8.72408 1 8.521 1.06354 8.35005 1.18213C8.17911 1.30072 8.04846 1.46868 7.9756 1.66356L7.9722 1.67445L6.48805 5.87978C6.46467 5.94618 6.42128 6.00371 6.36386 6.04443C6.30643 6.08516 6.23779 6.10707 6.16739 6.10716H2.02197C1.81216 6.10701 1.60739 6.17148 1.43552 6.29181C1.26364 6.41214 1.133 6.5825 1.06137 6.7797C0.989731 6.9769 0.980576 7.19139 1.03515 7.39398C1.08972 7.59657 1.20536 7.77743 1.36636 7.91197L4.89565 10.8394C4.94844 10.8832 4.98676 10.942 5.00559 11.0079C5.02442 11.0739 5.02288 11.144 5.00117 11.2091L3.51838 15.6554C3.44985 15.861 3.4485 16.0831 3.51452 16.2895C3.58053 16.4959 3.71049 16.6759 3.8856 16.8036C4.06071 16.9312 4.27189 16.9999 4.48859 16.9996C4.70529 16.9993 4.91628 16.9301 5.09104 16.8019L8.73061 14.1332C8.78897 14.0904 8.85944 14.0674 8.93179 14.0674C9.00414 14.0674 9.07461 14.0904 9.13297 14.1332L12.7712 16.8012C12.9459 16.9298 13.1569 16.9994 13.3738 17C13.5907 17.0006 13.8022 16.9321 13.9775 16.8044C14.1529 16.6768 14.2831 16.4966 14.3492 16.29C14.4153 16.0834 14.4139 15.8612 14.3452 15.6554L12.8624 11.2064C12.8407 11.1413 12.8392 11.0712 12.858 11.0052C12.8768 10.9393 12.9151 10.8805 12.9679 10.8367L16.504 7.90517C16.663 7.76948 16.7764 7.58831 16.8292 7.38609C16.8819 7.18388 16.8713 6.97036 16.7988 6.77435Z"/></symbol><symbol id="icon-star-old" viewBox="0 0 16 16"><path fill-rule="evenodd" d="M16 6.4L10 5.33333L8 0L6 5.33333L0 6.4L4 10.6667L3 16L8 12.8L13 16L12 10.6667L16 6.4Z"/></symbol><symbol id="icon-star-14" viewBox="0 0 14 14"><path d="M12.1992 5.51624C12.1507 5.38598 12.0637 5.27361 11.9496 5.19413C11.8356 5.11466 11.7001 5.07186 11.5611 5.07144H8.79837C8.75136 5.07148 8.7055 5.05691 8.66712 5.02976C8.62875 5.0026 8.59975 4.9642 8.58415 4.91985L7.59244 2.10904C7.54387 1.97912 7.45677 1.86715 7.34281 1.78809C7.22884 1.70903 7.09345 1.66667 6.95476 1.66667C6.81606 1.66667 6.68067 1.70903 6.5667 1.78809C6.45274 1.86715 6.36564 1.97912 6.31707 2.10904L6.3148 2.1163L5.32537 4.91985C5.30978 4.96412 5.28086 5.00248 5.24257 5.02962C5.20429 5.05677 5.15853 5.07138 5.11159 5.07144H2.34798C2.20811 5.07134 2.0716 5.11432 1.95701 5.19454C1.84243 5.27476 1.75534 5.38833 1.70758 5.5198C1.65982 5.65127 1.65372 5.79426 1.6901 5.92932C1.72648 6.06438 1.80358 6.18496 1.91091 6.27465L4.26377 8.22629C4.29896 8.2555 4.32451 8.29465 4.33706 8.33863C4.34962 8.38261 4.34859 8.42936 4.33411 8.47274L3.34559 11.437C3.2999 11.574 3.299 11.722 3.34301 11.8596C3.38702 11.9972 3.47366 12.1173 3.5904 12.2024C3.70714 12.2875 3.84793 12.3333 3.9924 12.3331C4.13686 12.3329 4.27752 12.2867 4.39403 12.2013L6.82041 10.4221C6.85932 10.3936 6.9063 10.3782 6.95453 10.3782C7.00276 10.3782 7.04974 10.3936 7.08865 10.4221L9.51412 12.2008C9.63058 12.2865 9.7713 12.333 9.9159 12.3333C10.0605 12.3337 10.2015 12.288 10.3184 12.2029C10.4353 12.1178 10.522 11.9977 10.5661 11.86C10.6102 11.7223 10.6093 11.5741 10.5635 11.437L9.57494 8.47092C9.56047 8.42754 9.55944 8.3808 9.57199 8.33682C9.58455 8.29284 9.6101 8.25368 9.64529 8.22447L12.0027 6.27011C12.1086 6.17966 12.1843 6.05887 12.2194 5.92406C12.2546 5.78925 12.2475 5.64691 12.1992 5.51624Z"/></symbol><symbol id="icon-star-14-old" viewBox="0 0 14 14"><path fill-rule="evenodd" d="M13 5.8L8.5 5L7 1L5.5 5L1 5.8L4 9L3.25 13L7 10.6L10.75 13L10 9L13 5.8Z"/></symbol></svg>