<svg xmlns="http://www.w3.org/2000/svg" fill="none" viewBox="0 0 519 637" width="519" height="637"><path d="M502.915 217.783a144.3946 144.3946 0 0 0-50.16 51.832 144.397 144.397 0 0 0-18.832 69.627c.082 27.494 8.228 54.36 23.428 77.27a140.5378 140.5378 0 0 0 62.087 51.621 335.7533 335.7533 0 0 1-43.791 90.472c-27.264 39.248-55.772 78.491-99.148 78.491-43.375 0-54.531-25.2-104.519-25.2-48.748 0-66.1 26.028-105.759 26.028-39.66 0-67.3361-36.355-99.1479-80.971A391.3653 391.3653 0 0 1 .5615 345.85c0-123.935 80.5595-189.619 159.8755-189.619 42.139 0 77.255 27.676 103.695 27.676 25.2 0 64.448-29.332 112.367-29.332a150.3243 150.3243 0 0 1 71.1 15.819 150.3278 150.3278 0 0 1 55.316 47.389ZM353.779 102.112c21.124-24.8498 33.082-56.195 33.876-88.7999a61.4056 61.4056 0 0 0-1.24-12.7999c-36.285 3.5445-69.839 20.8389-93.779 48.3357-21.328 23.8592-33.736 54.3671-35.116 86.3391.016 3.889.432 7.765 1.24 11.568 2.861.541 5.765.818 8.676.828 16.723-1.33 33-6.048 47.844-13.864a123.744 123.744 0 0 0 38.499-31.607Z" fill="#000"/></svg>
