<svg xmlns="http://www.w3.org/2000/svg" width="500" height="120" viewBox="0 0 500 120"><title>Acer</title><path d="M82.76 0h23.48c13.55 1.04 28.48 2.3 39.23 11.55 7.32 6.25 8.69 16.73 6.75 25.69 7.21-11.89 17.95-21.53 30.52-27.47C196.42 3.18 211.66.64 226.72 0h13.38c6.7.67 14.3-.45 20.02 3.86 4.02 3.1 3.49 8.64 4.3 13.13.17 2.49 1.43 6.14-1.48 7.56-15.28-.8-30.73-2.69-45.97-.37-10.95 1.66-21.88 6.1-29.47 14.39-8.1 8.58-11.71 20.25-13.79 31.61-.89 5.91-1.54 12.7 2.14 17.85 4.34 5.32 11.56 6.8 18.02 7.81 18.03 2.22 36.19-.2 54.23-1.13-4.22-12.55-1.68-26.11 2.38-38.35 5.19-15.86 14.88-30.55 28.74-40.1C295.34 4.91 315.33.8 334.73 0h15.47c11.17.76 22.57 1.63 33.08 5.8 5.72 2.3 11.37 5.97 14.04 11.74 1.7 3.52 1.77 7.53 1.52 11.36 6.88-11.97 18.94-20.2 31.94-24.25C439.71 1.72 449.09.66 458.42 0h16.03c6.58.34 13.33-.17 19.74 1.64 2.68.66 4.56 2.81 5.81 5.16v2.4c-1.51 4.39-2.94 8.84-4.85 13.07-1.02 2.37-3.82 2.86-6.11 2.65-9.37-.39-18.74-.22-28.1-.42-7.84-.01-16.17.23-23.15 4.24-4.03 2.27-6.96 6.21-8.19 10.65-7.27 25.2-14.46 50.42-21.73 75.61-.53 2.73-3.11 4.63-5.86 4.46-8.32.11-16.65 0-24.98.05-1.97.04-4.7-.21-5.13-2.61.22-2.74 1.21-5.33 1.94-7.95 6.16-21.28 12.18-42.59 18.38-63.84-4.35 5.75-10.05 10.41-16.44 13.73-11.08 5.81-23.45 8.61-35.77 10.31-20.37 2.63-40.75 5.21-61.12 7.85.18 4.53.93 9.42 4.26 12.79 4.84 5.12 12.32 5.83 18.93 6.44 21.35 1.56 42.7-.82 64.03-1.36 1.23-.23 2.82.59 2.42 2.01-1.13 4.73-2.82 9.31-4.08 14.01-1.29 4.46-6.2 6.37-10.37 7.04-9.63 1.39-19.4 1.4-29.11 1.66-17.24.12-34.92 1.23-51.63-3.84-8.71-2.57-16.98-7.44-22.22-15.02-.92 4-1.03 8.38-3.3 11.92-3.02 4.16-8.57 4.81-13.26 5.63-12.43 1.49-24.98 1.54-37.49 1.6-15.7-.04-32.79-1.33-45.79-11.1-8.86-6.59-12.54-17.93-12.34-28.64-2.85 9.13-5.59 18.31-8.64 27.38-1.89 5.12-7.62 6.96-12.49 7.91-17.41 3.14-35.14 4-52.81 4.29-13.82.15-27.83-.11-41.31-3.48-7.13-1.91-14.48-4.77-19.35-10.56C1.84 102.81.52 99.14 0 95.42v-4.65c.63-5.68 2.46-11.3 5.79-15.99 4.56-6.54 11.36-11.14 18.47-14.52 11.54-5.36 24.12-8 36.66-9.76 17.43-2.17 34.78-4.92 52.11-7.77 7.72-.57 9.16-12.16 3.47-16.26-6.39-4.75-14.81-5.05-22.45-5.45-19.44-.14-38.8 1.89-58.14 3.56-1.43.03-2.85-.04-4.27-.21.6-4.84 2.35-9.43 3.91-14.03 1.89-5.09 7.38-7.59 12.43-8.28C59.5.45 71.16.4 82.76 0zm215.68 30.44c-7.92 7.12-11.68 17.48-14.62 27.44 16.39-2.36 32.8-4.63 49.19-7.01 8.63-1.42 17.48-3.19 25.05-7.8 4.14-2.53 7.72-7 7.15-12.11-.59-4.53-5.21-6.83-9.14-7.95-9.48-2.52-19.43-2.19-29.13-1.71-9.94.85-20.69 2.36-28.5 9.14zM52.51 70.67c-7.9 1.11-16.6 5.69-18.16 14.22-1.19 4.62 2.59 8.58 6.62 10.07 8.54 3.38 17.93 3.52 26.99 3.55 10.95.06 21.93-.22 32.78-1.73 3.58-11.35 7.15-22.7 10.69-34.06-19.64 2.65-39.29 5.22-58.92 7.95z" fill="#89BA19" fill-rule="evenodd"/></svg>
