<svg xmlns="http://www.w3.org/2000/svg" width="352" height="44" viewBox="0 0 352 44"><title>Alpine</title><g fill="#3880A3" fill-rule="evenodd"><path d="M144.366 10.688c8.746-8.928 9.752-9.934 23.218-9.934v42.964H156.95l.028-31.268-30.536 31.264h-14.454s26.652-27.18 32.378-33.026M170.568.816h10.622v33.68l23.714-.054.02 9.334h-34.286l-.07-42.96M238.086.768L206.934.712V43.71h10.71l-.054-14.118h20.496c6.062 0 10.98-4.912 10.98-10.98v-6.864c0-6.064-4.918-10.98-10.98-10.98zm.974 16.214a3.094 3.094 0 0 1-3.092 3.092h-18.37v-9.842h18.37a3.094 3.094 0 0 1 3.092 3.096v3.654zM251.306.754h10.634v42.98l-10.634.014V.754M264.502.754c11.584 0 13.034 1.686 18.046 7.528.44.512 15.786 20.024 15.786 20.024V.754h10.422v43.02h-11.55l-22.338-28.628v28.628h-10.366s-.012-43.038 0-43.02M311.224 12.356c0-8.218 3.384-11.602 11.602-11.602h28.622l.056 9.13h-29.592v7.68h25.83v8.538l-25.886.056v8.162h29.648l-.056 9.398h-40.224V12.356M42.218.736h11.53L11.714 43.774H.008L42.218.736M64.56.736h11.53L34.056 43.774h-11.71L64.56.736M86.792.736H98.32L56.292 43.774h-11.71L86.792.736M109.028.736h11.528L78.522 43.774H66.816L109.028.736M131.262.736h11.528l-42.032 43.038h-11.71L131.262.736"/></g></svg>
