<svg xmlns="http://www.w3.org/2000/svg" width="118" height="118" viewBox="0 0 118 118"><title>Apivita</title><g fill="none" fill-rule="evenodd"><path fill="#FFF" d="M.526 117.66h117.136V.528H.526z"/><path stroke="#000" stroke-width="1.094" d="M.255 117.932h117.678V.256H.255z"/><path fill="#000" d="M3.68 114.49h110.817V3.682H3.68z"/><path stroke="#000" stroke-width=".483" d="M3.68 114.49h110.817V3.682H3.68z"/><path d="M84.838 98.442l2.876-4.828 2.883 4.828h-5.759zm2.876-8.083l-7.744 12.449h2.168l1.857-2.998h7.437l1.846 2.998h2.16l-7.724-12.45z" fill="#FFF"/><path d="M84.838 98.442l2.876-4.828 2.883 4.828h-5.759zm2.876-8.083l-7.744 12.449h2.168l1.857-2.998h7.437l1.846 2.998h2.16l-7.724-12.45z" stroke="#000" stroke-width=".567"/><path fill="#FFF" d="M81.796 90.867h-9.71v1.355h3.843v10.586h2.02V92.22h3.847z"/><path stroke="#000" stroke-width=".567" d="M81.796 90.867h-9.71v1.355h3.843v10.586h2.02V92.22h3.847z"/><path fill="#FFF" d="M68.301 102.808h2.016V90.867h-2.016z"/><path stroke="#000" stroke-width=".567" d="M68.301 102.808h2.016V90.867h-2.016z"/><path fill="#FFF" d="M60.053 99.698l-4.824-8.831h-2.215l7.039 12.57 7.022-12.57h-2.208z"/><path stroke="#000" stroke-width=".567" d="M60.053 99.698l-4.824-8.831h-2.215l7.039 12.57 7.022-12.57h-2.208z"/><path fill="#FFF" d="M49.904 102.808h2V90.867h-2z"/><path stroke="#000" stroke-width=".567" d="M49.904 102.808h2V90.867h-2z"/><path d="M41.763 96.465h-.654v-4.268h.539c2.003 0 4.414.21 4.414 2.089 0 1.899-2.236 2.179-4.3 2.179m-.35-5.598h-2.308v11.94h2.005v-5h1.17c3.072 0 5.673-.983 5.673-3.498 0-2.183-1.558-3.442-6.54-3.442" fill="#FFF"/><path d="M41.763 96.465h-.654v-4.268h.539c2.003 0 4.414.21 4.414 2.089 0 1.899-2.236 2.179-4.3 2.179m-.35-5.598h-2.308v11.94h2.005v-5h1.17c3.072 0 5.673-.983 5.673-3.498 0-2.183-1.558-3.442-6.54-3.442" stroke="#000" stroke-width=".567"/><path d="M27.59 98.442l2.887-4.828 2.875 4.828H27.59zm-4.85 4.366h2.162l1.848-2.998h7.434l1.842 2.998h2.184l-7.733-12.45-7.736 12.45z" fill="#FFF"/><path d="M27.59 98.442l2.887-4.828 2.875 4.828H27.59zm-4.85 4.366h2.162l1.848-2.998h7.434l1.842 2.998h2.184l-7.733-12.45-7.736 12.45z" stroke="#000" stroke-width=".567"/><path d="M59.139 59.821s-1.418 2.492-1.418 3.583c0 1.102.836 2.112 1.472 3.864.437-1.7 1.284-2.643 1.284-3.798 0-1.157-1.338-3.649-1.338-3.649" fill="#FFF"/><path d="M59.139 59.821s-1.418 2.492-1.418 3.583c0 1.102.836 2.112 1.472 3.864.437-1.7 1.284-2.643 1.284-3.798 0-1.157-1.338-3.649-1.338-3.649" stroke="#000" stroke-width=".567"/><path d="M36.863 50.56s-.076-1.871 1.62-3.61c1.712-1.742 6.541-5.187 13.227-5.352-1.796.695-3.022 2.632-3.81 4.037-.796 1.42-2.63 4.925-6.46 4.925h-4.577z" fill="#FFF"/><path d="M36.863 50.56s-.076-1.871 1.62-3.61c1.712-1.742 6.541-5.187 13.227-5.352-1.796.695-3.022 2.632-3.81 4.037-.796 1.42-2.63 4.925-6.46 4.925h-4.577z" stroke="#000" stroke-width=".567"/><path d="M58.093 41.42a2.258 2.258 0 0 1-1.62 2.77c-1.216.312-2.465-.408-2.781-1.622a2.29 2.29 0 0 1 1.64-2.78 2.264 2.264 0 0 1 2.76 1.633" fill="#FFF"/><path d="M58.093 41.42a2.258 2.258 0 0 1-1.62 2.77c-1.216.312-2.465-.408-2.781-1.622a2.29 2.29 0 0 1 1.64-2.78 2.264 2.264 0 0 1 2.76 1.633" stroke="#000" stroke-width=".567"/><path d="M49.21 51.35c-1.185-1.967-1.309-4.262.442-6.715 1.767-2.459 3.165-2.653 3.165-2.653s-.078 1.447.835 2.347a2.554 2.554 0 0 0 1.511.74s-.87 2.126-1.44 3.094c-1.545 2.616-4.513 3.186-4.513 3.186" fill="#FFF"/><path d="M49.21 51.35c-1.185-1.967-1.309-4.262.442-6.715 1.767-2.459 3.165-2.653 3.165-2.653s-.078 1.447.835 2.347a2.554 2.554 0 0 0 1.511.74s-.87 2.126-1.44 3.094c-1.545 2.616-4.513 3.186-4.513 3.186" stroke="#000" stroke-width=".567"/><path d="M51.967 53.185c-1.388-.378-2.885.245-4.225 1.108 0 0 .453-2.414 1.647-2.662 1.21-.247 2.578 1.554 2.578 1.554" fill="#FFF"/><path d="M51.967 53.185c-1.388-.378-2.885.245-4.225 1.108 0 0 .453-2.414 1.647-2.662 1.21-.247 2.578 1.554 2.578 1.554" stroke="#000" stroke-width=".567"/><path d="M52.09 53.938c-.597-.378-4.11.774-4.296 1.907-.12.795.368 1.383.947 1.435 1.19.101 3.882-1.028 3.882-2.528-.076-.372-.23-.608-.532-.814" fill="#FFF"/><path d="M52.09 53.938c-.597-.378-4.11.774-4.296 1.907-.12.795.368 1.383.947 1.435 1.19.101 3.882-1.028 3.882-2.528-.076-.372-.23-.608-.532-.814" stroke="#000" stroke-width=".567"/><path d="M53.102 55.736c-.157.278-.362.952-1.491 1.793-1.137.817-2.476.914-2.476.914s.159.532.762.964c1.277.92 4.369-.814 3.743-2.811-.289-.91-.488-.942-.538-.86" fill="#FFF"/><path d="M53.102 55.736c-.157.278-.362.952-1.491 1.793-1.137.817-2.476.914-2.476.914s.159.532.762.964c1.277.92 4.369-.814 3.743-2.811-.289-.91-.488-.942-.538-.86" stroke="#000" stroke-width=".567"/><path d="M54.428 57.43c.062.366-.118 1.204-.55 1.74-.512.644-1.21 1.073-1.889 1.374-.048.033.887.484 2.074.09.754-.252 1.6-1.412 1.284-2.398-.164-.533-.96-1-.919-.806" fill="#FFF"/><path d="M54.428 57.43c.062.366-.118 1.204-.55 1.74-.512.644-1.21 1.073-1.889 1.374-.048.033.887.484 2.074.09.754-.252 1.6-1.412 1.284-2.398-.164-.533-.96-1-.919-.806" stroke="#000" stroke-width=".567"/><path d="M55.085 60.998c-.305 0 .728-.244.977-1.177.3-1.153.053-1.37.3-1.377.1-.012 2.36.532 2.036 1.22-.306.682-1.699 1.317-3.313 1.334" fill="#FFF"/><path d="M55.085 60.998c-.305 0 .728-.244.977-1.177.3-1.153.053-1.37.3-1.377.1-.012 2.36.532 2.036 1.22-.306.682-1.699 1.317-3.313 1.334" stroke="#000" stroke-width=".567"/><path d="M66.515 53.185c1.372-.378 2.895.245 4.225 1.108 0 0-.447-2.414-1.66-2.662-1.204-.247-2.565 1.554-2.565 1.554" fill="#FFF"/><path d="M66.515 53.185c1.372-.378 2.895.245 4.225 1.108 0 0-.447-2.414-1.66-2.662-1.204-.247-2.565 1.554-2.565 1.554" stroke="#000" stroke-width=".567"/><path d="M66.391 53.938c.59-.378 4.104.774 4.284 1.907.132.795-.353 1.383-.951 1.435-1.19.101-3.868-1.028-3.868-2.528.074-.372.224-.608.535-.814" fill="#FFF"/><path d="M66.391 53.938c.59-.378 4.104.774 4.284 1.907.132.795-.353 1.383-.951 1.435-1.19.101-3.868-1.028-3.868-2.528.074-.372.224-.608.535-.814" stroke="#000" stroke-width=".567"/><path d="M65.382 55.736c.144.278.336.952 1.48 1.793 1.14.817 2.483.914 2.483.914s-.15.532-.779.964c-1.254.92-4.363-.814-3.722-2.811.284-.91.474-.942.538-.86" fill="#FFF"/><path d="M65.382 55.736c.144.278.336.952 1.48 1.793 1.14.817 2.483.914 2.483.914s-.15.532-.779.964c-1.254.92-4.363-.814-3.722-2.811.284-.91.474-.942.538-.86" stroke="#000" stroke-width=".567"/><path d="M64.04 57.43c-.056.366.126 1.204.555 1.74.517.644 1.213 1.073 1.896 1.374.047.033-.88.484-2.073.09-.764-.252-1.607-1.412-1.288-2.398.167-.533.958-1 .91-.806" fill="#FFF"/><path d="M64.04 57.43c-.056.366.126 1.204.555 1.74.517.644 1.213 1.073 1.896 1.374.047.033-.88.484-2.073.09-.764-.252-1.607-1.412-1.288-2.398.167-.533.958-1 .91-.806" stroke="#000" stroke-width=".567"/><path d="M63.395 60.998c.296 0-.73-.244-.978-1.177-.314-1.153-.057-1.37-.314-1.377-.085-.012-2.35.532-2.025 1.22.32.682 1.7 1.317 3.317 1.334" fill="#FFF"/><path d="M63.395 60.998c.296 0-.73-.244-.978-1.177-.314-1.153-.057-1.37-.314-1.377-.085-.012-2.35.532-2.025 1.22.32.682 1.7 1.317 3.317 1.334" stroke="#000" stroke-width=".567"/><path d="M81.557 50.56s.08-1.871-1.62-3.61c-1.699-1.742-6.55-5.187-13.23-5.352 1.807.695 3.081 2.648 3.816 4.037.786 1.485 2.683 4.925 6.496 4.925h4.538z" fill="#FFF"/><path d="M81.557 50.56s.08-1.871-1.62-3.61c-1.699-1.742-6.55-5.187-13.23-5.352 1.807.695 3.081 2.648 3.816 4.037.786 1.485 2.683 4.925 6.496 4.925h4.538z" stroke="#000" stroke-width=".567"/><path d="M60.327 41.42a2.26 2.26 0 0 0 1.621 2.77c1.218.312 2.47-.408 2.773-1.622a2.275 2.275 0 0 0-1.633-2.78 2.262 2.262 0 0 0-2.76 1.633" fill="#FFF"/><path d="M60.327 41.42a2.26 2.26 0 0 0 1.621 2.77c1.218.312 2.47-.408 2.773-1.622a2.275 2.275 0 0 0-1.633-2.78 2.262 2.262 0 0 0-2.76 1.633" stroke="#000" stroke-width=".567"/><path d="M69.201 51.35c1.19-1.967 1.322-4.262-.428-6.715-1.772-2.459-3.172-2.653-3.172-2.653s.07 1.447-.83 2.347c-.675.685-1.51.74-1.51.74s.876 2.126 1.448 3.094c1.522 2.616 4.492 3.186 4.492 3.186" fill="#FFF"/><path d="M69.201 51.35c1.19-1.967 1.322-4.262-.428-6.715-1.772-2.459-3.172-2.653-3.172-2.653s.07 1.447-.83 2.347c-.675.685-1.51.74-1.51.74s.876 2.126 1.448 3.094c1.522 2.616 4.492 3.186 4.492 3.186" stroke="#000" stroke-width=".567"/><path d="M59.231 72.6l-1.802-1.807 1.802-1.796 1.798 1.796-1.798 1.806zm0-5.52c-2.054 0-3.736 1.661-3.736 3.713a3.741 3.741 0 0 0 3.736 3.732 3.738 3.738 0 0 0 3.736-3.732c0-2.052-1.677-3.714-3.736-3.714z" fill="#FFF"/><path d="M59.231 72.6l-1.802-1.807 1.802-1.796 1.798 1.796-1.798 1.806zm0-5.52c-2.054 0-3.736 1.661-3.736 3.713a3.741 3.741 0 0 0 3.736 3.732 3.738 3.738 0 0 0 3.736-3.732c0-2.052-1.677-3.714-3.736-3.714z" stroke="#000" stroke-width=".567"/><path d="M40.083 60.558l-1.453-1.447 1.453-1.436 1.455 1.436-1.455 1.447zm0-4.46a3.027 3.027 0 0 0-3.01 3.013c0 1.652 1.362 3.003 3.01 3.003a3.007 3.007 0 0 0 0-6.016z" fill="#FFF"/><path d="M40.083 60.558l-1.453-1.447 1.453-1.436 1.455 1.436-1.455 1.447zm0-4.46a3.027 3.027 0 0 0-3.01 3.013c0 1.652 1.362 3.003 3.01 3.003a3.007 3.007 0 0 0 0-6.016z" stroke="#000" stroke-width=".567"/><path d="M78.29 60.558l-1.457-1.447 1.457-1.436 1.441 1.436-1.441 1.447zm0-4.46a3.018 3.018 0 0 0-3.013 3.013 3.012 3.012 0 0 0 3.013 3.003 3.014 3.014 0 0 0 3.002-3.003c0-1.655-1.355-3.013-3.002-3.013z" fill="#FFF"/><path d="M78.29 60.558l-1.457-1.447 1.457-1.436 1.441 1.436-1.441 1.447zm0-4.46a3.018 3.018 0 0 0-3.013 3.013 3.012 3.012 0 0 0 3.013 3.003 3.014 3.014 0 0 0 3.002-3.003c0-1.655-1.355-3.013-3.002-3.013z" stroke="#000" stroke-width=".567"/><path d="M40.105 50.214c.222.261.45.517.597.828.035.07.035.176.12.26.027.044.027.114.027.142.051.03.081.074.081.108.224.723.26 1.501-.109 2.175-.157.298-.302.566-.45.857-.159.301-.222.63-.303.971a7.914 7.914 0 0 0-.066.927c-.75-1.035-1.06-2.35-.688-3.618.23-.707.53-1.346.717-2.085.037-.196.037-.38.074-.565" fill="#FFF"/><path d="M40.105 50.214c.222.261.45.517.597.828.035.07.035.176.12.26.027.044.027.114.027.142.051.03.081.074.081.108.224.723.26 1.501-.109 2.175-.157.298-.302.566-.45.857-.159.301-.222.63-.303.971a7.914 7.914 0 0 0-.066.927c-.75-1.035-1.06-2.35-.688-3.618.23-.707.53-1.346.717-2.085.037-.196.037-.38.074-.565" stroke="#000" stroke-width=".567"/><path d="M78.178 50.214c-.228.261-.45.517-.595.828-.037.07-.037.176-.13.26-.014.044-.014.114-.014.142-.057.03-.088.074-.088.108-.223.723-.259 1.501.102 2.175.158.298.316.566.466.857.138.301.22.63.297.971.04.295.074.64.074.927.754-1.035 1.041-2.35.68-3.618-.23-.707-.527-1.346-.715-2.085-.039-.196-.039-.38-.077-.565" fill="#FFF"/><path d="M78.178 50.214c-.228.261-.45.517-.595.828-.037.07-.037.176-.13.26-.014.044-.014.114-.014.142-.057.03-.088.074-.088.108-.223.723-.259 1.501.102 2.175.158.298.316.566.466.857.138.301.22.63.297.971.04.295.074.64.074.927.754-1.035 1.041-2.35.68-3.618-.23-.707-.527-1.346-.715-2.085-.039-.196-.039-.38-.077-.565" stroke="#000" stroke-width=".567"/><path d="M61.245 53.586a1.035 1.035 0 0 1-1.033-1.032c0-.579.458-1.047 1.033-1.047.57 0 1.037.468 1.037 1.047 0 .561-.466 1.032-1.037 1.032m-2.17-3.115a1.057 1.057 0 0 1-1.058-1.048c0-.586.47-1.047 1.058-1.047.562 0 1.024.461 1.024 1.047 0 .57-.462 1.048-1.024 1.048m-2.186 3.115a1.05 1.05 0 0 1-1.052-1.032 1.05 1.05 0 0 1 1.052-1.047c.564 0 1.033.468 1.033 1.047 0 .561-.47 1.032-1.033 1.032m2.232-6.902c-2.758 0-5 2.23-5 4.978a4.995 4.995 0 0 0 5 4.991 4.985 4.985 0 0 0 4.979-4.99 4.981 4.981 0 0 0-4.98-4.979" fill="#FFF"/><path d="M61.245 53.586a1.035 1.035 0 0 1-1.033-1.032c0-.579.458-1.047 1.033-1.047.57 0 1.037.468 1.037 1.047 0 .561-.466 1.032-1.037 1.032m-2.17-3.115a1.057 1.057 0 0 1-1.058-1.048c0-.586.47-1.047 1.058-1.047.562 0 1.024.461 1.024 1.047 0 .57-.462 1.048-1.024 1.048m-2.186 3.115a1.05 1.05 0 0 1-1.052-1.032 1.05 1.05 0 0 1 1.052-1.047c.564 0 1.033.468 1.033 1.047 0 .561-.47 1.032-1.033 1.032m2.232-6.902c-2.758 0-5 2.23-5 4.978a4.995 4.995 0 0 0 5 4.991 4.985 4.985 0 0 0 4.979-4.99 4.981 4.981 0 0 0-4.98-4.979" stroke="#000" stroke-width=".567"/><path d="M57.334 37.354c-1.052-.484-1.398-.62-2.027-.914-1.785-.814-2.076-4.143-5.216-5.83.923.17 4.683.97 5.953 2.591 1.147 1.453 2.22 4.546 1.29 4.153" fill="#FFF"/><path d="M57.334 37.354c-1.052-.484-1.398-.62-2.027-.914-1.785-.814-2.076-4.143-5.216-5.83.923.17 4.683.97 5.953 2.591 1.147 1.453 2.22 4.546 1.29 4.153" stroke="#000" stroke-width=".567"/><path d="M60.82 37.354c1.075-.484 1.411-.62 2.032-.914 1.783-.814 2.086-4.143 5.203-5.83-.907.17-4.66.97-5.953 2.591-1.127 1.453-2.197 4.546-1.282 4.153" fill="#FFF"/><path d="M60.82 37.354c1.075-.484 1.411-.62 2.032-.914 1.783-.814 2.086-4.143 5.203-5.83-.907.17-4.66.97-5.953 2.591-1.127 1.453-2.197 4.546-1.282 4.153" stroke="#000" stroke-width=".567"/><path d="M59.149 37.181c-.414 0-.954-2.142-1.095-2.709-.15-.589.724-3.805.884-4.029.137-.233.252-.333.469.081.223.425 1.113 3.127.857 3.948-.165.546-.695 2.71-1.115 2.71" fill="#FFF"/><path d="M59.149 37.181c-.414 0-.954-2.142-1.095-2.709-.15-.589.724-3.805.884-4.029.137-.233.252-.333.469.081.223.425 1.113 3.127.857 3.948-.165.546-.695 2.71-1.115 2.71" stroke="#000" stroke-width=".567"/><path d="M60.772 28.287c0 .941-.753 1.682-1.683 1.682a1.686 1.686 0 0 1-1.702-1.682c0-.955.764-1.706 1.702-1.706.93 0 1.683.751 1.683 1.706" fill="#FFF"/><path d="M60.772 28.287c0 .941-.753 1.682-1.683 1.682a1.686 1.686 0 0 1-1.702-1.682c0-.955.764-1.706 1.702-1.706.93 0 1.683.751 1.683 1.706" stroke="#000" stroke-width=".567"/><path d="M36.044 37.54h.17a2.126 2.126 0 0 0 2.119-2.11c0-.244-.054-.464-.113-.675a2.142 2.142 0 0 0-1.744-1.436 2.141 2.141 0 0 0-2.39 2.112c0 .234.053.47.12.687a2.13 2.13 0 0 0 1.838 1.423" fill="#FFF"/><path d="M36.044 37.54h.17a2.126 2.126 0 0 0 2.119-2.11c0-.244-.054-.464-.113-.675a2.142 2.142 0 0 0-1.744-1.436 2.141 2.141 0 0 0-2.39 2.112c0 .234.053.47.12.687a2.13 2.13 0 0 0 1.838 1.423" stroke="#000" stroke-width=".567"/><path d="M46.614 26.137c-3.688 1.633-6.856 3.832-9.45 6.466a2.905 2.905 0 0 1 1.682 1.464c2.45-2.55 5.33-4.604 8.46-5.901 8.201-3.421 5.265-15.057-2.938-15.057-3.786 0-7.13 2.419-7.13 6.688 0 3.814 3.526 5.799 6.474 4.734 3.871-1.377 3.26-6.696-.264-6.696-.928 0-1.139.77-.379.954 3.372.73 1.891 4.529-.264 4.667-2.565.174-4.052-1.487-4.052-3.494 0-2.6 2.13-4.943 5.701-4.943 5.735 0 8.117 8.488 2.16 11.118" fill="#FFF"/><path d="M46.614 26.137c-3.688 1.633-6.856 3.832-9.45 6.466a2.905 2.905 0 0 1 1.682 1.464c2.45-2.55 5.33-4.604 8.46-5.901 8.201-3.421 5.265-15.057-2.938-15.057-3.786 0-7.13 2.419-7.13 6.688 0 3.814 3.526 5.799 6.474 4.734 3.871-1.377 3.26-6.696-.264-6.696-.928 0-1.139.77-.379.954 3.372.73 1.891 4.529-.264 4.667-2.565.174-4.052-1.487-4.052-3.494 0-2.6 2.13-4.943 5.701-4.943 5.735 0 8.117 8.488 2.16 11.118" stroke="#000" stroke-width=".567"/><path d="M84.671 68.288a28.314 28.314 0 0 0 4.627-15.547c0-5.622-1.545-10.967-4.483-15.519a3.069 3.069 0 0 1-1.877 1.351c2.648 4.214 4.25 9.149 4.25 14.168 0 5.287-1.585 10.205-4.277 14.385a2.92 2.92 0 0 1 1.76 1.162" fill="#FFF"/><path d="M84.671 68.288a28.314 28.314 0 0 0 4.627-15.547c0-5.622-1.545-10.967-4.483-15.519a3.069 3.069 0 0 1-1.877 1.351c2.648 4.214 4.25 9.149 4.25 14.168 0 5.287-1.585 10.205-4.277 14.385a2.92 2.92 0 0 1 1.76 1.162" stroke="#000" stroke-width=".567"/><path d="M35.286 66.956c-2.638-4.13-4.17-9.005-4.17-14.215 0-5.126 1.65-10.164 4.407-14.423a2.985 2.985 0 0 1-1.87-1.378c-3.048 4.618-4.662 10.065-4.662 15.801 0 5.72 1.707 11.057 4.64 15.565a3.133 3.133 0 0 1 1.655-1.35" fill="#FFF"/><path d="M35.286 66.956c-2.638-4.13-4.17-9.005-4.17-14.215 0-5.126 1.65-10.164 4.407-14.423a2.985 2.985 0 0 1-1.87-1.378c-3.048 4.618-4.662 10.065-4.662 15.801 0 5.72 1.707 11.057 4.64 15.565a3.133 3.133 0 0 1 1.655-1.35" stroke="#000" stroke-width=".567"/><path d="M81.356 32.827c-2.629-2.727-5.86-5.005-9.667-6.69-5.97-2.63-3.592-11.118 2.168-11.118 3.568 0 5.665 2.343 5.665 4.943 0 2.007-1.465 3.667-4.02 3.494-2.163-.138-3.658-3.937-.272-4.668.771-.183.46-.947-.154-.953-3.767-.005-4.366 5.319-.483 6.696 2.947 1.065 6.462-.92 6.462-4.734 0-4.269-3.35-6.688-7.139-6.688-8.198 0-11.127 11.636-2.92 15.057 3.214 1.345 6.16 3.462 8.652 6.118a2.974 2.974 0 0 1 1.708-1.457" fill="#FFF"/><path d="M81.356 32.827c-2.629-2.727-5.86-5.005-9.667-6.69-5.97-2.63-3.592-11.118 2.168-11.118 3.568 0 5.665 2.343 5.665 4.943 0 2.007-1.465 3.667-4.02 3.494-2.163-.138-3.658-3.937-.272-4.668.771-.183.46-.947-.154-.953-3.767-.005-4.366 5.319-.483 6.696 2.947 1.065 6.462-.92 6.462-4.734 0-4.269-3.35-6.688-7.139-6.688-8.198 0-11.127 11.636-2.92 15.057 3.214 1.345 6.16 3.462 8.652 6.118a2.974 2.974 0 0 1 1.708-1.457" stroke="#000" stroke-width=".567"/><path d="M79.584 71.305c-5.125 5.271-12.379 8.581-20.435 8.581-8.027 0-15.269-3.295-20.395-8.546a3.041 3.041 0 0 1-1.681 1.317c5.518 5.732 13.378 9.337 22.076 9.352h.008c8.64-.015 16.43-3.568 21.94-9.229a3.115 3.115 0 0 1-1.513-1.475" fill="#FFF"/><path d="M79.584 71.305c-5.125 5.271-12.379 8.581-20.435 8.581-8.027 0-15.269-3.295-20.395-8.546a3.041 3.041 0 0 1-1.681 1.317c5.518 5.732 13.378 9.337 22.076 9.352h.008c8.64-.015 16.43-3.568 21.94-9.229a3.115 3.115 0 0 1-1.513-1.475" stroke="#000" stroke-width=".567"/><path d="M84.032 68.946a2.103 2.103 0 0 0-1.79-1.148h-.088a2.122 2.122 0 0 0-2.045 2.676 2.165 2.165 0 0 0 1.499 1.488c.175.04.356.07.546.07a2.125 2.125 0 0 0 2.116-2.12c0-.355-.088-.681-.238-.966" fill="#FFF"/><path d="M84.032 68.946a2.103 2.103 0 0 0-1.79-1.148h-.088a2.122 2.122 0 0 0-2.045 2.676 2.165 2.165 0 0 0 1.499 1.488c.175.04.356.07.546.07a2.125 2.125 0 0 0 2.116-2.12c0-.355-.088-.681-.238-.966" stroke="#000" stroke-width=".567"/><path d="M82.284 33.537c-.084 0-.172.012-.253.033a2.087 2.087 0 0 0-1.76 1.418 2.061 2.061 0 0 0-.115.669c0 1.178.949 2.122 2.128 2.122h.144a2.13 2.13 0 0 0 1.842-1.398c.075-.222.122-.452.122-.724 0-1.154-.952-2.12-2.108-2.12" fill="#FFF"/><path d="M82.284 33.537c-.084 0-.172.012-.253.033a2.087 2.087 0 0 0-1.76 1.418 2.061 2.061 0 0 0-.115.669c0 1.178.949 2.122 2.128 2.122h.144a2.13 2.13 0 0 0 1.842-1.398c.075-.222.122-.452.122-.724 0-1.154-.952-2.12-2.108-2.12" stroke="#000" stroke-width=".567"/><path d="M36.214 67.692c-.154 0-.297 0-.413.038a2.107 2.107 0 0 0-1.601 1.42 1.867 1.867 0 0 0-.114.652c0 1.166.964 2.112 2.128 2.112h.187a2.116 2.116 0 0 0 1.735-1.235c.119-.273.197-.566.197-.877 0-1.156-.957-2.11-2.119-2.11" fill="#FFF"/><path d="M36.214 67.692c-.154 0-.297 0-.413.038a2.107 2.107 0 0 0-1.601 1.42 1.867 1.867 0 0 0-.114.652c0 1.166.964 2.112 2.128 2.112h.187a2.116 2.116 0 0 0 1.735-1.235c.119-.273.197-.566.197-.877 0-1.156-.957-2.11-2.119-2.11" stroke="#000" stroke-width=".567"/><path d="M84.838 98.442l2.876-4.828 2.883 4.828h-5.759zm2.876-8.083l-7.744 12.449h2.168l1.857-2.998h7.437l1.846 2.998h2.16l-7.724-12.45zM81.796 90.867h-9.71v1.355h3.843v10.586h2.02V92.22h3.847zM68.301 102.808h2.016V90.867h-2.016zM60.053 99.698l-4.824-8.831h-2.215l7.039 12.57 7.022-12.57h-2.208zM49.904 102.808h2V90.867h-2zM41.763 96.465h-.654v-4.268h.539c2.003 0 4.414.21 4.414 2.089 0 1.899-2.236 2.179-4.3 2.179m-.35-5.598h-2.308v11.94h2.005v-5h1.17c3.072 0 5.673-.983 5.673-3.498 0-2.183-1.558-3.442-6.54-3.442M27.59 98.442l2.887-4.828 2.875 4.828H27.59zm-4.85 4.366h2.162l1.848-2.998h7.434l1.842 2.998h2.184l-7.733-12.45-7.736 12.45zM59.139 59.821s-1.418 2.492-1.418 3.583c0 1.102.836 2.112 1.472 3.864.437-1.7 1.284-2.643 1.284-3.798 0-1.157-1.338-3.649-1.338-3.649M36.863 50.56s-.076-1.871 1.62-3.61c1.712-1.742 6.541-5.187 13.227-5.352-1.796.695-3.022 2.632-3.81 4.037-.796 1.42-2.63 4.925-6.46 4.925h-4.577zM58.093 41.42a2.258 2.258 0 0 1-1.62 2.77c-1.216.312-2.465-.408-2.781-1.622a2.29 2.29 0 0 1 1.64-2.78 2.264 2.264 0 0 1 2.76 1.633M49.21 51.35c-1.185-1.967-1.309-4.262.442-6.715 1.767-2.459 3.165-2.653 3.165-2.653s-.078 1.447.835 2.347a2.554 2.554 0 0 0 1.511.74s-.87 2.126-1.44 3.094c-1.545 2.616-4.513 3.186-4.513 3.186M51.967 53.185c-1.388-.378-2.885.245-4.225 1.108 0 0 .453-2.414 1.647-2.662 1.21-.247 2.578 1.554 2.578 1.554M52.09 53.938c-.597-.378-4.11.774-4.296 1.907-.12.795.368 1.383.947 1.435 1.19.101 3.882-1.028 3.882-2.528-.076-.372-.23-.608-.532-.814M53.102 55.736c-.157.278-.362.952-1.491 1.793-1.137.817-2.476.914-2.476.914s.159.532.762.964c1.277.92 4.369-.814 3.743-2.811-.289-.91-.488-.942-.538-.86M54.428 57.43c.062.366-.118 1.204-.55 1.74-.512.644-1.21 1.073-1.889 1.374-.048.033.887.484 2.074.09.754-.252 1.6-1.412 1.284-2.398-.164-.533-.96-1-.919-.806M55.085 60.998c-.305 0 .728-.244.977-1.177.3-1.153.053-1.37.3-1.377.1-.012 2.36.532 2.036 1.22-.306.682-1.699 1.317-3.313 1.334M66.515 53.185c1.372-.378 2.895.245 4.225 1.108 0 0-.447-2.414-1.66-2.662-1.204-.247-2.565 1.554-2.565 1.554M66.391 53.938c.59-.378 4.104.774 4.284 1.907.132.795-.353 1.383-.951 1.435-1.19.101-3.868-1.028-3.868-2.528.074-.372.224-.608.535-.814M65.382 55.736c.144.278.336.952 1.48 1.793 1.14.817 2.483.914 2.483.914s-.15.532-.779.964c-1.254.92-4.363-.814-3.722-2.811.284-.91.474-.942.538-.86M64.04 57.43c-.056.366.126 1.204.555 1.74.517.644 1.213 1.073 1.896 1.374.047.033-.88.484-2.073.09-.764-.252-1.607-1.412-1.288-2.398.167-.533.958-1 .91-.806M63.395 60.998c.296 0-.73-.244-.978-1.177-.314-1.153-.057-1.37-.314-1.377-.085-.012-2.35.532-2.025 1.22.32.682 1.7 1.317 3.317 1.334M81.557 50.56s.08-1.871-1.62-3.61c-1.699-1.742-6.55-5.187-13.23-5.352 1.807.695 3.081 2.648 3.816 4.037.786 1.485 2.683 4.925 6.496 4.925h4.538zM60.327 41.42a2.26 2.26 0 0 0 1.621 2.77c1.218.312 2.47-.408 2.773-1.622a2.275 2.275 0 0 0-1.633-2.78 2.262 2.262 0 0 0-2.76 1.633M69.201 51.35c1.19-1.967 1.322-4.262-.428-6.715-1.772-2.459-3.172-2.653-3.172-2.653s.07 1.447-.83 2.347c-.675.685-1.51.74-1.51.74s.876 2.126 1.448 3.094c1.522 2.616 4.492 3.186 4.492 3.186" fill="#FFF"/><path d="M59.231 72.6l-1.802-1.807 1.802-1.796 1.798 1.796-1.798 1.806zm0-5.52c-2.054 0-3.736 1.661-3.736 3.713a3.741 3.741 0 0 0 3.736 3.732 3.738 3.738 0 0 0 3.736-3.732c0-2.052-1.677-3.714-3.736-3.714zM40.083 60.558l-1.453-1.447 1.453-1.436 1.455 1.436-1.455 1.447zm0-4.46a3.027 3.027 0 0 0-3.01 3.013c0 1.652 1.362 3.003 3.01 3.003a3.007 3.007 0 0 0 0-6.016zM78.29 60.558l-1.457-1.447 1.457-1.436 1.441 1.436-1.441 1.447zm0-4.46a3.018 3.018 0 0 0-3.013 3.013 3.012 3.012 0 0 0 3.013 3.003 3.014 3.014 0 0 0 3.002-3.003c0-1.655-1.355-3.013-3.002-3.013z" fill="#FFF"/><path d="M40.105 50.214c.222.261.45.517.597.828.035.07.035.176.12.26.027.044.027.114.027.142.051.03.081.074.081.108.224.723.26 1.501-.109 2.175-.157.298-.302.566-.45.857-.159.301-.222.63-.303.971a7.914 7.914 0 0 0-.066.927c-.75-1.035-1.06-2.35-.688-3.618.23-.707.53-1.346.717-2.085.037-.196.037-.38.074-.565M78.178 50.214c-.228.261-.45.517-.595.828-.037.07-.037.176-.13.26-.014.044-.014.114-.014.142-.057.03-.088.074-.088.108-.223.723-.259 1.501.102 2.175.158.298.316.566.466.857.138.301.22.63.297.971.04.295.074.64.074.927.754-1.035 1.041-2.35.68-3.618-.23-.707-.527-1.346-.715-2.085-.039-.196-.039-.38-.077-.565M61.245 53.586a1.035 1.035 0 0 1-1.033-1.032c0-.579.458-1.047 1.033-1.047.57 0 1.037.468 1.037 1.047 0 .561-.466 1.032-1.037 1.032m-2.17-3.115a1.057 1.057 0 0 1-1.058-1.048c0-.586.47-1.047 1.058-1.047.562 0 1.024.461 1.024 1.047 0 .57-.462 1.048-1.024 1.048m-2.186 3.115a1.05 1.05 0 0 1-1.052-1.032 1.05 1.05 0 0 1 1.052-1.047c.564 0 1.033.468 1.033 1.047 0 .561-.47 1.032-1.033 1.032m2.232-6.902c-2.758 0-5 2.23-5 4.978a4.995 4.995 0 0 0 5 4.991 4.985 4.985 0 0 0 4.979-4.99 4.981 4.981 0 0 0-4.98-4.979M57.334 37.354c-1.052-.484-1.398-.62-2.027-.914-1.785-.814-2.076-4.143-5.216-5.83.923.17 4.683.97 5.953 2.591 1.147 1.453 2.22 4.546 1.29 4.153M60.82 37.354c1.075-.484 1.411-.62 2.032-.914 1.783-.814 2.086-4.143 5.203-5.83-.907.17-4.66.97-5.953 2.591-1.127 1.453-2.197 4.546-1.282 4.153M59.149 37.181c-.414 0-.954-2.142-1.095-2.709-.15-.589.724-3.805.884-4.029.137-.233.252-.333.469.081.223.425 1.113 3.127.857 3.948-.165.546-.695 2.71-1.115 2.71M60.772 28.287c0 .941-.753 1.682-1.683 1.682a1.686 1.686 0 0 1-1.702-1.682c0-.955.764-1.706 1.702-1.706.93 0 1.683.751 1.683 1.706M36.044 37.54h.17a2.126 2.126 0 0 0 2.119-2.11c0-.244-.054-.464-.113-.675a2.142 2.142 0 0 0-1.744-1.436 2.141 2.141 0 0 0-2.39 2.112c0 .234.053.47.12.687a2.13 2.13 0 0 0 1.838 1.423M46.614 26.137c-3.688 1.633-6.856 3.832-9.45 6.466a2.905 2.905 0 0 1 1.682 1.464c2.45-2.55 5.33-4.604 8.46-5.901 8.201-3.421 5.265-15.057-2.938-15.057-3.786 0-7.13 2.419-7.13 6.688 0 3.814 3.526 5.799 6.474 4.734 3.871-1.377 3.26-6.696-.264-6.696-.928 0-1.139.77-.379.954 3.372.73 1.891 4.529-.264 4.667-2.565.174-4.052-1.487-4.052-3.494 0-2.6 2.13-4.943 5.701-4.943 5.735 0 8.117 8.488 2.16 11.118M84.671 68.288a28.315 28.315 0 0 0 4.627-15.547c0-5.622-1.545-10.967-4.483-15.519a3.069 3.069 0 0 1-1.877 1.351c2.648 4.214 4.25 9.149 4.25 14.168 0 5.287-1.585 10.205-4.277 14.385a2.92 2.92 0 0 1 1.76 1.162M35.286 66.956c-2.638-4.13-4.17-9.005-4.17-14.215 0-5.126 1.65-10.164 4.407-14.423a2.985 2.985 0 0 1-1.87-1.378c-3.048 4.618-4.662 10.065-4.662 15.801 0 5.72 1.707 11.057 4.64 15.565a3.133 3.133 0 0 1 1.655-1.35M81.356 32.827c-2.629-2.727-5.86-5.005-9.667-6.69-5.97-2.63-3.592-11.118 2.168-11.118 3.568 0 5.665 2.343 5.665 4.943 0 2.007-1.465 3.667-4.02 3.494-2.163-.138-3.658-3.937-.272-4.668.771-.183.46-.947-.154-.953-3.767-.005-4.366 5.319-.483 6.696 2.947 1.065 6.462-.92 6.462-4.734 0-4.269-3.35-6.688-7.139-6.688-8.198 0-11.127 11.636-2.92 15.057 3.214 1.345 6.16 3.462 8.652 6.118a2.974 2.974 0 0 1 1.708-1.457M79.584 71.305c-5.125 5.271-12.379 8.581-20.435 8.581-8.027 0-15.269-3.295-20.395-8.546a3.041 3.041 0 0 1-1.681 1.317c5.518 5.732 13.378 9.337 22.076 9.352h.008c8.64-.015 16.43-3.568 21.94-9.229a3.115 3.115 0 0 1-1.513-1.475M84.032 68.946a2.103 2.103 0 0 0-1.79-1.148h-.088a2.122 2.122 0 0 0-2.045 2.676 2.165 2.165 0 0 0 1.499 1.488c.175.04.356.07.546.07a2.125 2.125 0 0 0 2.116-2.12c0-.355-.088-.681-.238-.966M82.284 33.537c-.084 0-.172.012-.253.033a2.087 2.087 0 0 0-1.76 1.418 2.061 2.061 0 0 0-.115.669c0 1.178.949 2.122 2.128 2.122h.144a2.13 2.13 0 0 0 1.842-1.398c.075-.222.122-.452.122-.724 0-1.154-.952-2.12-2.108-2.12M36.214 67.692c-.154 0-.297 0-.413.038a2.107 2.107 0 0 0-1.601 1.42 1.867 1.867 0 0 0-.114.652c0 1.166.964 2.112 2.128 2.112h.187a2.116 2.116 0 0 0 1.735-1.235c.119-.273.197-.566.197-.877 0-1.156-.957-2.11-2.119-2.11" fill="#FFF"/></g></svg>
