<svg xmlns="http://www.w3.org/2000/svg" width="579px" height="219px" viewBox="0 0 579 219" fill-rule="evenodd" clip-rule="evenodd" stroke-linejoin="round" stroke-miterlimit="2"><path d="M59.175 139.527L86.742 70.08l27.179 69.447H59.175zM59.317 0l13.155 33.615L0 216.177h28.748l20.562-51.799h74.336l20.272 51.799h58.471L117.785 0H59.317zM282.09 119.518h68.361l10.028-25.259H282.09V26.028h85.735L378.159 0H227.347v216.177h142.709l10.334-26.032h-98.3v-70.627zm209.805 0h36.081v73.151c-4.318 1.183-9.26 1.881-14.494 1.878-48.639 0-62.868-45.081-62.868-84.958 0-38.259 12.209-83.561 59.23-83.561h50.112L570.286 0H503.96c-64.401 0-109.856 44.503-109.856 109.589 0 64.281 43.659 109.589 111.355 109.589 33.725 0 55.586-6.427 73.583-12.707V94.259h-77.121l-10.026 25.259z" fill="#d2203c" fill-rule="nonzero"/></svg>
