<svg xmlns="http://www.w3.org/2000/svg" width="1536px" height="306px" viewBox="0 0 1536 306"><title>Ajax</title><g fill="none" fill-rule="evenodd"><g fill="#000" fill-rule="nonzero"><path d="M1195.04 0h-84.8l340 305.76h84.8L1195.04 0m98.24 217.6l-98.08 88.16h-84.8l97.92-88.16h84.96m143.84-129.44L1535.2 0h-84.8l-98.08 88.16h84.8M212.48 0l-34.72 49.76 177.12 256h70.08L212.48 0m-89.92 129.44H192L70.08 305.76H0l122.56-176.32M851.84 0l-34.72 49.76 177.12 256h70.08L851.84 0m-89.92 129.44h69.44L709.44 305.76h-70.08l122.56-176.32M563.68 0l.16 187.2c-.16 30.4-14.4 68.32-62.24 71.52h-17.44v47.04s15.2 0 25.12.16c23.04.32 56.32-10.88 76.96-32.96 28.96-30.72 32.48-69.92 32.48-88.8V0h-55.04"/></g></g></svg>
