<svg xmlns="http://www.w3.org/2000/svg" xmlns:xlink="http://www.w3.org/1999/xlink" width="400px" height="100px" viewBox="0 0 400 100" version="1.1">
    <title>Avon</title>
    <g id="avon" stroke="none" stroke-width="1" fill="none" fill-rule="evenodd">
        <g id="Group" fill="#000000" fill-rule="nonzero">
            <path d="M32.030349,51.8567073 C40.4087001,34.5719324 48.8214466,17.3033436 57.1917046,0.0145221449 C57.5660091,-0.0502224176 57.8351037,0.101522651 57.9403136,0.46975735 C69.9524532,24.746945 81.9686394,49.0241327 93.9828022,73.3013203 C95.8381386,77.0585282 97.6813354,80.8319222 99.8684876,84.4110826 C101.606474,87.2153315 103.613556,89.9528125 106.35306,91.8567073 C108.764795,93.5501822 111.593323,94.5132576 114.419828,95.2557968 C114.415781,95.9194286 114.415781,96.5830603 114.415781,97.2466921 C95.2635306,97.2487154 76.1112797,97.2487154 56.9570056,97.2487154 C56.9570056,96.5830603 56.9590288,95.9194286 56.952959,95.2557968 C59.5326252,94.6548863 62.268083,93.6897877 63.9190693,91.4945424 C65.2746586,89.6978808 65.3029843,87.2942389 64.8538189,85.1799243 C64.0222559,81.2669248 62.3935255,77.5845778 60.8072838,73.9305565 C50.1648963,73.9325798 39.5204856,73.92651 28.8780981,73.9346031 C28.5199798,76.3422915 28.6312595,78.7843755 28.7283763,81.2062267 C28.9124937,84.4151291 29.3636823,87.7231716 30.9681335,90.561816 C32.0283257,92.4515479 33.6044512,94.0033942 35.3606474,95.2517503 C35.3586242,95.915382 35.3586242,96.5810371 35.3586242,97.2466921 C23.5730905,97.2487154 11.7875569,97.2487154 0.00404653515,97.2466921 C0.00202326758,96.5850836 0.00404653515,95.9254984 0,95.2638899 C4.76277188,93.8071372 8.60293374,90.3817452 11.8401619,86.7196309 C16.6717248,81.1455287 20.4430956,74.7540264 23.917046,68.2735004 C26.7759231,62.879469 29.3292868,57.3316693 32.030349,51.8567073 L32.030349,51.8567073 Z M36.1274659,48.943202 C32.8841679,56.1136623 30.124431,63.6058221 29.1310066,71.454077 C39.2776935,71.445984 49.4223571,71.4641934 59.569044,71.4439607 C53.8958017,59.537031 48.226606,47.628078 42.5594335,35.7171018 C40.3560951,40.0974761 38.1365706,44.4697573 36.1274659,48.943202 Z" id="Shape"/>
            <path d="M364.643399,0.672084107 C368.81133,0.370617238 373.122914,0.409059322 377.108751,1.82130009 C379.925139,2.8005616 382.468386,4.59924647 384.222559,7.02312103 C386.626201,10.2927214 387.70258,14.3210472 388.277188,18.2826051 C389.050076,23.445984 388.774911,28.6781539 388.82347,33.8799749 C388.82347,46.6892819 388.82347,59.5006122 388.82347,72.3119425 C388.841679,74.4687457 388.776935,76.6275722 388.874052,78.7823522 C388.857865,81.4368793 388.912494,84.0954528 389.215984,86.7337938 C389.440567,88.4657108 389.774406,90.2502328 390.719272,91.7514974 C391.540718,93.0565049 392.936773,93.8799749 394.385432,94.3230705 C396.171978,94.8572131 398.033384,95.0939354 399.890744,95.2436572 C399.90086,95.9113355 399.899002,96.5790138 399.899002,97.2466921 C383.376834,97.2487154 366.854831,97.2487154 350.332828,97.2487154 C350.326758,96.5830603 350.324734,95.9194286 350.340921,95.2578201 C352.267071,95.0858423 354.304502,94.7176076 355.854325,93.4732981 C357.181588,92.4009663 357.835104,90.7297472 358.177036,89.1050634 C358.603945,86.9705161 358.67476,84.7874104 358.729388,82.6184675 C358.822458,76.1500811 358.757714,69.6776481 358.777946,63.2072384 C358.743551,52.6842237 358.864947,42.1571625 358.672736,31.6361711 C358.56955,28.7307589 358.492666,25.8091605 357.978756,22.9401671 C357.616591,21.2203896 357.159332,19.4176582 355.969651,18.0640922 C354.634294,16.5223623 352.770865,15.4743097 350.794133,15.0028884 C347.738998,14.3433031 344.524026,15.0635864 341.744057,16.3888266 C339.229135,17.5926709 337.035913,19.3529136 335.006576,21.2426456 C335.002529,33.0686446 335.006576,44.8946435 335.004552,56.7226658 C335.028832,65.1596916 334.949924,73.6007639 335.059181,82.0357665 C335.162367,84.5911534 335.198786,87.1789126 335.813859,89.6756248 C336.174001,91.1445171 336.878098,92.6376886 338.185129,93.4894842 C339.736975,94.5213507 341.64087,94.7702126 343.449671,95.0190745 C343.449671,95.6786597 343.449671,96.3362217 343.451694,96.9958069 C325.729894,96.9958069 308.010116,96.9978302 290.290339,96.9937837 C290.288316,96.3402682 290.290339,95.6887761 290.286292,95.0352606 C292.809307,94.8814923 295.366717,94.8005616 297.820941,94.1369298 C299.320182,93.7201367 300.795144,93.0200861 301.84522,91.8425444 C303.214972,90.3372333 303.815883,88.3200355 304.19828,86.3635358 C305.011634,81.7929743 304.853819,77.1333891 304.961052,72.5142692 C304.932726,60.9796208 305.01568,49.4449723 304.908447,37.9123471 C304.750632,33.5238798 304.596864,29.0119931 302.996459,24.8663178 C301.94436,22.0823016 299.838139,19.6847295 297.106727,18.4586294 C294.67476,17.291204 291.969651,16.890597 289.309054,16.655898 C289.23217,16.0023825 289.147193,15.3488671 289.076378,14.6953517 C298.207385,12.6397118 307.221042,10.0782551 316.10521,7.13844728 C322.446131,5.05448168 328.728376,2.79651506 334.998483,0.506176166 C335.014669,6.34127986 335.000506,12.1763836 335.004552,18.0114872 C339.947395,12.9796208 345.159332,8.04891769 351.403136,4.66196777 C355.475974,2.42828036 360.014163,1.05650495 364.643399,0.672084107 Z" id="Path"/>
            <path d="M232.032372,1.26490151 C241.286798,0.576990531 250.812342,2.0580224 259.168437,6.19358133 C266.130501,9.58862432 272.252908,14.705468 276.789074,20.9897371 C281.837127,27.9295449 284.902377,36.2937331 285.499241,44.8582247 C286.162873,53.6351595 284.263025,62.5719324 280.11735,70.3352101 C272.562468,84.572944 258.328781,94.9401671 242.585736,98.1875115 C233.537683,100.06915 223.963581,99.445984 215.28174,96.2492212 C206.737481,93.1313658 199.127972,87.4965656 193.683359,80.2087558 C190.05564,75.3873092 187.368741,69.865812 185.808801,64.0367781 C183.698533,56.111639 183.674254,47.6402176 185.697521,39.6948459 C188.740516,27.7757766 196.570561,17.3255995 206.743551,10.5071878 C211.010622,7.59772902 215.704603,5.34380894 220.592817,3.69484587 C224.295397,2.4444665 228.139605,1.60481046 232.032372,1.26490151 L232.032372,1.26490151 Z M219.273647,7.12428441 C215.075367,7.53500773 211.308042,10.0620689 208.863935,13.4267629 C207.221042,15.7049622 206.369246,18.5274205 206.454224,21.3357159 C206.466363,24.1986395 207.196763,26.992772 207.973698,29.7302531 C208.936773,33.0180629 210.114315,36.2370816 211.360647,39.4257513 C214.927668,48.3969197 219.113809,57.1091099 223.593323,65.6553921 C226.951947,71.967987 230.440061,78.2724888 234.911482,83.8809865 C237.458776,87.0028884 240.368235,90.0296967 244.11128,91.6887761 C246.433991,92.7307589 249.064239,92.8460851 251.548811,92.4333385 C254.150733,92.0145221 256.639353,90.8531666 258.573596,89.0504351 C260.271118,87.5188216 261.756196,85.6816946 262.571573,83.5248914 C263.550835,81.0140163 263.526555,78.2340467 263.129995,75.6037988 C262.472433,71.6907993 261.197774,67.9174053 259.862418,64.1925697 C256.924633,56.2269652 253.335357,48.520339 249.539707,40.9330856 C246.021244,33.9973244 242.4522,27.0595398 238.144664,20.5709207 C235.805766,17.1131564 233.274659,13.7282298 230.124431,10.962423 C228.443096,9.49757728 226.545271,8.22898851 224.41477,7.52691466 C222.763784,6.97456261 220.989378,6.93005072 219.273647,7.12428441 Z" id="Shape"/>
            <path d="M77.3879616,4.6538747 C77.3940314,3.99024293 77.3920081,3.32661117 77.3920081,2.66095614 C96.7830046,2.66095614 116.171978,2.66095614 135.560951,2.6629794 C135.558928,3.32661117 135.558928,3.99024293 135.564997,4.6538747 C133.025797,5.25073863 130.342944,6.18751152 128.685888,8.32003555 C127.360647,9.99125457 127.200809,12.2795702 127.607486,14.304861 C128.335862,18.2016744 129.861406,21.8941377 131.500253,25.4854377 C137.559939,38.1490694 143.662114,50.7904453 149.715731,63.4561003 C151.658068,59.4034953 153.533637,55.3185181 155.457764,51.2578201 C159.306019,43.045377 162.35306,34.3028378 163.042994,25.2042035 C163.27567,21.4773446 163.216995,17.699904 162.523015,14.0195803 C161.9565,11.045377 160.550329,8.18852316 158.284269,6.1450229 C157.705615,5.61088026 157.086495,5.12327278 156.451189,4.6599445 C156.449165,3.99428947 156.449165,3.32863444 156.451189,2.66095614 C168.236722,2.66095614 180.022256,2.66095614 191.80779,2.6629794 C191.805766,3.3245879 191.805766,3.9861964 191.809813,4.6478049 C188.295397,5.73227632 185.254426,7.94775431 182.618108,10.4586294 C177.353566,15.5653567 173.371775,21.813207 169.766313,28.1521043 C167.605463,31.9942895 165.618614,35.9295449 163.732929,39.9113355 C154.039454,59.9032424 144.307537,79.8789632 134.630248,99.8789632 C134.494689,99.8769399 134.223571,99.8728934 134.088012,99.8728934 C122.8609,77.0565049 111.643905,54.2360699 100.42084,31.4196815 C98.472433,27.4945424 96.5968639,23.5350077 94.5533637,19.6584271 C92.461305,15.802079 90.2741528,11.8526607 86.9236216,8.93308562 C84.2407688,6.60835118 80.801214,5.42473965 77.3879616,4.6538747 Z" id="Path"/>
        </g>
    </g>
</svg>
