<svg xmlns="http://www.w3.org/2000/svg" width="513" height="106" viewBox="0 0 513 106"><title>Attrattivo</title><g fill-rule="nonzero" fill="#000"><path d="M371.058.398a7.324 7.324 0 0 1 4.587.014c2.343.87 4.108 3.106 4.447 5.578.318 2.258-.244 4.76-1.954 6.357-2.14 1.97-5.515 2.05-8.038.806-2.108-1.09-3.838-3.218-3.838-5.676-.26-3.1 1.893-6.095 4.796-7.08zM212.423 6.197c10.505-4.58 22.277-5.81 33.597-4.442 7.89.998 15.638 3.565 22.32 7.917 6.895 4.32 12.805 10.503 15.923 18.095.24.668.497 1.328.752 1.993 3.095 9.355 2.715 19.77-.76 28.967a43.054 43.054 0 0 1-4.3 8.163c-3.678 5.52-8.74 10.35-15.007 12.757-4.498 1.8-9.45 2.175-14.238 1.69a20.175 20.175 0 0 1-3.965-.805c-.863-.39-1.657-.902-2.42-1.454-1.977-2.113-2.567-5.083-2.542-7.89-2.513 3.564-5.753 6.75-9.758 8.58-3.71 1.734-7.938 2.012-11.958 1.547-2.697-.367-5.36-1.233-7.607-2.79-2.975-2.105-5.157-5.245-6.233-8.715-1.417-4.532-1.355-9.39-.647-14.043a34.935 34.935 0 0 1 5.075-13.562c2.773-4.442 6.54-8.375 11.227-10.795 4.22-2.1 9.058-2.96 13.745-2.462 3.178.327 6.325 1.55 8.66 3.774 1.47 1.35 2.713 2.963 3.523 4.795.7-.547.95-1.43 1.333-2.195.712-1.487 1.46-2.957 2.177-4.44 2.558-.007 5.115-.007 7.673-.002-2.656 10.745-5.32 21.488-7.963 32.235-.632 2.57-1.48 5.28-.787 7.922.225.933.922 1.62 1.527 2.323.097-.015.29-.04.387-.052l-.075.257c2.783 1.195 5.933.877 8.783.095 3.923-1.16 7.238-3.865 9.69-7.082 4.045-5.336 6.748-11.71 7.597-18.363.903-6.995.04-14.403-3.487-20.603-3.228-5.92-8.54-10.46-14.365-13.714-8.343-4.61-18.133-6.066-27.55-5.308-9.412.617-18.7 3.755-26.363 9.3-7.27 5.192-13.364 12.235-16.727 20.57-2.463 6.017-3.55 12.55-3.517 19.038-.038 5.047.722 10.125 2.427 14.884 3.005 8.528 9.39 15.615 17.132 20.165 7.738 4.643 16.846 6.596 25.805 6.628 8.06.123 16.068-1.455 23.708-3.945 5.093-1.758 10.07-4.025 14.44-7.208 1.098 1.548 2.208 3.088 3.278 4.655a71.875 71.875 0 0 1-14.23 7.785c-6.923 2.83-14.245 4.795-21.718 5.373-9.058.523-18.285-.44-26.848-3.537-8.477-3.058-16.212-8.238-22.125-15.053a42.354 42.354 0 0 1-7.397-12.348c-1.72-4.442-2.66-9.162-2.972-13.907-.28-5.245-.025-10.545 1.122-15.68 2.023-9.52 6.988-18.323 13.82-25.223 5.632-5.85 12.385-10.642 19.838-13.89zm18.834 29.046c-3.332.45-6.422 2.132-8.755 4.527-2.135 2.23-3.732 4.917-5.007 7.715-2.257 5.1-3.175 10.767-2.768 16.322.343 3.005 1.41 6.01 3.408 8.318 1.875 2.165 4.823 3.11 7.627 2.995 4.283.078 8.446-1.92 11.313-5.053 2.695-2.87 4.493-6.5 5.502-10.282 1.066-4.267 2.108-8.54 3.173-12.805.118-.495.173-1.01.08-1.51-.75-3.94-3.263-7.665-6.988-9.322-2.355-1.13-5.04-1.216-7.585-.906zM79.657 8.207c-.03 5.703-.004 11.408-.014 17.11 3.647-.024 7.297-.002 10.947-.012-.023 3.255 0 6.512-.013 9.767-3.65-.015-7.3-.007-10.95-.005.053 11.56-.022 23.12.038 34.678.132 1.748.205 3.742 1.472 5.095 1.32 1.36 3.39 1.18 5.123 1.13 1.593.013 2.94-.93 4.295-1.64.055 3.413.015 6.825.017 10.237-2.642.816-5.28 1.786-8.065 1.963-3.525.267-7.24-.535-10.065-2.74-1.677-1.275-2.932-3.193-3.14-5.318-.22-1.9-.267-3.812-.36-5.72-.012-12.557.003-25.117-.007-37.674-2.6-.018-5.2-.03-7.8.005-.025-3.26.01-6.52-.023-9.78 2.608.014 5.215-.008 7.823.01.01-2.675.002-5.353 0-8.028 3.58-3.018 7.183-6.01 10.722-9.078zM311.535 8.23c.002 5.695-.01 11.387.005 17.082 3.64-.022 7.28.018 10.922-.022-.044 3.27.008 6.543-.03 9.813-3.63-.073-7.262-.043-10.892-.018-.013 10.72-.005 21.438-.002 32.158.032 2.044-.103 4.165.594 6.125.43 1.33 1.658 2.367 3.055 2.522 1.398.168 2.84.188 4.228-.088 1.065-.37 2.045-.945 3.042-1.47-.042 3.42.023 6.843-.037 10.266-2.545.747-5.067 1.707-7.735 1.907-2.882.265-5.88-.165-8.473-1.495-1.787-.965-3.457-2.32-4.35-4.185-.71-1.34-.777-2.883-.847-4.362-.295-2.898-.17-5.81-.197-8.715.017-10.893-.033-21.786.027-32.678-2.595.005-5.19-.038-7.783.025-.112-3.262-.055-6.525-.067-9.785 2.608-.002 5.217-.012 7.825.005-.005-2.67 0-5.343-.002-8.013 3.567-3.03 7.155-6.034 10.717-9.072zM336.353 15.482c2.877-2.404 5.764-4.804 8.597-7.264-.015 5.7-.002 11.397-.007 17.097 3.647-.02 7.295.002 10.942-.013-.025 3.258-.01 6.515-.007 9.773-3.655-.015-7.31-.023-10.965.005.072 10.723.007 21.448.032 32.17-.017 2.132-.058 4.343.697 6.375.54 1.472 2.106 2.297 3.615 2.37 1.608.102 3.353.123 4.796-.713a39.081 39.081 0 0 1 1.812-.88c.015 3.388.012 6.778-.002 10.165-2.818.883-5.646 1.913-8.628 1.998-4.085.195-8.505-1.14-11.135-4.427-1.018-1.236-1.515-2.846-1.575-4.43-.3-3.14-.3-6.298-.29-9.45 0-11.063-.005-22.128.002-33.19-2.607-.003-5.215-.01-7.82.007.01-3.258.018-6.515 0-9.773 2.6.013 5.2-.002 7.8.01.073-2.704-.072-5.415.086-8.114.702-.55 1.38-1.128 2.05-1.716zM102.345 17.31c3.58-2.98 7.06-6.085 10.718-8.97.034 5.658-.003 11.317.017 16.975 3.627-.027 7.255.017 10.883-.025-.02 3.265-.038 6.53.007 9.797a494.826 494.826 0 0 0-10.897.003c.007 11.222 0 22.445.002 33.665.055 1.895.043 3.933 1.072 5.6.953 1.42 2.785 1.722 4.373 1.688 1.013-.066 2.078-.013 3.02-.456.822-.367 1.61-.812 2.402-1.24-.002 3.42.023 6.84-.007 10.26-2.528.76-5.043 1.68-7.692 1.903-3.255.29-6.68-.27-9.456-2.073-2.09-1.275-3.797-3.394-4.07-5.885-.585-5.582-.302-11.2-.367-16.8-.007-8.895.01-17.79-.01-26.684-2.593.002-5.188-.023-7.782.015-.003-3.265.012-6.53-.018-9.793 2.605.043 5.21-.005 7.815.027-.015-2.67.002-5.34-.01-8.007zM5.635 31.415c4.492-4.4 10.623-6.932 16.835-7.55 5.505-.42 11.282-.015 16.333 2.395 3.375 1.59 6.027 4.475 7.56 7.855 2.184 4.625 2.652 9.83 2.677 14.88.017 8.48-.025 16.958.02 25.438 3.035.004 6.07-.008 9.105.002-.023 3.492-.02 6.983-.005 10.472-6.525-.02-13.052-.01-19.58-.004-.01-1.828.015-3.656.008-5.483-3.806 2.623-7.833 5.087-12.328 6.32-4.22 1.088-8.75 1.19-12.945-.08-4.545-1.36-8.557-4.462-10.97-8.552C.05 73.105-.365 68.25.467 63.775c.778-4.53 3.408-8.71 7.165-11.36 3.823-2.847 8.638-4.142 13.368-4.11 5.985-.05 11.663 2.14 17.195 4.17-.017-4.5-.367-9.17-2.362-13.278-1.405-2.91-4.158-5.142-7.343-5.772-3.48-.692-7.22-.25-10.375 1.41-2.732 1.438-5.032 3.57-7.02 5.91-3.435-.76-6.82-1.732-10.255-2.49a56.837 56.837 0 0 1 1.578-2.898c.987-1.382 2.012-2.742 3.217-3.942zM16.76 60.243c-1.628.755-3.2 1.844-4.048 3.472-1.474 2.757-1.134 6.485 1.093 8.752 1.54 1.566 3.565 2.68 5.725 3.1 3.68.593 7.39-.512 10.697-2.07 2.945-1.284 5.683-2.99 8.34-4.782.02-1.56-.002-3.118.013-4.678-3.402-1.9-6.81-3.957-10.665-4.8-3.692-.787-7.725-.72-11.155 1.005zM476.022 24.492a33.74 33.74 0 0 1 14.088-.077c4.988 1.078 9.71 3.538 13.295 7.19 2.6 2.552 4.8 5.537 6.34 8.845 2.572 5.35 3.418 11.407 3.045 17.295-.332 4.943-1.65 9.87-4.172 14.155-2.335 3.995-5.483 7.557-9.34 10.137-3.796 2.508-8.238 3.975-12.76 4.38-6.028.596-12.325-.367-17.645-3.357-4.27-2.335-7.715-5.93-10.44-9.92-2.68-4.252-4.38-9.112-4.846-14.12-.617-5.963.148-12.133 2.578-17.638 1.642-3.672 4.02-7.002 6.912-9.797 3.523-3.538 8.09-5.975 12.945-7.093zm-5.014 14.763c-3.865 4.05-5.83 9.677-5.865 15.23-.083 3.252.31 6.56 1.465 9.618 1.58 4.262 4.77 7.995 8.945 9.882 4.135 1.825 8.89 1.865 13.23.802 3.037-.922 5.737-2.747 7.777-5.17.9-1.26 1.81-2.522 2.47-3.93 2.233-4.52 2.56-9.727 1.97-14.664-.728-5.263-3.325-10.45-7.7-13.596-3.58-2.617-8.22-3.382-12.555-2.88-3.66.368-7.22 2.003-9.738 4.708zM161.058 24.635c3.07-.773 6.247-.478 9.375-.54.142 3.933.032 7.87.082 11.805-1.422-.13-2.832-.372-4.257-.465-3.943.052-8.023.932-11.23 3.337-3.56 2.586-5.653 6.73-6.673 10.928-.697 2.872-.987 5.842-.955 8.8-.013 5.313.03 10.625-.02 15.938 3.563-.018 7.125.002 10.69-.01-.005 3.49-.017 6.98.005 10.472-9.867-.01-19.735.005-29.6-.008.065-3.49-.077-6.984.08-10.472 2.79.028 5.58-.005 8.373.022.022-13.122.007-26.242.007-39.364-2.803-.018-5.605-.03-8.407.007-.098-3.258-.013-6.52-.043-9.777 6.177 0 12.352 0 18.53-.003.033 3.71-.075 7.422.063 11.127.717-.53 1.002-1.407 1.467-2.132 2.76-4.62 7.18-8.457 12.513-9.665zM360.353 25.297c6.312.02 12.625.005 18.937.008-.007 16.377-.002 32.752-.002 49.13 2.967-.008 5.935.005 8.904-.013-.002 3.498 0 6.993.008 10.49-9.285-.027-18.57-.02-27.852-.005.03-3.49.022-6.98.005-10.47 2.827-.004 5.654-.02 8.484.008-.027-13.125-.04-26.25.008-39.375-2.825-.01-5.648-.005-8.47-.002-.033-3.255.012-6.513-.022-9.77zM387.825 25.295c8.91.027 17.817.005 26.728.01-.073 3.26.127 6.53-.11 9.782-2.223-.042-4.445-.022-6.666-.012 3.998 11.29 8.06 22.555 12.096 33.83.62-.755.825-1.73 1.192-2.615 4.045-10.395 8.077-20.795 12.113-31.195-2.755-.05-5.51-.002-8.265-.027-.01-3.255.01-6.508-.013-9.763 8.788.005 17.578 0 26.365.003-.04 3.26.072 6.522-.058 9.78-2.76-.04-5.52-.035-8.28 0-6.297 16.624-12.745 33.194-19.08 49.81-3.08.01-6.162-.02-9.242.012-5.97-16.41-12.025-32.79-17.988-49.202-.125-.29-.225-.69-.625-.625-2.72-.048-5.442-.01-8.162-.01.005-3.26.025-6.52-.005-9.778z"/></g></svg>
